if (_typeface_js && _typeface_js.loadFace) _typeface_js.loadFace({"glyphs":{"0":{"ha":833,"x_min":58,"x_max":783,"o":"m 418 -17 q 257 18 325 -17 q 145 115 189 53 q 80 263 101 178 q 58 450 58 349 q 81 638 58 551 q 147 786 103 724 q 260 884 192 849 q 424 919 329 919 q 585 884 517 919 q 697 786 653 849 q 763 638 742 724 q 783 450 783 551 q 761 263 783 349 q 694 115 739 178 q 581 18 650 53 q 418 -17 511 -17 m 421 150 q 531 223 492 150 q 571 450 571 296 q 531 677 571 604 q 421 750 492 750 q 308 677 349 750 q 267 450 267 604 q 308 223 267 296 q 421 150 350 150 z "},"1":{"ha":833,"x_min":117,"x_max":758,"o":"m 361 167 l 361 653 l 190 585 q 146 656 164 619 q 117 733 128 693 l 515 908 l 553 908 l 553 167 l 751 167 q 757 124 756 143 q 758 85 758 104 q 757 43 758 63 q 751 0 756 24 l 160 0 q 154 43 156 24 q 153 85 153 63 q 154 124 153 104 q 160 167 156 143 l 361 167 z "},"2":{"ha":833,"x_min":78,"x_max":731,"o":"m 78 21 l 281 286 q 365 396 328 349 q 428 483 403 443 q 467 556 454 522 q 481 625 481 590 q 440 715 481 683 q 325 747 399 747 q 272 744 294 747 q 228 736 249 742 q 187 723 207 731 q 144 706 167 715 q 113 785 126 744 q 97 867 100 825 q 159 890 131 879 q 217 906 188 900 q 277 916 246 913 q 349 919 308 919 q 485 903 422 919 q 592 854 547 888 q 663 770 638 821 q 688 651 688 719 q 674 556 688 601 q 635 465 660 510 q 576 372 610 419 q 500 268 542 324 l 426 169 l 722 169 q 731 88 731 128 q 722 0 731 42 l 88 0 l 78 21 z "},"3":{"ha":833,"x_min":56,"x_max":724,"o":"m 233 400 l 419 736 l 114 736 q 106 819 106 778 q 114 906 106 864 l 694 906 l 708 882 l 485 511 l 490 511 q 588 490 544 511 q 662 435 632 469 q 708 357 692 401 q 724 267 724 313 q 693 110 724 178 q 608 -2 663 43 q 481 -70 554 -47 q 321 -93 407 -93 q 247 -91 279 -93 q 184 -83 214 -89 q 124 -69 154 -78 q 56 -47 93 -60 q 72 39 58 -4 q 104 115 85 82 q 203 88 157 99 q 311 76 250 76 q 395 87 356 76 q 464 119 435 97 q 510 174 493 140 q 528 254 528 207 q 513 315 528 289 q 472 357 497 340 q 414 381 447 374 q 344 389 381 389 q 296 388 321 389 q 247 379 271 386 l 233 400 z "},"4":{"ha":833,"x_min":22,"x_max":801,"o":"m 22 132 l 415 926 q 506 906 463 921 q 589 861 550 892 l 303 281 l 501 281 l 501 503 q 547 508 525 506 q 593 510 569 510 q 643 508 618 510 q 693 503 668 506 l 693 281 l 793 281 q 801 197 801 240 q 799 154 801 176 q 793 113 797 132 l 693 113 l 693 -82 q 647 -87 669 -85 q 601 -89 625 -89 q 551 -87 576 -89 q 501 -82 526 -85 l 501 113 l 35 113 l 22 132 z "},"5":{"ha":833,"x_min":71,"x_max":731,"o":"m 174 906 l 671 906 q 679 822 679 864 q 671 736 679 778 l 351 736 l 343 538 q 388 545 368 543 q 428 547 407 547 q 551 528 496 547 q 647 473 607 510 q 708 382 686 436 q 731 257 731 328 q 701 106 731 171 q 616 -4 671 40 q 483 -71 561 -49 q 307 -93 404 -93 q 262 -91 289 -93 q 203 -84 235 -89 q 138 -71 172 -79 q 71 -51 103 -62 q 89 33 75 -8 q 119 115 103 75 q 211 89 168 99 q 303 79 254 79 q 407 93 365 79 q 475 130 449 107 q 513 183 501 153 q 524 244 524 213 q 478 354 524 315 q 329 393 432 393 q 251 385 289 393 q 174 358 213 378 l 153 375 l 174 906 z "},"6":{"ha":833,"x_min":79,"x_max":788,"o":"m 629 1007 q 641 963 636 985 q 646 917 646 940 q 633 843 646 882 q 496 815 556 840 q 394 749 436 790 q 324 656 351 708 q 288 544 297 603 q 317 580 300 563 q 359 612 335 597 q 415 635 383 626 q 489 644 447 644 q 603 624 549 644 q 698 565 657 604 q 763 464 739 525 q 788 322 788 403 q 758 176 788 239 q 679 69 728 113 q 567 5 631 26 q 436 -17 503 -17 q 171 85 263 -17 q 79 389 79 186 q 113 626 79 515 q 214 819 146 736 q 385 951 282 901 q 629 1007 489 1000 m 432 144 q 539 188 496 144 q 582 318 582 231 q 541 449 582 410 q 438 489 500 489 q 327 448 368 489 q 286 325 286 407 q 326 191 286 238 q 432 144 365 144 z "},"7":{"ha":833,"x_min":88,"x_max":788,"o":"m 514 736 l 96 736 q 88 819 88 778 q 96 906 88 864 l 779 906 l 788 889 l 379 -103 q 284 -74 329 -92 q 196 -24 239 -56 l 514 736 z "},"8":{"ha":833,"x_min":65,"x_max":768,"o":"m 235 529 q 145 617 181 561 q 110 743 110 672 q 133 849 110 801 q 198 929 157 896 q 295 981 239 963 q 417 999 351 999 q 538 981 482 999 q 635 929 594 963 q 700 849 676 896 q 724 743 724 801 q 688 617 724 672 q 597 529 651 563 q 659 491 628 514 q 714 435 690 468 q 753 360 738 403 q 768 264 768 318 q 738 135 768 189 q 659 48 708 82 q 547 -1 610 14 q 417 -17 483 -17 q 287 -1 350 -17 q 174 48 224 14 q 95 135 125 82 q 65 264 65 189 q 80 359 65 317 q 119 434 94 401 q 173 490 143 467 q 235 529 203 514 m 415 453 q 307 388 349 431 q 265 281 265 346 q 305 179 265 215 q 417 143 344 143 q 530 179 492 143 q 568 281 568 215 q 525 389 568 347 q 415 453 482 431 m 417 590 q 506 644 472 610 q 540 736 540 678 q 509 815 540 785 q 417 844 478 844 q 325 815 356 844 q 294 736 294 785 q 328 644 294 678 q 417 590 363 610 z "},"9":{"ha":833,"x_min":64,"x_max":772,"o":"m 222 -104 q 210 -60 215 -82 q 206 -14 206 -37 q 218 60 206 19 q 355 88 294 63 q 458 153 415 113 q 526 247 500 194 q 564 358 553 300 q 534 323 551 340 q 492 291 517 306 q 436 267 468 276 q 363 258 404 258 q 249 278 303 258 q 153 338 194 299 q 88 438 113 378 q 64 581 64 499 q 94 727 64 664 q 172 833 124 790 q 285 898 221 876 q 415 919 349 919 q 681 818 589 919 q 772 514 772 717 q 739 277 772 388 q 638 84 706 167 q 466 -49 569 1 q 222 -104 363 -99 m 414 414 q 524 455 483 414 q 565 578 565 496 q 526 712 565 665 q 419 758 486 758 q 313 715 356 758 q 269 585 269 672 q 310 453 269 493 q 414 414 351 414 z "}," ":{"ha":306,"x_min":0,"x_max":0,"o":""},"!":{"ha":415,"x_min":97,"x_max":318,"o":"m 100 999 q 207 1007 154 1007 q 315 999 261 1007 l 301 319 q 208 311 253 311 q 114 319 161 311 l 100 999 m 106 0 q 97 101 97 51 q 106 204 97 151 q 207 213 157 213 q 310 204 257 213 q 318 103 318 151 q 310 0 318 51 q 208 -8 257 -8 q 106 0 157 -8 z "},"\"":{"ha":596,"x_min":69,"x_max":526,"o":"m 69 1000 q 114 1006 93 1004 q 158 1007 135 1007 q 203 1006 182 1007 q 249 1000 225 1004 l 249 610 q 204 604 225 606 q 160 603 183 603 q 115 604 136 603 q 69 610 93 606 l 69 1000 m 347 1000 q 392 1006 371 1004 q 436 1007 413 1007 q 481 1006 460 1007 q 526 1000 503 1004 l 526 610 q 482 604 503 606 q 438 603 461 603 q 392 604 414 603 q 347 610 371 606 l 347 1000 z "},"#":{"ha":1019,"x_min":74,"x_max":935,"o":"m 236 285 l 79 285 q 74 357 74 317 q 76 394 74 376 q 81 432 78 413 l 249 432 l 263 600 l 107 600 q 102 638 104 619 q 100 675 100 656 q 102 712 100 694 q 107 749 104 729 l 275 749 l 293 958 q 335 964 315 963 q 379 965 356 965 q 420 964 400 965 q 461 958 440 963 l 443 749 l 613 749 l 631 958 q 674 964 654 963 q 717 965 693 965 q 758 964 738 965 q 800 958 778 963 l 782 749 l 928 749 q 933 713 931 729 q 935 678 935 697 q 933 639 935 658 q 928 600 931 619 l 771 600 l 757 432 l 901 432 q 906 396 904 413 q 908 360 908 379 q 906 322 908 340 q 901 285 904 304 l 744 285 l 725 42 q 681 36 701 38 q 639 35 661 35 q 597 36 617 35 q 556 42 578 38 l 575 285 l 407 285 l 388 42 q 344 36 364 38 q 300 35 324 35 q 260 36 279 35 q 217 42 240 38 l 236 285 m 588 432 l 601 600 l 432 600 l 418 432 l 588 432 z "},"$":{"ha":833,"x_min":71,"x_max":738,"o":"m 364 -17 l 353 -17 q 271 -14 307 -17 q 202 -5 235 -11 q 138 11 169 1 q 71 35 106 21 q 86 116 75 75 q 113 201 97 157 q 222 169 171 178 q 332 160 274 160 q 467 190 419 160 q 515 286 515 219 q 502 341 515 319 q 469 376 489 363 q 424 400 449 390 q 375 421 399 410 l 301 453 q 218 494 256 472 q 153 545 181 515 q 112 615 126 575 q 97 714 97 656 q 168 911 97 839 q 364 999 239 983 l 364 1146 q 424 1154 393 1154 q 485 1146 453 1154 l 485 1003 q 592 987 540 999 q 700 956 643 975 q 656 797 692 875 q 613 814 635 806 q 567 828 592 822 q 513 837 543 833 q 443 840 482 840 q 395 837 419 840 q 351 822 371 833 q 319 791 332 811 q 307 739 307 771 q 317 692 307 711 q 343 659 326 672 q 381 636 360 646 q 422 618 401 626 l 506 583 q 601 539 558 561 q 674 485 644 517 q 721 409 704 454 q 738 296 738 364 q 673 103 738 182 q 485 -3 608 25 l 485 -164 q 425 -172 456 -172 q 364 -164 394 -172 l 364 -17 z "},"%":{"ha":1458,"x_min":69,"x_max":1401,"o":"m 975 985 q 1072 993 1022 993 q 1168 985 1115 993 l 496 3 q 403 -6 447 -6 q 304 3 356 -6 l 975 985 m 338 540 q 411 585 388 540 q 435 703 435 629 q 411 822 435 778 q 338 865 388 865 q 264 822 288 865 q 240 703 240 778 q 264 585 240 629 q 338 540 288 540 m 338 408 q 217 433 268 408 q 134 499 167 458 q 85 593 101 540 q 69 703 69 646 q 85 813 69 760 q 134 908 101 867 q 217 974 167 949 q 338 999 268 999 q 456 974 406 999 q 540 908 507 949 q 590 813 574 867 q 606 703 606 760 q 590 593 606 646 q 540 499 574 540 q 456 433 507 458 q 338 408 406 408 m 1133 115 q 1207 160 1183 115 q 1231 278 1231 204 q 1207 397 1231 353 q 1133 440 1183 440 q 1060 397 1083 440 q 1036 278 1036 353 q 1060 160 1036 204 q 1133 115 1083 115 m 1133 -17 q 1013 8 1064 -17 q 930 74 963 33 q 881 168 897 115 q 865 278 865 221 q 881 388 865 335 q 930 483 897 442 q 1013 549 963 524 q 1133 574 1064 574 q 1252 549 1201 574 q 1336 483 1303 524 q 1385 388 1369 442 q 1401 278 1401 335 q 1385 168 1401 221 q 1336 74 1369 115 q 1252 8 1303 33 q 1133 -17 1201 -17 z "},"&":{"ha":1060,"x_min":68,"x_max":1025,"o":"m 682 647 l 846 843 l 876 843 l 876 647 l 1018 647 q 1024 610 1022 626 q 1025 575 1025 593 q 1024 538 1025 556 q 1018 497 1022 519 l 876 497 l 876 328 q 847 178 876 242 q 760 70 817 114 q 625 5 704 26 q 447 -17 546 -17 q 307 -1 375 -17 q 185 51 239 15 q 100 144 132 88 q 68 283 68 201 q 83 378 68 333 q 121 458 97 422 q 174 520 144 494 q 235 558 204 546 q 146 637 183 586 q 108 764 108 688 q 133 874 108 826 q 199 952 157 921 q 298 999 242 983 q 419 1015 354 1015 q 510 1009 460 1015 q 615 983 561 1003 q 572 838 615 904 q 490 858 526 854 q 429 861 454 861 q 333 830 363 861 q 304 756 304 799 q 311 712 304 732 q 335 677 318 692 q 378 655 351 663 q 446 647 406 647 l 682 647 m 685 497 l 451 497 q 331 449 376 497 q 286 325 286 401 q 328 200 286 247 q 469 153 371 153 q 577 172 536 153 q 642 224 618 192 q 674 296 665 256 q 685 379 683 336 l 685 497 z "},"'":{"ha":318,"x_min":69,"x_max":249,"o":"m 69 1000 q 114 1006 93 1004 q 158 1007 135 1007 q 203 1006 182 1007 q 249 1000 225 1004 l 249 610 q 204 604 225 606 q 160 603 183 603 q 115 604 136 603 q 69 610 93 606 l 69 1000 z "},"(":{"ha":496,"x_min":69,"x_max":426,"o":"m 231 -232 q 169 -115 199 -181 q 118 31 140 -50 q 83 209 96 111 q 69 424 69 307 q 83 638 69 540 q 118 817 96 736 q 169 962 140 897 q 231 1078 199 1026 q 269 1084 243 1082 q 324 1086 294 1086 q 379 1084 351 1086 q 426 1078 407 1082 q 383 995 410 1050 q 332 858 357 940 q 288 668 307 776 q 269 424 269 560 q 288 178 269 288 q 332 -12 307 69 q 383 -149 357 -94 q 426 -232 410 -204 q 379 -238 407 -236 q 324 -240 351 -240 q 269 -238 294 -240 q 231 -232 243 -236 z "},")":{"ha":496,"x_min":69,"x_max":426,"o":"m 69 -232 q 113 -149 86 -204 q 164 -12 139 -94 q 208 178 189 69 q 226 424 226 288 q 208 668 226 560 q 164 858 189 776 q 113 995 139 940 q 69 1078 86 1050 q 117 1084 89 1082 q 172 1086 144 1086 q 227 1084 201 1086 q 265 1078 253 1082 q 326 962 297 1026 q 378 817 356 897 q 413 638 400 736 q 426 424 426 540 q 413 209 426 307 q 378 31 400 111 q 326 -115 356 -50 q 265 -232 297 -181 q 227 -238 253 -236 q 172 -240 201 -240 q 117 -238 144 -240 q 69 -232 89 -236 z "},"*":{"ha":672,"x_min":50,"x_max":650,"o":"m 297 999 q 347 1003 322 1003 q 403 999 375 1003 l 419 808 q 383 804 400 806 q 347 803 365 803 q 282 808 308 803 l 297 999 m 50 739 q 63 791 53 765 q 83 839 72 817 l 269 796 q 226 665 257 722 l 50 739 m 361 564 q 472 644 415 615 l 572 482 q 531 447 553 463 q 486 419 510 431 l 361 564 m 618 840 q 638 790 631 817 q 650 740 646 764 l 474 665 q 447 732 457 699 q 432 796 436 765 l 618 840 m 231 643 q 342 563 288 614 l 217 418 q 172 445 193 429 q 131 481 150 461 l 231 643 z "},"+":{"ha":833,"x_min":106,"x_max":726,"o":"m 332 407 l 114 407 q 106 490 106 449 q 114 575 106 533 l 332 575 l 332 821 q 415 829 374 829 q 500 821 458 829 l 500 575 l 718 575 q 726 492 726 533 q 718 407 726 449 l 500 407 l 500 161 q 417 153 458 153 q 332 161 374 153 l 332 407 z "},",":{"ha":404,"x_min":47,"x_max":331,"o":"m 139 200 q 186 208 163 206 q 232 210 210 210 q 281 208 254 210 q 331 200 307 206 l 229 -156 q 182 -162 206 -161 q 136 -164 158 -164 q 92 -162 114 -164 q 47 -156 71 -161 l 139 200 z "},"-":{"ha":515,"x_min":72,"x_max":443,"o":"m 435 467 q 443 382 443 425 q 435 296 443 338 l 81 296 q 72 381 72 338 q 81 467 72 425 l 435 467 z "},".":{"ha":401,"x_min":90,"x_max":311,"o":"m 99 0 q 90 101 90 51 q 99 204 90 151 q 200 213 150 213 q 303 204 250 213 q 311 103 311 151 q 303 0 311 51 q 201 -8 250 -8 q 99 0 150 -8 z "},"/":{"ha":568,"x_min":17,"x_max":551,"o":"m 354 999 q 454 1007 406 1007 q 551 999 501 1007 l 213 0 q 114 -8 163 -8 q 17 0 67 -8 l 354 999 z "},":":{"ha":401,"x_min":90,"x_max":311,"o":"m 99 0 q 90 101 90 51 q 99 204 90 151 q 200 213 150 213 q 303 204 250 213 q 311 103 311 151 q 303 0 311 51 q 201 -8 250 -8 q 99 0 150 -8 m 99 514 q 90 615 90 565 q 99 718 90 665 q 200 726 150 726 q 303 718 250 726 q 311 617 311 665 q 303 514 311 565 q 201 506 250 506 q 99 514 150 506 z "},";":{"ha":431,"x_min":39,"x_max":340,"o":"m 131 200 q 178 208 154 206 q 224 210 201 210 q 272 208 246 210 q 322 200 299 206 l 221 -156 q 174 -162 197 -161 q 128 -164 150 -164 q 84 -162 106 -164 q 39 -156 63 -161 l 131 200 m 128 514 q 119 615 119 565 q 128 718 119 665 q 229 726 179 726 q 332 718 279 726 q 340 617 340 665 q 332 514 340 565 q 231 506 279 506 q 128 514 179 506 z "},"<":{"ha":833,"x_min":119,"x_max":715,"o":"m 707 801 q 715 714 715 747 q 714 667 715 690 q 708 622 713 643 l 289 471 l 708 328 q 714 284 713 307 q 715 238 715 261 q 714 193 715 218 q 707 140 713 168 l 132 368 q 119 476 119 424 q 132 575 119 525 l 707 801 z "},"=":{"ha":833,"x_min":117,"x_max":718,"o":"m 710 425 q 718 342 718 383 q 710 257 718 299 l 125 257 q 117 340 117 299 q 125 425 117 383 l 710 425 m 710 710 q 718 626 718 668 q 710 542 718 583 l 125 542 q 117 625 117 583 q 125 710 117 668 l 710 710 z "},">":{"ha":833,"x_min":118,"x_max":714,"o":"m 544 471 l 125 614 q 119 658 121 635 q 118 704 118 681 q 119 749 118 724 q 126 801 121 774 l 701 574 q 714 465 714 517 q 701 367 714 417 l 126 140 q 118 228 118 194 q 119 275 118 251 q 125 319 121 299 l 544 471 z "},"?":{"ha":685,"x_min":60,"x_max":643,"o":"m 243 553 q 310 569 275 558 q 374 597 344 579 q 422 642 403 615 q 440 710 440 669 q 397 801 440 769 q 283 832 354 832 q 231 830 254 832 q 189 823 208 828 q 149 812 169 818 q 107 797 129 806 q 75 872 88 833 q 60 953 63 911 q 126 974 96 965 q 186 989 157 983 q 244 997 215 994 q 307 999 274 999 q 558 923 474 999 q 643 715 643 847 q 618 603 643 650 q 558 523 593 556 q 485 470 522 490 q 424 440 447 450 l 424 314 q 331 306 375 306 q 243 314 285 306 l 243 553 m 229 0 q 221 101 221 51 q 229 204 221 151 q 331 213 281 213 q 433 204 381 213 q 442 103 442 151 q 433 0 442 51 q 332 -8 381 -8 q 229 0 281 -8 z "},"@":{"ha":1396,"x_min":60,"x_max":1336,"o":"m 913 221 q 958 210 926 210 q 1050 240 1010 210 q 1117 319 1090 271 q 1158 427 1144 368 q 1172 543 1172 486 q 1075 788 1172 703 q 801 872 978 872 q 559 826 665 872 q 380 701 453 779 q 269 520 307 622 q 231 308 231 418 q 260 138 231 208 q 342 22 290 67 q 462 -44 393 -24 q 608 -65 531 -65 q 742 -56 681 -65 q 853 -28 803 -47 q 876 -91 865 -58 q 896 -156 888 -124 q 836 -178 871 -168 q 761 -195 801 -189 q 676 -205 721 -201 q 586 -208 631 -208 q 383 -178 479 -208 q 215 -84 288 -147 q 101 75 143 -21 q 60 303 60 171 q 105 553 60 426 q 243 781 150 679 q 480 948 336 883 q 821 1013 624 1013 q 1020 984 926 1013 q 1184 897 1114 956 q 1295 751 1254 839 q 1336 543 1336 663 q 1308 373 1336 457 q 1228 222 1279 289 q 1103 114 1176 156 q 942 71 1031 72 q 788 124 840 71 q 700 87 746 103 q 585 71 654 71 q 501 84 540 71 q 433 126 463 97 q 387 197 404 154 q 369 300 369 240 q 401 473 369 394 q 486 608 432 551 q 612 697 540 665 q 765 729 683 729 q 888 720 828 729 q 1001 692 949 711 l 913 221 m 804 574 q 776 579 789 578 q 747 581 763 581 q 666 560 701 581 q 606 505 631 539 q 567 426 581 471 q 554 332 554 381 q 581 242 554 269 q 653 214 608 214 q 701 218 681 214 q 744 229 721 222 l 804 574 z "},"A":{"ha":883,"x_min":14,"x_max":868,"o":"m 329 999 q 385 1005 358 1003 q 443 1007 411 1007 q 497 1005 471 1007 q 556 999 524 1003 l 868 0 q 757 -8 811 -8 q 654 0 704 -8 l 599 200 l 268 200 l 211 0 q 115 -8 161 -8 q 14 0 64 -8 l 329 999 m 551 368 l 436 788 l 315 368 l 551 368 z "},"B":{"ha":840,"x_min":100,"x_max":786,"o":"m 100 1000 q 203 1011 144 1007 q 349 1015 261 1015 q 493 1003 425 1015 q 612 960 561 990 q 692 881 663 931 q 721 756 721 831 q 708 673 721 711 q 672 606 694 635 q 622 559 650 578 q 565 536 594 540 q 636 517 597 532 q 708 472 675 501 q 764 394 742 442 q 786 281 786 347 q 752 133 786 190 q 660 42 718 75 q 527 -4 603 8 q 368 -17 451 -17 q 242 -13 304 -17 q 100 0 179 -10 l 100 1000 m 301 153 q 347 149 321 150 q 393 147 372 147 q 454 153 422 147 q 514 174 486 158 q 560 219 542 190 q 578 293 578 247 q 564 365 578 336 q 524 410 550 393 q 463 435 499 428 q 385 442 428 442 l 301 442 l 301 153 m 363 594 q 427 601 397 594 q 479 623 457 607 q 514 666 501 639 q 526 735 526 693 q 512 801 526 775 q 474 841 497 826 q 423 860 451 856 q 367 865 394 865 q 301 861 328 865 l 301 594 l 363 594 z "},"C":{"ha":858,"x_min":72,"x_max":804,"o":"m 757 189 q 787 109 775 150 q 804 26 799 68 q 674 -8 732 0 q 550 -17 617 -17 q 343 22 432 -17 q 194 128 254 60 q 103 292 133 197 q 72 497 72 386 q 104 703 72 608 q 197 868 136 799 q 345 976 257 938 q 546 1015 433 1015 q 669 1007 613 1015 q 790 972 725 999 q 774 891 788 931 q 743 811 760 851 q 657 835 694 828 q 568 842 619 842 q 363 755 435 842 q 292 497 292 668 q 579 158 292 158 q 669 165 631 158 q 757 189 708 172 z "},"D":{"ha":972,"x_min":101,"x_max":901,"o":"m 101 999 q 224 1010 160 1006 q 365 1015 288 1015 q 765 885 628 1015 q 901 493 901 754 q 763 107 901 231 q 350 -17 624 -17 q 219 -12 279 -17 q 101 0 160 -7 l 101 999 m 306 161 q 338 158 318 160 q 385 157 357 157 q 503 172 449 157 q 599 225 558 186 q 663 329 639 264 q 686 497 686 394 q 663 664 686 597 q 599 769 639 731 q 506 824 558 808 q 396 840 454 840 q 351 840 376 840 q 306 836 325 839 l 306 161 z "},"E":{"ha":738,"x_min":97,"x_max":682,"o":"m 97 999 l 664 999 q 672 914 672 957 q 664 826 672 868 l 300 826 l 300 610 l 589 610 q 597 524 597 565 q 589 436 597 479 l 300 436 l 300 172 l 674 172 q 682 88 682 131 q 674 0 682 42 l 97 0 l 97 999 z "},"F":{"ha":704,"x_min":97,"x_max":672,"o":"m 97 999 l 664 999 q 672 914 672 957 q 664 826 672 868 l 300 826 l 300 592 l 589 592 q 597 506 597 547 q 589 418 597 461 l 300 418 l 300 0 q 200 -8 247 -8 q 97 0 149 -8 l 97 999 z "},"G":{"ha":928,"x_min":71,"x_max":847,"o":"m 646 518 q 746 526 697 526 q 847 518 794 526 l 847 28 q 697 -8 775 1 q 560 -17 618 -17 q 346 22 438 -17 q 193 128 254 60 q 101 292 132 197 q 71 497 71 386 q 103 703 71 608 q 195 868 135 799 q 344 976 256 938 q 544 1015 432 1015 q 669 1007 611 1015 q 789 972 726 999 q 772 891 786 931 q 742 811 758 851 q 656 835 693 828 q 567 842 618 842 q 362 755 433 842 q 290 497 290 668 q 361 242 290 326 q 569 158 432 158 q 612 161 593 158 q 646 167 631 164 l 646 518 z "},"H":{"ha":938,"x_min":97,"x_max":840,"o":"m 97 999 q 199 1007 149 1007 q 301 999 249 1007 l 301 607 l 636 607 l 636 999 q 738 1007 688 1007 q 840 999 788 1007 l 840 0 q 739 -8 788 -8 q 636 0 688 -8 l 636 432 l 301 432 l 301 0 q 200 -8 249 -8 q 97 0 149 -8 l 97 999 z "},"I":{"ha":399,"x_min":97,"x_max":301,"o":"m 97 999 q 199 1007 149 1007 q 301 999 249 1007 l 301 0 q 200 -8 249 -8 q 97 0 149 -8 l 97 999 z "},"J":{"ha":571,"x_min":35,"x_max":481,"o":"m 278 826 l 113 826 q 106 869 108 846 q 104 914 104 892 q 113 999 104 958 l 481 999 l 481 265 q 456 135 481 189 q 390 48 432 82 q 290 -1 347 14 q 164 -17 232 -17 q 105 -12 140 -17 q 38 0 69 -8 q 35 19 36 10 q 35 40 35 29 q 58 168 35 104 q 92 161 74 165 q 129 157 110 157 q 179 160 153 157 q 227 176 206 163 q 263 217 249 190 q 278 294 278 244 l 278 826 z "},"K":{"ha":860,"x_min":97,"x_max":846,"o":"m 329 503 l 600 999 q 659 1006 632 1004 q 708 1007 686 1007 q 761 1004 732 1007 q 822 999 790 1001 l 549 517 l 846 0 q 784 -6 814 -3 q 731 -8 754 -8 q 681 -7 708 -8 q 621 0 654 -6 l 329 503 m 97 1000 q 149 1006 124 1004 q 200 1007 174 1007 q 249 1006 224 1007 q 300 1000 274 1004 l 300 -1 q 249 -7 274 -6 q 199 -8 224 -8 q 149 -7 174 -8 q 97 -1 124 -6 l 97 1000 z "},"L":{"ha":685,"x_min":97,"x_max":650,"o":"m 97 999 q 196 1007 149 1007 q 297 999 244 1007 l 297 175 l 643 175 q 649 130 647 151 q 650 89 650 108 q 649 45 650 67 q 643 0 647 24 l 97 0 l 97 999 z "},"M":{"ha":1135,"x_min":86,"x_max":1049,"o":"m 125 999 q 232 1007 181 1007 q 339 999 286 1007 l 568 426 l 804 999 q 900 1007 847 1007 q 1001 999 953 1007 l 1049 0 q 949 -8 996 -8 q 856 0 901 -8 l 831 678 l 628 208 q 588 203 608 206 q 546 201 567 201 q 510 203 528 201 q 472 208 492 204 l 283 688 l 264 0 q 178 -8 219 -8 q 86 0 133 -8 l 125 999 z "},"N":{"ha":928,"x_min":97,"x_max":831,"o":"m 97 999 q 179 1007 140 1007 q 265 999 221 1007 l 651 363 l 651 999 q 747 1007 701 1007 q 831 999 790 1007 l 831 0 q 750 -8 786 -8 q 665 0 711 -8 l 276 635 l 276 0 q 186 -8 232 -8 q 97 0 140 -8 l 97 999 z "},"O":{"ha":1008,"x_min":71,"x_max":938,"o":"m 504 -17 q 310 22 392 -17 q 175 130 228 61 q 97 292 122 199 q 71 497 71 386 q 97 703 71 608 q 175 868 122 799 q 310 976 228 938 q 504 1015 392 1015 q 699 976 617 1015 q 833 868 781 938 q 912 703 886 799 q 938 497 938 608 q 912 292 938 386 q 833 130 886 199 q 699 22 781 61 q 504 -17 617 -17 m 504 153 q 719 497 719 153 q 667 756 719 669 q 506 842 615 842 q 288 497 288 842 q 504 153 288 153 z "},"P":{"ha":810,"x_min":97,"x_max":758,"o":"m 97 1003 q 226 1012 161 1008 q 358 1015 292 1015 q 499 1001 428 1015 q 628 949 571 988 q 722 843 686 911 q 758 667 758 775 q 722 491 758 558 q 629 385 686 424 q 502 332 572 346 q 364 318 432 318 q 330 319 346 318 q 300 321 314 319 l 300 0 q 249 -6 274 -4 q 200 -7 224 -7 q 151 -6 178 -7 q 97 0 125 -4 l 97 1003 m 300 489 q 331 486 317 486 q 367 486 346 486 q 435 495 401 486 q 494 525 468 504 q 535 580 519 546 q 550 664 550 614 q 535 751 550 715 q 494 808 519 786 q 435 838 468 829 q 367 847 401 847 q 338 847 351 847 q 300 843 325 846 l 300 489 z "},"Q":{"ha":1008,"x_min":71,"x_max":963,"o":"m 963 -78 q 953 -160 960 -118 q 931 -240 946 -203 l 586 -185 q 593 -135 590 -156 q 600 -98 596 -115 q 610 -63 604 -81 q 622 -25 615 -46 l 963 -78 m 504 -17 q 310 22 392 -17 q 175 130 228 61 q 97 292 122 199 q 71 497 71 386 q 97 703 71 608 q 175 868 122 799 q 310 976 228 938 q 504 1015 392 1015 q 699 976 617 1015 q 833 868 781 938 q 912 703 886 799 q 938 497 938 608 q 912 292 938 386 q 833 130 886 199 q 699 22 781 61 q 504 -17 617 -17 m 504 153 q 719 497 719 153 q 667 756 719 669 q 506 842 615 842 q 288 497 288 842 q 504 153 288 153 z "},"R":{"ha":849,"x_min":107,"x_max":835,"o":"m 107 999 q 222 1010 168 1006 q 340 1015 275 1015 q 491 1001 417 1015 q 625 952 565 988 q 722 856 685 917 q 758 703 758 796 q 744 605 758 647 q 709 531 731 563 q 663 476 688 499 q 615 439 638 453 l 592 424 l 835 1 q 776 -4 807 -1 q 714 -7 746 -7 q 610 1 661 -7 l 349 465 l 382 482 q 429 507 401 492 q 483 545 457 522 q 526 601 508 568 q 544 678 544 633 q 494 806 544 765 q 365 847 444 847 q 310 843 335 847 l 310 0 q 260 -5 285 -3 q 211 -7 235 -7 q 161 -6 188 -7 q 107 0 135 -4 l 107 999 z "},"S":{"ha":764,"x_min":49,"x_max":715,"o":"m 279 463 q 194 502 232 481 q 131 553 157 524 q 90 625 104 583 q 75 725 75 667 q 99 850 75 796 q 168 941 124 904 q 275 997 213 978 q 415 1015 338 1015 q 548 1003 486 1015 q 678 967 610 990 q 633 808 669 886 q 591 825 613 817 q 545 839 569 833 q 490 848 521 844 q 421 851 460 851 q 373 847 397 851 q 329 832 349 843 q 297 799 310 821 q 285 743 285 778 q 294 697 285 715 q 321 665 304 678 q 358 642 338 651 q 400 625 379 633 l 483 593 q 579 550 536 572 q 652 495 622 528 q 699 416 682 463 q 715 301 715 369 q 690 172 715 231 q 615 72 664 114 q 495 7 567 31 q 331 -17 424 -17 q 249 -14 285 -17 q 180 -5 213 -11 q 115 11 147 1 q 49 35 83 21 q 64 119 53 75 q 90 207 75 163 q 200 172 149 183 q 310 160 251 160 q 447 192 397 160 q 497 292 497 225 q 485 347 497 325 q 455 385 474 369 q 413 410 436 400 q 364 431 389 421 l 279 463 z "},"T":{"ha":788,"x_min":35,"x_max":753,"o":"m 292 826 l 43 826 q 35 914 35 868 q 43 999 35 957 l 744 999 q 753 914 753 957 q 744 826 753 868 l 496 826 l 496 0 q 446 -5 471 -3 q 397 -7 421 -7 q 347 -6 374 -7 q 292 0 319 -4 l 292 826 z "},"U":{"ha":932,"x_min":92,"x_max":842,"o":"m 92 999 q 143 1004 118 1003 q 194 1006 168 1006 q 243 1004 218 1006 q 294 999 268 1003 l 294 481 q 301 335 294 396 q 326 235 307 275 q 378 177 344 196 q 467 158 413 158 q 554 177 521 158 q 606 235 588 196 q 631 335 625 275 q 638 481 638 396 l 638 999 q 690 1004 665 1003 q 739 1006 715 1006 q 790 1004 764 1006 q 842 999 815 1003 l 842 438 q 825 252 842 336 q 765 108 808 168 q 650 16 722 49 q 467 -17 578 -17 q 283 16 356 -17 q 168 108 211 49 q 108 252 125 168 q 92 438 92 336 l 92 999 z "},"V":{"ha":896,"x_min":14,"x_max":882,"o":"m 14 999 q 68 1004 38 1001 q 122 1007 99 1007 q 233 999 175 1007 l 451 211 l 672 999 q 726 1004 700 1003 q 778 1006 751 1006 q 828 1004 803 1006 q 882 999 854 1003 l 560 0 q 503 -6 531 -4 q 446 -8 476 -8 q 392 -6 418 -8 q 333 0 365 -4 l 14 999 z "},"W":{"ha":1279,"x_min":22,"x_max":1260,"o":"m 22 999 q 136 1007 72 1007 q 187 1006 161 1007 q 238 999 213 1004 l 381 247 l 553 999 q 604 1005 581 1003 q 653 1007 628 1007 q 743 999 694 1007 l 922 228 l 1065 999 q 1154 1007 1108 1007 q 1208 1004 1182 1007 q 1260 999 1235 1001 l 1019 0 q 915 -8 969 -8 q 800 0 863 -8 l 640 665 l 468 0 q 409 -6 435 -3 q 353 -8 383 -8 q 260 0 310 -8 l 22 999 z "},"X":{"ha":879,"x_min":25,"x_max":854,"o":"m 446 518 l 601 996 q 706 1004 656 1004 q 759 1003 732 1004 q 814 997 786 1001 l 638 522 l 854 0 q 798 -6 822 -4 q 749 -8 774 -8 q 701 -6 725 -8 q 642 1 676 -4 l 446 518 m 244 522 l 65 997 q 120 1003 93 1001 q 174 1004 147 1004 q 278 996 224 1004 l 436 518 l 238 1 q 178 -6 203 -4 q 131 -8 154 -8 q 81 -6 106 -8 q 25 0 57 -4 l 244 522 z "},"Y":{"ha":854,"x_min":14,"x_max":840,"o":"m 325 357 l 14 999 q 131 1007 72 1007 q 236 999 183 1007 l 433 546 l 628 999 q 733 1007 679 1007 q 840 999 783 1007 l 529 357 l 529 -1 q 476 -7 501 -6 q 426 -8 451 -8 q 377 -7 403 -8 q 325 -1 351 -6 l 325 357 z "},"Z":{"ha":806,"x_min":53,"x_max":769,"o":"m 53 14 l 472 826 l 89 826 q 81 911 81 868 q 89 999 81 957 l 758 999 l 769 982 l 354 172 l 749 172 q 757 88 757 131 q 749 0 757 42 l 63 0 l 53 14 z "},"[":{"ha":478,"x_min":69,"x_max":408,"o":"m 69 1078 l 400 1078 q 406 1039 404 1057 q 408 1000 408 1021 q 400 919 408 961 l 261 919 l 261 -75 l 400 -75 q 408 -156 408 -117 q 406 -194 408 -176 q 400 -233 404 -212 l 69 -233 l 69 1078 z "},"\\":{"ha":575,"x_min":21,"x_max":556,"o":"m 21 999 q 118 1007 71 1007 q 218 999 165 1007 l 556 0 q 458 -8 506 -8 q 360 0 410 -8 l 21 999 z "},"]":{"ha":478,"x_min":69,"x_max":408,"o":"m 217 -75 l 217 919 l 78 919 q 69 1000 69 961 q 72 1039 69 1021 q 78 1078 74 1057 l 408 1078 l 408 -233 l 78 -233 q 72 -194 74 -212 q 69 -156 69 -176 q 78 -75 69 -117 l 217 -75 z "},"^":{"ha":763,"x_min":69,"x_max":693,"o":"m 289 999 q 382 1007 335 1007 q 476 999 426 1007 l 693 504 q 642 496 665 497 q 600 494 618 494 q 554 496 576 494 q 513 503 532 497 l 376 819 l 250 503 q 206 497 229 499 q 163 494 183 494 q 122 496 144 494 q 69 504 100 497 l 289 999 z "},"_":{"ha":700,"x_min":3,"x_max":697,"o":"m 690 -3 q 696 -39 694 -22 q 697 -74 697 -56 q 696 -104 697 -89 q 690 -139 694 -119 l 10 -139 q 4 -103 6 -119 q 3 -68 3 -86 q 4 -37 3 -53 q 10 -3 6 -22 l 690 -3 z "},"`":{"ha":694,"x_min":150,"x_max":546,"o":"m 150 999 q 203 1005 178 1003 q 265 1007 229 1007 q 390 999 333 1007 l 546 828 q 456 819 500 819 q 403 822 428 819 q 360 828 378 825 l 150 999 z "},"a":{"ha":725,"x_min":53,"x_max":647,"o":"m 456 329 q 419 334 439 332 q 385 336 400 336 q 277 312 317 336 q 238 233 238 288 q 253 178 238 197 q 290 149 268 158 q 335 138 311 140 q 378 136 360 136 q 419 140 399 136 q 456 146 440 143 l 456 329 m 456 472 q 444 526 456 506 q 414 559 433 547 q 366 575 394 571 q 303 579 338 579 q 143 550 228 579 q 114 618 124 586 q 104 694 104 650 q 226 725 165 715 q 340 735 288 735 q 566 665 485 735 q 647 443 647 596 l 647 26 q 529 -3 599 11 q 372 -17 460 -17 q 242 -4 301 -17 q 141 38 183 8 q 76 113 99 67 q 53 225 53 158 q 81 337 53 292 q 155 409 110 382 q 256 448 200 436 q 367 460 311 460 q 456 456 407 460 l 456 472 z "},"b":{"ha":819,"x_min":94,"x_max":763,"o":"m 94 1015 q 192 1024 144 1024 q 290 1015 240 1024 l 290 649 q 360 710 311 686 q 471 735 408 735 q 587 713 533 735 q 679 645 640 690 q 740 532 718 600 q 763 371 763 464 q 735 209 763 281 q 654 88 707 138 q 525 10 601 38 q 353 -17 449 -17 q 288 -14 322 -17 q 219 -6 254 -11 q 153 6 185 -1 q 94 24 121 14 l 94 1015 m 290 156 q 326 149 307 150 q 364 147 344 147 q 506 200 454 147 q 557 365 557 253 q 525 517 557 465 q 417 569 493 569 q 326 533 361 569 q 290 417 290 496 l 290 156 z "},"c":{"ha":660,"x_min":57,"x_max":618,"o":"m 579 169 q 607 105 596 142 q 618 18 618 68 q 514 -10 563 -4 q 413 -17 465 -17 q 256 12 322 -17 q 145 90 189 40 q 79 209 101 140 q 57 358 57 278 q 78 506 57 438 q 144 625 100 574 q 253 706 188 676 q 404 735 318 735 q 460 733 435 735 q 510 728 486 732 q 557 717 533 724 q 610 699 581 710 q 601 627 610 667 q 575 551 593 588 q 502 570 533 565 q 431 575 471 575 q 301 519 344 575 q 257 358 257 463 q 304 194 257 246 q 432 143 351 143 q 470 144 453 143 q 504 147 488 144 q 538 156 521 150 q 579 169 556 161 z "},"d":{"ha":817,"x_min":57,"x_max":724,"o":"m 528 1015 q 577 1021 553 1019 q 625 1022 601 1022 q 674 1021 649 1022 q 724 1015 699 1019 l 724 24 q 591 -6 658 4 q 428 -17 524 -17 q 287 3 354 -17 q 168 67 219 24 q 87 181 117 111 q 57 350 57 250 q 83 499 57 429 q 156 621 108 569 q 272 702 204 672 q 424 732 340 732 q 476 730 449 732 q 528 721 503 728 l 528 1015 m 528 569 q 483 578 500 576 q 439 581 465 581 q 359 562 393 581 q 303 512 325 543 q 270 438 281 481 q 260 350 260 396 q 274 253 260 293 q 312 190 288 214 q 369 156 336 167 q 442 146 403 146 q 485 148 465 146 q 528 157 504 150 l 528 569 z "},"e":{"ha":781,"x_min":60,"x_max":722,"o":"m 254 299 q 313 178 260 215 q 451 140 365 140 q 548 149 499 140 q 642 175 597 158 q 668 108 657 147 q 681 25 679 69 q 436 -17 572 -17 q 265 11 336 -17 q 148 88 193 39 q 81 206 103 138 q 60 354 60 274 q 82 503 60 433 q 148 624 104 572 q 256 705 192 675 q 407 735 321 735 q 540 708 482 735 q 640 636 599 682 q 701 527 681 590 q 722 392 722 464 q 720 340 722 365 q 715 299 718 314 l 254 299 m 536 436 q 499 544 533 503 q 404 585 465 585 q 299 546 335 585 q 256 436 263 507 l 536 436 z "},"f":{"ha":550,"x_min":24,"x_max":558,"o":"m 144 568 l 31 568 q 25 608 26 590 q 24 646 24 626 q 25 681 24 664 q 31 718 26 697 l 144 718 l 144 753 q 165 872 144 819 q 222 959 185 924 q 312 1013 260 994 q 426 1032 364 1032 q 497 1028 468 1032 q 558 1015 525 1025 q 549 933 556 969 q 529 860 543 896 q 497 866 514 863 q 453 869 481 869 q 374 847 404 869 q 340 749 343 824 l 340 718 l 507 718 q 513 678 511 696 q 514 640 514 660 q 513 606 514 622 q 507 568 511 589 l 340 568 l 340 0 q 243 -8 290 -8 q 144 0 194 -8 l 144 568 z "},"g":{"ha":786,"x_min":46,"x_max":781,"o":"m 500 119 q 686 63 626 117 q 746 -89 746 10 q 715 -195 746 -147 q 632 -276 685 -243 q 507 -328 579 -310 q 351 -346 435 -346 q 210 -333 268 -346 q 115 -296 151 -319 q 62 -237 78 -272 q 46 -161 46 -203 q 76 -58 46 -99 q 156 13 106 -18 q 105 60 124 32 q 86 133 86 89 q 108 219 86 186 q 174 283 131 253 q 99 368 125 318 q 72 479 72 418 q 93 580 72 533 q 153 660 114 626 q 250 714 193 694 q 378 733 307 733 q 506 712 447 733 q 603 657 564 690 q 668 709 629 692 q 774 726 707 726 q 778 691 776 708 q 781 654 781 674 q 779 610 781 632 q 774 564 778 588 l 661 564 q 674 531 668 550 q 679 479 679 511 q 659 378 679 425 q 600 299 639 332 q 505 246 561 265 q 378 226 449 226 q 271 239 318 226 q 242 206 247 224 q 236 174 236 189 q 251 138 236 151 q 310 122 265 124 l 500 119 m 322 -25 q 272 -32 292 -24 q 240 -53 251 -40 q 223 -83 228 -67 q 218 -114 218 -99 q 258 -185 218 -167 q 364 -204 297 -204 q 505 -176 451 -204 q 558 -101 558 -149 q 555 -75 558 -87 q 542 -52 551 -62 q 515 -35 532 -42 q 468 -28 497 -28 l 322 -25 m 379 354 q 463 388 438 354 q 489 479 489 421 q 463 572 489 538 q 379 606 438 606 q 293 572 319 606 q 267 479 267 538 q 293 388 267 421 q 379 354 319 354 z "},"h":{"ha":814,"x_min":94,"x_max":732,"o":"m 94 1015 q 143 1021 118 1019 q 192 1022 168 1022 q 240 1021 215 1022 q 290 1015 265 1019 l 290 633 q 316 663 300 646 q 356 697 332 681 q 413 724 379 713 q 489 735 446 735 q 670 668 608 735 q 732 458 732 601 l 732 -1 q 682 -7 707 -6 q 633 -8 657 -8 q 585 -7 610 -8 q 535 -1 560 -6 l 535 406 q 511 521 535 481 q 431 561 488 561 q 382 554 407 561 q 337 527 357 547 q 303 471 317 507 q 290 376 290 435 l 290 -1 q 240 -7 265 -6 q 192 -8 215 -8 q 144 -7 168 -8 q 94 -1 119 -6 l 94 1015 z "},"i":{"ha":426,"x_min":35,"x_max":329,"o":"m 136 568 l 43 568 q 37 606 39 586 q 35 644 35 626 q 43 718 35 682 l 329 718 l 329 0 q 232 -8 279 -8 q 136 0 186 -8 l 136 568 m 107 839 q 99 932 99 886 q 107 1025 99 976 q 158 1031 131 1029 q 207 1033 185 1033 q 258 1031 231 1033 q 310 1025 286 1029 q 315 978 314 1001 q 317 932 317 956 q 315 886 317 910 q 310 839 314 863 q 259 833 286 835 q 208 832 232 832 q 158 833 186 832 q 107 839 131 835 z "},"j":{"ha":426,"x_min":-68,"x_max":329,"o":"m 138 568 l 43 568 q 37 606 39 586 q 35 644 35 626 q 43 718 35 682 l 329 718 l 329 -15 q 263 -208 329 -149 q 69 -267 196 -267 q -1 -262 35 -267 q -68 -251 -37 -258 q -62 -176 -68 -211 q -43 -108 -57 -140 q -10 -114 -29 -111 q 29 -117 10 -117 q 72 -111 51 -117 q 106 -91 92 -106 q 129 -50 121 -76 q 138 19 138 -24 l 138 568 m 107 843 q 100 892 101 872 q 99 932 99 911 q 100 974 99 954 q 107 1021 101 993 q 160 1031 133 1028 q 208 1033 188 1033 q 256 1031 228 1033 q 308 1021 283 1028 q 315 974 314 993 q 317 932 317 954 q 315 892 317 911 q 308 843 314 872 q 256 834 283 836 q 208 832 228 832 q 160 834 188 832 q 107 843 133 836 z "},"k":{"ha":743,"x_min":85,"x_max":729,"o":"m 85 1015 q 182 1024 132 1024 q 281 1015 232 1024 l 281 0 q 182 -8 232 -8 q 85 0 132 -8 l 85 1015 m 308 376 l 486 718 q 596 726 540 726 q 699 718 649 726 l 515 386 l 729 0 q 619 -8 672 -8 q 517 0 571 -8 l 308 376 z "},"l":{"ha":450,"x_min":92,"x_max":442,"o":"m 92 1015 q 190 1024 142 1024 q 288 1015 238 1024 l 288 286 q 292 217 288 243 q 308 176 297 190 q 335 156 318 161 q 376 150 351 150 q 401 151 388 150 q 426 156 414 153 q 442 44 442 99 q 442 24 442 33 q 439 4 442 15 q 385 -6 417 -3 q 328 -8 354 -8 q 156 51 221 -8 q 92 243 92 110 l 92 1015 z "},"m":{"ha":1221,"x_min":97,"x_max":1139,"o":"m 97 718 q 136 724 117 722 q 179 726 156 726 q 221 724 203 726 q 258 718 239 722 q 266 698 263 711 q 272 670 269 685 q 277 642 275 656 q 281 618 279 628 q 310 660 292 639 q 353 697 328 681 q 409 724 378 714 q 479 735 440 735 q 694 607 647 735 q 773 697 722 658 q 901 735 824 735 q 1081 667 1024 735 q 1139 457 1139 600 l 1139 0 q 1040 -8 1089 -8 q 942 0 992 -8 l 942 406 q 923 521 942 481 q 847 561 904 561 q 801 554 824 561 q 759 528 778 547 q 728 476 740 510 q 717 388 717 442 l 717 0 q 618 -8 667 -8 q 519 0 569 -8 l 519 406 q 501 521 519 481 q 425 561 482 561 q 378 554 401 561 q 335 527 354 547 q 306 471 317 507 q 294 376 294 435 l 294 0 q 196 -8 244 -8 q 97 0 147 -8 l 97 718 z "},"n":{"ha":815,"x_min":97,"x_max":733,"o":"m 97 718 q 136 724 117 722 q 179 726 156 726 q 221 724 203 726 q 258 718 239 722 q 266 698 263 711 q 272 670 269 685 q 277 642 275 656 q 281 618 279 628 q 314 660 294 639 q 359 697 333 681 q 417 724 385 714 q 488 735 449 735 q 672 668 610 735 q 733 458 733 601 l 733 0 q 635 -8 683 -8 q 536 0 586 -8 l 536 406 q 513 521 536 481 q 433 561 490 561 q 385 554 410 561 q 340 527 360 547 q 307 471 319 507 q 294 376 294 435 l 294 0 q 196 -8 244 -8 q 97 0 147 -8 l 97 718 z "},"o":{"ha":806,"x_min":57,"x_max":747,"o":"m 401 -17 q 249 12 314 -17 q 142 91 185 40 q 78 210 100 142 q 57 357 57 278 q 78 506 57 436 q 142 626 100 575 q 249 706 185 676 q 401 735 314 735 q 554 706 489 735 q 663 626 619 676 q 726 506 706 575 q 747 357 747 436 q 726 210 747 278 q 663 91 706 142 q 554 12 619 40 q 401 -17 489 -17 m 401 133 q 513 191 479 133 q 547 357 547 249 q 513 523 547 465 q 401 581 479 581 q 291 523 325 581 q 257 357 257 465 q 291 191 257 249 q 401 133 325 133 z "},"p":{"ha":821,"x_min":93,"x_max":764,"o":"m 93 719 q 131 725 113 724 q 174 726 150 726 q 253 718 213 726 q 260 698 257 711 q 267 669 264 685 q 273 640 271 654 q 276 615 275 625 q 307 659 289 638 q 351 697 325 681 q 408 724 376 714 q 479 735 440 735 q 591 713 539 735 q 682 645 643 690 q 742 532 721 600 q 764 371 764 464 q 738 209 764 281 q 661 88 711 138 q 539 10 611 38 q 375 -17 467 -17 q 328 -15 351 -17 q 290 -10 306 -12 l 290 -329 q 240 -335 264 -333 q 192 -336 215 -336 q 144 -335 168 -336 q 93 -329 119 -333 l 93 719 m 290 153 q 376 142 328 142 q 508 197 463 142 q 554 365 554 253 q 547 445 554 408 q 524 508 540 482 q 481 550 507 535 q 418 565 456 565 q 359 552 383 565 q 319 516 335 539 q 297 463 304 493 q 290 397 290 432 l 290 153 z "},"q":{"ha":815,"x_min":57,"x_max":722,"o":"m 525 -6 q 476 -11 501 -8 q 419 -14 451 -14 q 283 5 349 -14 q 167 66 218 24 q 87 176 117 108 q 57 344 57 244 q 84 495 57 424 q 163 619 111 567 q 289 703 214 672 q 460 735 364 735 q 599 726 538 735 q 722 703 661 717 l 722 -329 q 673 -335 697 -333 q 625 -336 649 -336 q 576 -335 601 -336 q 526 -329 551 -333 l 525 -6 m 525 565 q 482 572 493 571 q 453 574 471 574 q 310 510 358 574 q 263 344 263 446 q 276 249 263 288 q 312 188 289 211 q 367 156 335 165 q 439 146 400 146 q 482 148 463 146 q 525 157 501 150 l 525 565 z "},"r":{"ha":558,"x_min":97,"x_max":531,"o":"m 97 718 q 137 724 118 722 q 178 726 156 726 q 219 724 199 726 q 258 717 239 721 q 266 697 263 710 q 272 669 269 683 q 277 640 275 654 q 281 615 279 625 q 356 692 311 658 q 467 726 400 726 q 499 725 481 726 q 525 721 517 724 q 529 689 528 707 q 531 651 531 671 q 528 600 531 628 q 521 547 526 572 q 487 550 506 550 q 464 550 468 550 q 411 545 440 550 q 356 519 382 540 q 312 457 329 499 q 294 340 294 415 l 294 -1 q 244 -7 269 -6 q 196 -8 219 -8 q 148 -7 172 -8 q 97 -1 124 -6 l 97 718 z "},"s":{"ha":639,"x_min":56,"x_max":590,"o":"m 236 313 q 115 378 158 335 q 71 510 71 422 q 147 675 71 615 q 353 735 222 735 q 460 725 407 735 q 567 696 513 715 q 553 621 564 660 q 526 553 542 582 q 453 577 493 567 q 368 588 413 588 q 294 573 321 588 q 268 526 268 558 q 287 483 268 496 q 340 460 306 471 l 419 436 q 490 409 458 425 q 543 369 521 393 q 578 311 565 346 q 590 226 590 276 q 569 131 590 175 q 506 53 547 86 q 407 2 465 21 q 275 -17 349 -17 q 214 -15 242 -17 q 160 -8 186 -12 q 110 4 135 -3 q 56 22 85 11 q 69 98 58 60 q 96 172 79 136 q 183 145 142 154 q 268 136 224 136 q 310 140 288 136 q 353 152 333 143 q 385 176 372 161 q 399 214 399 190 q 378 262 399 247 q 322 288 358 276 l 236 313 z "},"t":{"ha":532,"x_min":19,"x_max":511,"o":"m 117 568 l 26 568 l 19 596 l 279 928 l 311 928 l 311 718 l 479 718 q 485 681 483 697 q 486 646 486 664 q 485 608 486 626 q 479 568 483 590 l 311 568 l 311 286 q 318 217 311 243 q 338 175 325 190 q 371 154 351 160 q 417 149 390 149 q 458 152 438 149 q 493 158 478 156 q 507 103 503 132 q 511 53 511 75 q 510 27 511 38 q 508 7 510 17 q 376 -8 444 -8 q 183 51 250 -8 q 117 243 117 110 l 117 568 z "},"u":{"ha":794,"x_min":85,"x_max":713,"o":"m 85 718 q 183 726 135 726 q 282 718 232 726 l 282 338 q 291 244 282 281 q 319 185 300 207 q 365 155 338 164 q 431 146 393 146 q 517 156 482 146 l 517 718 q 614 726 567 726 q 713 718 663 726 l 713 28 q 595 -2 668 13 q 443 -17 522 -17 q 307 -6 372 -17 q 192 42 242 6 q 114 147 143 78 q 85 332 85 217 l 85 718 z "},"v":{"ha":756,"x_min":7,"x_max":749,"o":"m 7 717 q 69 725 40 724 q 118 726 97 726 q 174 725 146 726 q 225 718 201 724 l 382 183 l 536 718 q 586 724 560 722 q 639 726 613 726 q 687 725 660 726 q 749 717 714 724 l 476 0 q 421 -6 450 -4 q 372 -7 392 -7 q 325 -6 351 -7 q 275 1 299 -4 l 7 717 z "},"w":{"ha":1119,"x_min":10,"x_max":1110,"o":"m 10 717 q 70 725 42 724 q 118 726 99 726 q 172 725 146 726 q 222 718 199 724 l 338 188 l 471 718 q 565 726 514 726 q 625 724 601 725 q 667 718 649 722 l 797 197 l 911 718 q 956 724 935 722 q 1003 726 976 726 q 1049 725 1022 726 q 1110 717 1076 724 l 886 0 q 833 -6 861 -4 q 785 -7 804 -7 q 738 -6 764 -7 q 689 1 713 -4 l 558 476 l 424 0 q 369 -6 397 -4 q 321 -7 340 -7 q 276 -6 301 -7 q 226 1 250 -4 l 10 717 z "},"x":{"ha":742,"x_min":21,"x_max":721,"o":"m 185 371 l 47 718 q 149 726 93 726 q 256 718 201 726 l 365 367 l 222 0 q 124 -8 172 -8 q 21 0 75 -8 l 185 371 m 375 367 l 486 718 q 593 726 538 726 q 694 718 644 726 l 556 371 l 721 0 q 618 -8 667 -8 q 519 0 569 -8 l 375 367 z "},"y":{"ha":753,"x_min":14,"x_max":742,"o":"m 14 718 q 70 726 46 725 q 115 726 94 726 q 172 725 143 726 q 225 718 201 724 l 375 92 l 544 718 q 639 726 590 726 q 683 726 660 726 q 742 718 707 725 l 474 -169 q 434 -257 457 -222 q 382 -311 411 -292 q 317 -338 353 -331 q 239 -346 281 -346 q 169 -341 200 -346 q 107 -328 138 -336 q 106 -316 106 -321 q 106 -306 106 -311 q 113 -242 106 -272 q 132 -185 121 -212 q 165 -192 144 -189 q 207 -196 186 -196 q 240 -194 224 -196 q 273 -181 257 -192 q 303 -149 289 -171 q 328 -86 317 -126 l 351 0 q 317 -2 336 -1 q 279 -3 299 -3 q 250 -3 264 -3 q 225 0 236 -3 l 14 718 z "},"z":{"ha":685,"x_min":38,"x_max":658,"o":"m 38 17 l 361 567 l 86 567 q 81 607 82 588 q 79 646 79 626 q 81 681 79 664 q 86 718 82 699 l 651 718 l 658 701 l 329 151 l 635 151 q 640 111 639 131 q 642 72 642 92 q 640 37 642 54 q 635 0 639 19 l 49 0 l 38 17 z "},"{":{"ha":607,"x_min":69,"x_max":538,"o":"m 200 197 q 192 275 199 242 q 171 333 186 308 q 131 378 156 358 q 69 415 107 399 l 69 451 q 131 488 107 468 q 171 533 156 508 q 192 592 186 558 q 200 669 199 625 l 204 796 q 219 924 206 868 q 263 1017 232 979 q 348 1075 294 1056 q 483 1094 401 1094 q 506 1094 494 1094 q 529 1093 517 1094 q 538 1017 538 1053 q 529 940 538 979 l 506 940 q 442 930 465 940 q 408 898 419 919 q 394 842 397 876 q 390 761 390 808 q 384 622 390 678 q 364 528 378 565 q 328 469 350 492 q 274 433 306 447 q 328 397 306 418 q 364 338 350 375 q 384 245 378 301 q 390 104 390 189 q 394 23 390 57 q 408 -33 397 -11 q 442 -65 419 -54 q 506 -75 465 -75 l 529 -75 q 538 -151 538 -115 q 529 -228 538 -189 q 506 -229 517 -229 q 483 -229 494 -229 q 348 -210 401 -229 q 263 -152 294 -190 q 219 -58 232 -114 q 204 69 206 -3 l 200 197 z "},"|":{"ha":474,"x_min":142,"x_max":332,"o":"m 142 1078 q 236 1086 189 1086 q 332 1078 283 1086 l 332 -233 q 238 -242 283 -242 q 142 -233 189 -242 l 142 1078 z "},"}":{"ha":607,"x_min":69,"x_max":538,"o":"m 101 -75 q 164 -65 140 -75 q 199 -33 188 -54 q 213 23 210 -11 q 217 104 217 57 q 223 245 217 189 q 243 338 229 301 q 279 397 257 375 q 333 433 301 418 q 279 469 301 447 q 243 528 257 492 q 223 622 229 565 q 217 761 217 678 q 213 842 217 808 q 199 898 210 876 q 164 930 188 919 q 101 940 140 940 l 78 940 q 69 1017 69 979 q 78 1093 69 1053 q 101 1094 90 1094 q 124 1094 113 1094 q 259 1075 206 1094 q 344 1017 313 1056 q 388 924 375 979 q 403 796 400 868 l 407 669 q 415 592 408 625 q 436 533 421 558 q 476 488 451 508 q 538 451 500 468 l 538 415 q 476 378 500 399 q 436 333 451 358 q 415 275 421 308 q 407 197 408 242 l 403 69 q 388 -58 400 -3 q 344 -152 375 -114 q 259 -210 313 -190 q 124 -229 206 -229 q 101 -229 113 -229 q 78 -228 90 -229 q 69 -151 69 -189 q 78 -75 69 -115 l 101 -75 z "},"~":{"ha":661,"x_min":17,"x_max":646,"o":"m 17 588 q 93 645 44 621 q 207 669 142 669 q 269 660 239 669 q 328 641 299 651 q 389 622 358 631 q 453 614 419 614 q 509 623 483 614 q 571 664 535 632 q 617 603 599 636 q 646 538 635 571 q 569 481 618 504 q 454 458 519 458 q 391 467 422 458 q 329 485 360 475 q 269 505 299 496 q 208 514 239 514 q 151 506 175 514 q 90 465 126 497 q 45 524 65 493 q 17 588 25 554 z "}," ":{"ha":0,"x_min":0,"x_max":0,"o":""},"¡":{"ha":415,"x_min":97,"x_max":318,"o":"m 114 399 q 207 407 161 407 q 301 399 253 407 l 315 -281 q 208 -289 261 -289 q 100 -281 154 -289 l 114 399 m 106 514 q 97 615 97 565 q 106 718 97 665 q 207 726 157 726 q 310 718 257 726 q 318 617 318 665 q 310 514 318 565 q 208 506 257 506 q 106 514 157 506 z "},"¢":{"ha":833,"x_min":146,"x_max":707,"o":"m 439 -12 q 310 28 365 -3 q 218 109 254 60 q 164 222 182 158 q 146 358 146 285 q 165 494 146 431 q 219 608 183 558 q 310 690 256 657 q 439 731 365 722 l 439 882 q 499 890 468 890 q 560 882 528 890 l 560 732 q 626 722 594 729 q 699 699 658 714 q 690 620 699 656 q 664 551 681 585 q 591 570 622 565 q 519 575 560 575 q 390 519 433 575 q 346 358 346 463 q 393 194 346 246 q 521 143 440 143 q 559 144 542 143 q 593 147 576 144 q 627 156 610 150 q 668 169 644 161 q 696 105 685 142 q 707 18 707 68 q 631 -5 667 3 q 560 -15 596 -12 l 560 -164 q 500 -172 531 -172 q 439 -164 469 -172 l 439 -12 z "},"£":{"ha":833,"x_min":106,"x_max":774,"o":"m 119 19 l 138 35 q 187 96 167 60 q 219 171 207 132 q 238 247 232 210 q 244 308 244 283 q 242 353 244 331 q 238 400 240 376 l 113 400 q 107 440 108 422 q 106 478 106 458 q 107 513 106 496 q 113 550 108 529 l 214 550 q 205 622 208 586 q 201 693 201 657 q 222 805 201 750 q 283 903 242 860 q 388 972 325 946 q 539 999 451 999 q 668 988 615 999 q 768 957 721 976 q 756 883 765 925 q 724 796 746 840 q 649 822 685 811 q 557 833 613 833 q 485 819 514 833 q 438 782 456 804 q 413 732 421 760 q 406 678 406 704 q 409 608 406 638 q 418 550 413 579 l 635 550 q 640 510 639 528 q 642 472 642 492 q 640 438 642 454 q 635 400 639 421 l 442 400 q 444 376 443 389 q 446 353 446 364 q 439 265 446 306 q 408 175 432 224 l 767 175 q 772 130 771 151 q 774 89 774 108 q 772 45 774 67 q 767 0 771 24 l 125 0 l 119 19 z "},"¤":{"ha":833,"x_min":54,"x_max":781,"o":"m 151 324 q 111 475 111 392 q 154 629 111 560 l 54 731 q 100 795 72 769 q 165 842 128 821 l 268 739 q 419 778 338 778 q 569 739 500 778 l 671 842 q 732 794 703 821 q 781 732 761 768 l 682 635 q 729 475 729 561 q 717 392 729 432 q 685 319 706 353 l 781 225 q 733 164 760 193 q 671 115 706 135 l 574 214 q 419 174 504 174 q 263 214 332 174 l 165 115 q 101 162 126 133 q 54 226 75 190 l 151 324 m 419 328 q 476 340 450 328 q 520 372 501 351 q 550 418 539 392 q 561 475 561 444 q 550 533 561 506 q 520 581 539 561 q 476 613 501 601 q 419 625 450 625 q 365 613 390 625 q 320 581 339 601 q 290 533 301 561 q 279 475 279 506 q 290 418 279 444 q 320 372 301 392 q 365 340 339 351 q 419 328 390 328 z "},"¥":{"ha":833,"x_min":18,"x_max":817,"o":"m 317 217 l 86 217 q 82 242 83 226 q 81 275 81 257 q 82 308 81 292 q 86 335 83 324 l 317 335 l 317 432 l 86 432 q 82 457 83 442 q 81 490 81 472 q 82 523 81 507 q 86 550 83 539 l 251 550 l 18 982 q 135 990 76 990 q 240 982 188 990 l 424 594 l 604 982 q 710 990 656 990 q 817 982 760 990 l 583 550 l 772 550 q 776 494 776 531 q 776 460 776 476 q 772 432 775 443 l 518 432 l 518 335 l 772 335 q 776 279 776 315 q 776 244 776 261 q 772 217 775 228 l 518 217 l 518 -1 q 466 -7 490 -6 q 417 -8 442 -8 q 368 -7 393 -8 q 317 -1 343 -6 l 317 217 z "},"¦":{"ha":474,"x_min":142,"x_max":332,"o":"m 142 1078 q 236 1086 189 1086 q 332 1078 283 1086 l 332 613 q 238 604 283 604 q 142 613 189 604 l 142 1078 m 142 232 q 236 240 189 240 q 332 232 283 240 l 332 -233 q 238 -242 283 -242 q 142 -233 189 -242 l 142 232 z "},"§":{"ha":794,"x_min":89,"x_max":708,"o":"m 247 307 q 123 381 157 335 q 89 482 89 426 q 111 568 89 524 q 175 656 133 613 q 126 779 126 701 q 208 942 126 885 q 433 999 290 999 q 551 989 497 999 q 661 960 604 979 q 644 884 658 924 q 614 815 631 844 q 537 841 579 831 q 451 851 494 851 q 350 835 378 851 q 322 789 322 818 q 341 747 322 761 q 397 722 360 733 l 564 672 q 677 602 646 647 q 708 504 708 557 q 685 408 708 453 q 622 321 663 364 q 658 271 646 299 q 671 203 671 243 q 645 109 671 150 q 575 40 619 68 q 469 -2 531 13 q 336 -17 407 -17 q 99 22 207 -17 q 115 98 101 58 q 144 167 129 138 q 228 141 181 151 q 318 131 275 131 q 434 145 393 131 q 475 197 475 160 q 457 237 475 225 q 400 260 439 249 l 247 307 m 490 390 q 519 424 504 403 q 535 472 535 444 q 517 520 535 500 q 443 556 500 540 l 304 592 q 272 557 285 576 q 260 510 260 538 q 277 464 260 482 q 336 435 294 446 l 490 390 z "},"¨":{"ha":694,"x_min":97,"x_max":596,"o":"m 104 824 q 99 865 101 844 q 97 906 97 885 q 99 946 97 925 q 104 988 101 967 q 149 994 125 992 q 193 996 174 996 q 237 994 213 996 q 283 988 261 992 q 289 947 288 967 q 290 906 290 926 q 289 865 290 886 q 283 824 288 844 q 238 818 261 819 q 193 817 214 817 q 150 818 175 817 q 104 824 125 819 m 411 824 q 403 906 403 865 q 411 988 403 946 q 456 994 432 992 q 500 996 481 996 q 544 994 519 996 q 590 988 568 992 q 594 947 593 967 q 596 906 596 926 q 594 865 596 886 q 590 824 593 844 q 544 818 568 819 q 500 817 519 817 q 456 818 481 817 q 411 824 432 819 z "},"©":{"ha":1142,"x_min":56,"x_max":1086,"o":"m 714 365 q 735 310 728 343 q 743 240 743 276 q 667 220 703 225 q 592 215 632 215 q 476 238 526 215 q 393 299 426 261 q 342 390 360 338 q 325 500 325 442 q 342 609 325 557 q 393 701 360 661 q 475 764 426 740 q 586 788 524 788 q 665 782 633 788 q 736 761 696 776 q 731 699 736 733 q 711 636 725 664 q 656 651 678 647 q 606 654 633 654 q 511 615 544 654 q 478 500 478 575 q 513 383 478 421 q 606 346 549 346 q 658 349 638 346 q 714 365 679 351 m 571 85 q 740 117 665 85 q 867 204 815 149 q 947 335 919 260 q 975 499 975 411 q 947 662 975 586 q 867 793 919 738 q 740 881 815 849 q 571 913 665 913 q 401 881 476 913 q 274 793 326 849 q 194 662 222 738 q 167 499 167 586 q 194 335 167 411 q 274 204 222 260 q 401 117 326 149 q 571 85 476 85 m 571 -18 q 360 22 456 -18 q 198 130 265 61 q 93 293 131 199 q 56 499 56 388 q 93 703 56 608 q 198 867 131 799 q 360 976 265 936 q 571 1015 456 1015 q 781 976 686 1015 q 944 868 876 938 q 1049 704 1011 799 q 1086 499 1086 610 q 1049 293 1086 388 q 944 130 1011 199 q 781 22 876 61 q 571 -18 686 -18 z "},"ª":{"ha":694,"x_min":86,"x_max":554,"o":"m 399 688 q 373 690 388 689 q 346 690 358 690 q 265 673 294 690 q 235 615 235 656 q 247 577 235 590 q 275 558 258 564 q 310 550 292 551 q 340 549 328 549 q 373 550 358 549 q 399 554 388 551 l 399 688 m 399 796 q 369 858 399 844 q 282 872 339 872 q 222 867 254 872 q 158 851 190 863 q 132 906 140 879 q 124 967 124 932 q 222 990 172 982 q 313 999 272 999 q 490 945 426 999 q 554 774 554 892 l 554 458 q 460 435 518 447 q 338 424 401 424 q 234 434 281 424 q 155 467 188 444 q 104 524 122 489 q 86 610 86 560 q 108 697 86 661 q 166 753 131 732 q 246 783 201 774 q 333 792 290 792 q 366 792 353 792 q 399 789 379 792 l 399 796 z "},"«":{"ha":889,"x_min":56,"x_max":846,"o":"m 56 369 l 272 678 q 365 686 315 686 q 475 678 421 686 l 261 369 l 475 61 q 365 53 421 53 q 272 61 315 53 l 56 369 m 426 369 l 643 678 q 736 686 686 686 q 846 678 792 686 l 632 369 l 846 61 q 736 53 792 53 q 643 61 686 53 l 426 369 z "},"¬":{"ha":833,"x_min":121,"x_max":722,"o":"m 722 576 l 722 176 q 638 168 681 168 q 551 176 593 168 l 551 406 l 129 406 q 121 490 121 447 q 129 576 121 535 l 722 576 z "},"­":{"ha":515,"x_min":72,"x_max":443,"o":"m 435 467 q 443 382 443 425 q 435 296 443 338 l 81 296 q 72 381 72 338 q 81 467 72 425 l 435 467 z "},"®":{"ha":1142,"x_min":56,"x_max":1086,"o":"m 385 775 q 460 785 424 782 q 540 789 496 789 q 729 742 672 789 q 786 619 786 696 q 767 535 786 572 q 725 479 749 499 l 704 463 l 826 246 q 785 242 807 243 q 740 240 764 240 q 703 242 721 240 q 669 246 686 243 l 544 489 l 567 503 q 619 545 599 522 q 640 601 640 568 q 621 653 640 633 q 560 674 601 674 q 542 673 550 674 q 521 669 535 672 l 521 244 q 456 239 493 239 q 421 240 439 239 q 385 244 403 242 l 385 775 m 571 85 q 740 117 665 85 q 867 204 815 149 q 947 335 919 260 q 975 499 975 411 q 947 662 975 586 q 867 793 919 738 q 740 881 815 849 q 571 913 665 913 q 401 881 476 913 q 274 793 326 849 q 194 662 222 738 q 167 499 167 586 q 194 335 167 411 q 274 204 222 260 q 401 117 326 149 q 571 85 476 85 m 571 -18 q 360 22 456 -18 q 198 130 265 61 q 93 293 131 199 q 56 499 56 388 q 93 703 56 608 q 198 867 131 799 q 360 976 265 936 q 571 1015 456 1015 q 781 976 686 1015 q 944 868 876 938 q 1049 704 1011 799 q 1086 499 1086 610 q 1049 293 1086 388 q 944 130 1011 199 q 781 22 876 61 q 571 -18 686 -18 z "},"¯":{"ha":694,"x_min":156,"x_max":540,"o":"m 532 982 q 540 913 540 946 q 532 842 540 876 l 164 842 q 156 911 156 876 q 164 982 156 946 l 532 982 z "},"°":{"ha":524,"x_min":53,"x_max":472,"o":"m 53 799 q 69 881 53 842 q 114 947 86 919 q 180 992 142 975 q 261 1008 218 1008 q 343 992 304 1008 q 410 947 382 975 q 456 881 439 919 q 472 799 472 842 q 456 718 472 756 q 410 652 439 681 q 343 608 382 624 q 261 592 304 592 q 180 608 218 592 q 114 652 142 624 q 69 718 86 681 q 53 799 53 756 m 261 708 q 324 733 297 708 q 350 799 350 758 q 324 865 350 839 q 261 892 297 892 q 200 865 225 892 q 175 799 175 839 q 200 733 175 758 q 261 708 225 708 z "},"±":{"ha":833,"x_min":106,"x_max":726,"o":"m 332 168 l 332 407 l 114 407 q 106 490 106 449 q 114 575 106 533 l 332 575 l 332 821 q 415 829 374 829 q 500 821 458 829 l 500 575 l 718 575 q 726 492 726 533 q 718 407 726 449 l 500 407 l 500 168 l 708 168 q 717 85 717 126 q 708 0 717 42 l 124 0 q 115 83 115 42 q 124 168 115 126 l 332 168 z "},"²":{"ha":625,"x_min":74,"x_max":539,"o":"m 74 450 l 258 653 q 342 800 342 744 q 319 844 342 826 q 257 861 297 861 q 194 855 221 861 q 132 832 168 849 q 109 893 119 861 q 94 961 99 925 q 181 989 140 979 q 276 999 222 999 q 442 951 379 999 q 506 815 506 903 q 472 697 506 749 q 381 579 438 644 l 358 556 l 533 556 q 539 492 539 529 q 533 424 539 451 l 85 424 l 74 450 z "},"³":{"ha":625,"x_min":96,"x_max":539,"o":"m 200 692 l 306 857 l 133 857 q 128 889 131 874 q 126 919 126 904 q 133 982 126 950 l 514 982 l 529 953 l 400 767 q 456 748 431 763 q 501 713 482 733 q 529 665 519 692 q 539 611 539 639 q 519 524 539 561 q 463 460 499 486 q 378 422 426 435 q 272 408 329 408 q 225 410 246 408 q 184 414 204 411 q 143 422 164 417 q 96 435 122 426 q 108 501 97 468 q 135 556 119 535 q 205 537 172 544 q 269 529 238 529 q 349 549 315 529 q 383 610 383 568 q 354 656 383 642 q 289 671 325 671 q 263 670 278 671 q 226 663 247 669 l 200 692 z "},"´":{"ha":694,"x_min":150,"x_max":546,"o":"m 306 999 q 431 1007 361 1007 q 492 1005 467 1007 q 546 999 518 1003 l 336 828 q 293 822 318 825 q 240 819 268 819 q 150 828 196 819 l 306 999 z "},"µ":{"ha":828,"x_min":96,"x_max":746,"o":"m 96 718 q 193 726 146 726 q 292 718 242 726 l 292 344 q 326 190 292 233 q 426 146 361 146 q 487 158 463 146 q 525 190 511 169 q 544 240 539 211 q 550 301 550 268 l 550 718 q 647 726 600 726 q 746 718 696 726 l 746 -1 q 716 -6 731 -4 q 679 -8 701 -8 q 641 -6 658 -8 q 604 0 624 -4 q 597 14 601 4 q 588 35 592 24 q 579 59 583 47 q 574 78 575 71 q 491 6 533 29 q 385 -17 449 -17 q 334 -11 358 -17 q 289 4 310 -6 l 289 -329 q 239 -335 263 -333 q 192 -336 215 -336 q 145 -335 168 -336 q 96 -329 122 -333 l 96 718 z "},"¶":{"ha":832,"x_min":69,"x_max":739,"o":"m 399 435 l 383 435 q 267 449 324 435 q 167 496 211 464 q 97 579 124 528 q 69 706 69 631 q 99 845 69 788 q 188 939 129 903 q 331 991 246 975 q 524 1007 415 1007 l 524 -8 q 446 -6 478 -8 q 399 0 414 -4 l 399 435 m 614 1007 q 691 1005 658 1007 q 739 999 724 1003 l 739 0 q 691 -6 724 -4 q 614 -8 658 -8 l 614 1007 z "},"·":{"ha":401,"x_min":94,"x_max":307,"o":"m 103 283 q 94 381 94 333 q 103 479 94 429 q 200 488 153 488 q 299 479 249 488 q 307 382 307 429 q 299 283 307 333 q 201 275 249 275 q 103 283 153 275 z "},"¸":{"ha":694,"x_min":188,"x_max":514,"o":"m 279 33 l 378 33 l 336 -74 q 345 -72 340 -72 q 358 -71 350 -71 q 473 -105 432 -71 q 514 -192 514 -139 q 454 -299 514 -262 q 299 -335 394 -335 q 250 -333 279 -335 q 188 -322 221 -332 q 194 -273 190 -300 q 213 -225 199 -246 q 257 -235 238 -232 q 299 -237 276 -237 q 361 -228 338 -237 q 385 -194 385 -218 q 363 -162 385 -171 q 304 -153 340 -153 q 262 -156 285 -153 q 219 -165 239 -158 l 210 -156 l 279 33 z "},"¹":{"ha":625,"x_min":94,"x_max":536,"o":"m 260 554 l 260 801 l 154 763 q 119 814 132 786 q 94 881 106 842 l 376 989 l 411 989 l 411 554 l 529 554 q 535 521 533 536 q 536 490 536 506 q 535 457 536 471 q 529 424 533 443 l 143 424 q 134 456 136 442 q 132 490 132 471 q 134 522 132 507 q 143 554 136 538 l 260 554 z "},"º":{"ha":694,"x_min":86,"x_max":607,"o":"m 346 536 q 423 583 399 536 q 447 704 447 629 q 423 827 447 782 q 346 872 399 872 q 270 827 294 872 q 246 704 246 782 q 270 583 246 629 q 346 536 294 536 m 346 411 q 231 436 279 411 q 149 502 182 461 q 101 596 117 543 q 86 704 86 649 q 101 813 86 760 q 149 908 117 867 q 231 974 182 949 q 346 999 279 999 q 462 974 413 999 q 544 908 511 949 q 592 813 576 867 q 607 704 607 760 q 592 596 607 649 q 544 502 576 543 q 462 436 511 461 q 346 411 413 411 z "},"»":{"ha":888,"x_min":43,"x_max":832,"o":"m 257 369 l 43 678 q 153 686 97 686 q 246 678 201 686 l 463 369 l 246 61 q 153 53 201 53 q 43 61 97 53 l 257 369 m 626 369 l 413 678 q 522 686 467 686 q 615 678 571 686 l 832 369 l 615 61 q 522 53 571 53 q 413 61 467 53 l 626 369 z "},"¿":{"ha":685,"x_min":79,"x_max":663,"o":"m 299 404 q 392 413 346 413 q 479 404 438 413 l 479 165 q 413 149 447 160 q 349 121 378 139 q 301 75 319 103 q 282 8 282 47 q 325 -83 282 -51 q 439 -114 368 -114 q 491 -112 468 -114 q 533 -105 514 -110 q 572 -94 553 -100 q 615 -79 592 -87 q 647 -154 635 -115 q 663 -235 660 -193 q 596 -256 626 -247 q 536 -271 565 -265 q 478 -278 507 -276 q 415 -281 449 -281 q 164 -205 249 -281 q 79 3 79 -129 q 104 115 79 68 q 165 195 129 163 q 238 247 200 228 q 299 278 275 267 l 299 404 m 289 514 q 281 615 281 565 q 289 718 281 665 q 390 726 340 726 q 493 718 440 726 q 501 617 501 665 q 493 514 501 565 q 392 506 440 506 q 289 514 340 506 z "},"À":{"ha":883,"x_min":14,"x_max":868,"o":"m 329 999 q 385 1005 358 1003 q 443 1007 411 1007 q 497 1005 471 1007 q 556 999 524 1003 l 868 0 q 757 -8 811 -8 q 654 0 704 -8 l 599 200 l 268 200 l 211 0 q 115 -8 161 -8 q 14 0 64 -8 l 329 999 m 551 368 l 436 788 l 315 368 l 551 368 m 142 1229 q 199 1236 165 1233 q 268 1239 232 1239 q 342 1236 306 1239 q 410 1229 379 1233 l 546 1085 q 444 1076 496 1076 q 396 1078 421 1076 q 346 1085 371 1079 l 142 1229 z "},"Á":{"ha":883,"x_min":14,"x_max":868,"o":"m 329 999 q 385 1005 358 1003 q 443 1007 411 1007 q 497 1005 471 1007 q 556 999 524 1003 l 868 0 q 757 -8 811 -8 q 654 0 704 -8 l 599 200 l 268 200 l 211 0 q 115 -8 161 -8 q 14 0 64 -8 l 329 999 m 551 368 l 436 788 l 315 368 l 551 368 m 453 1229 q 520 1236 483 1233 q 594 1239 557 1239 q 664 1236 631 1239 q 721 1229 697 1233 l 517 1085 q 467 1078 492 1079 q 418 1076 442 1076 q 317 1085 367 1076 l 453 1229 z "},"Â":{"ha":883,"x_min":14,"x_max":868,"o":"m 329 999 q 385 1005 358 1003 q 443 1007 411 1007 q 497 1005 471 1007 q 556 999 524 1003 l 868 0 q 757 -8 811 -8 q 654 0 704 -8 l 599 200 l 268 200 l 211 0 q 115 -8 161 -8 q 14 0 64 -8 l 329 999 m 551 368 l 436 788 l 315 368 l 551 368 m 319 1229 q 371 1235 340 1232 q 440 1238 401 1238 q 508 1235 478 1238 q 561 1229 539 1232 l 708 1085 q 662 1078 689 1081 q 608 1076 635 1076 q 553 1078 585 1076 q 504 1085 521 1081 l 439 1154 l 376 1085 q 354 1081 368 1082 q 325 1078 340 1079 q 294 1077 310 1078 q 267 1076 279 1076 q 216 1078 240 1076 q 172 1085 192 1081 l 319 1229 z "},"Ã":{"ha":883,"x_min":14,"x_max":868,"o":"m 329 999 q 385 1005 358 1003 q 443 1007 411 1007 q 497 1005 471 1007 q 556 999 524 1003 l 868 0 q 757 -8 811 -8 q 654 0 704 -8 l 599 200 l 268 200 l 211 0 q 115 -8 161 -8 q 14 0 64 -8 l 329 999 m 551 368 l 436 788 l 315 368 l 551 368 m 176 1199 q 241 1253 200 1229 q 335 1276 282 1276 q 387 1267 361 1276 q 438 1248 413 1258 q 488 1228 463 1238 q 542 1219 514 1219 q 588 1228 567 1219 q 640 1267 610 1238 q 703 1161 686 1218 q 639 1108 679 1131 q 550 1086 599 1086 q 493 1095 521 1086 q 439 1115 465 1104 q 387 1134 413 1125 q 336 1143 361 1143 q 288 1133 308 1143 q 238 1096 268 1124 q 200 1145 217 1121 q 176 1199 183 1169 z "},"Ä":{"ha":883,"x_min":14,"x_max":868,"o":"m 329 999 q 385 1005 358 1003 q 443 1007 411 1007 q 497 1005 471 1007 q 556 999 524 1003 l 868 0 q 757 -8 811 -8 q 654 0 704 -8 l 599 200 l 268 200 l 211 0 q 115 -8 161 -8 q 14 0 64 -8 l 329 999 m 551 368 l 436 788 l 315 368 l 551 368 m 197 1096 q 192 1137 194 1117 q 190 1178 190 1157 q 192 1218 190 1197 q 197 1260 194 1239 q 242 1266 218 1264 q 286 1268 267 1268 q 330 1266 306 1268 q 376 1260 354 1264 q 382 1219 381 1239 q 383 1178 383 1199 q 382 1138 383 1158 q 376 1096 381 1117 q 331 1090 354 1092 q 286 1089 307 1089 q 243 1090 268 1089 q 197 1096 218 1092 m 504 1096 q 496 1178 496 1138 q 504 1260 496 1218 q 549 1266 525 1264 q 593 1268 574 1268 q 637 1266 613 1268 q 683 1260 661 1264 q 688 1219 686 1239 q 689 1178 689 1199 q 688 1138 689 1158 q 683 1096 686 1117 q 637 1090 661 1092 q 593 1089 613 1089 q 549 1090 574 1089 q 504 1096 525 1092 z "},"Å":{"ha":883,"x_min":14,"x_max":868,"o":"m 332 997 q 285 1052 303 1019 q 267 1129 267 1085 q 317 1254 267 1208 q 442 1300 367 1300 q 567 1254 517 1300 q 617 1129 617 1208 q 599 1053 617 1086 q 553 997 581 1019 l 868 0 q 757 -8 811 -8 q 654 0 704 -8 l 599 200 l 268 200 l 211 0 q 115 -8 161 -8 q 14 0 64 -8 l 332 997 m 551 368 l 436 804 l 315 368 l 551 368 m 442 1044 q 508 1129 508 1044 q 491 1193 508 1171 q 442 1215 474 1215 q 392 1193 410 1215 q 375 1129 375 1171 q 392 1067 375 1089 q 442 1044 410 1044 z "},"Æ":{"ha":1329,"x_min":14,"x_max":1274,"o":"m 576 999 l 1256 999 q 1264 914 1264 957 q 1256 826 1264 868 l 892 826 l 892 610 l 1181 610 q 1189 524 1189 565 q 1181 436 1189 479 l 892 436 l 892 172 l 1265 172 q 1274 88 1274 131 q 1265 0 1274 42 l 689 0 l 689 206 l 343 206 l 235 0 q 128 -8 185 -8 q 14 0 64 -8 l 576 999 m 689 374 l 689 843 l 681 843 l 432 374 l 689 374 z "},"Ç":{"ha":858,"x_min":72,"x_max":804,"o":"m 382 -150 l 436 -6 q 278 56 346 11 q 164 165 210 100 q 95 315 118 231 q 72 497 72 400 q 104 703 72 608 q 197 868 136 799 q 345 976 257 938 q 546 1015 433 1015 q 669 1007 613 1015 q 790 972 725 999 q 774 891 788 931 q 743 811 760 851 q 657 835 694 828 q 568 842 619 842 q 363 755 435 842 q 292 497 292 668 q 579 158 292 158 q 669 165 631 158 q 757 189 708 172 q 787 109 775 150 q 804 26 799 68 q 674 -8 732 0 q 550 -17 617 -17 q 542 -16 546 -17 q 533 -15 538 -15 l 513 -65 q 526 -63 519 -64 q 540 -62 532 -62 q 611 -73 582 -62 q 660 -101 640 -83 q 688 -142 679 -119 q 697 -192 697 -165 q 640 -299 697 -262 q 478 -336 583 -336 q 422 -333 454 -336 q 354 -321 390 -331 q 363 -269 357 -296 q 385 -219 368 -243 q 432 -231 410 -228 q 472 -235 454 -235 q 542 -224 522 -235 q 563 -192 563 -214 q 486 -154 563 -154 q 446 -157 467 -154 q 397 -169 425 -160 l 382 -150 z "},"È":{"ha":738,"x_min":97,"x_max":682,"o":"m 97 999 l 664 999 q 672 914 672 957 q 664 826 672 868 l 300 826 l 300 610 l 589 610 q 597 524 597 565 q 589 436 597 479 l 300 436 l 300 172 l 674 172 q 682 88 682 131 q 674 0 682 42 l 97 0 l 97 999 m 136 1229 q 193 1236 160 1233 q 263 1239 226 1239 q 337 1236 300 1239 q 404 1229 374 1233 l 540 1085 q 439 1076 490 1076 q 390 1078 415 1076 q 340 1085 365 1079 l 136 1229 z "},"É":{"ha":738,"x_min":97,"x_max":682,"o":"m 97 999 l 664 999 q 672 914 672 957 q 664 826 672 868 l 300 826 l 300 610 l 589 610 q 597 524 597 565 q 589 436 597 479 l 300 436 l 300 172 l 674 172 q 682 88 682 131 q 674 0 682 42 l 97 0 l 97 999 m 358 1229 q 426 1236 389 1233 q 500 1239 463 1239 q 569 1236 536 1239 q 626 1229 603 1233 l 422 1085 q 372 1078 397 1079 q 324 1076 347 1076 q 222 1085 272 1076 l 358 1229 z "},"Ê":{"ha":738,"x_min":97,"x_max":682,"o":"m 97 999 l 664 999 q 672 914 672 957 q 664 826 672 868 l 300 826 l 300 610 l 589 610 q 597 524 597 565 q 589 436 597 479 l 300 436 l 300 172 l 674 172 q 682 88 682 131 q 674 0 682 42 l 97 0 l 97 999 m 247 1229 q 299 1235 268 1232 q 368 1238 329 1238 q 436 1235 406 1238 q 489 1229 467 1232 l 636 1085 q 590 1078 617 1081 q 536 1076 563 1076 q 481 1078 513 1076 q 432 1085 449 1081 l 367 1154 l 304 1085 q 282 1081 296 1082 q 253 1078 268 1079 q 222 1077 238 1078 q 194 1076 207 1076 q 144 1078 168 1076 q 100 1085 119 1081 l 247 1229 z "},"Ë":{"ha":738,"x_min":97,"x_max":682,"o":"m 97 999 l 664 999 q 672 914 672 957 q 664 826 672 868 l 300 826 l 300 610 l 589 610 q 597 524 597 565 q 589 436 597 479 l 300 436 l 300 172 l 674 172 q 682 88 682 131 q 674 0 682 42 l 97 0 l 97 999 m 133 1096 q 128 1137 131 1117 q 126 1178 126 1157 q 128 1218 126 1197 q 133 1260 131 1239 q 178 1266 154 1264 q 222 1268 203 1268 q 266 1266 242 1268 q 313 1260 290 1264 q 318 1219 317 1239 q 319 1178 319 1199 q 318 1138 319 1158 q 313 1096 317 1117 q 267 1090 290 1092 q 222 1089 243 1089 q 179 1090 204 1089 q 133 1096 154 1092 m 440 1096 q 432 1178 432 1138 q 440 1260 432 1218 q 485 1266 461 1264 q 529 1268 510 1268 q 573 1266 549 1268 q 619 1260 597 1264 q 624 1219 622 1239 q 625 1178 625 1199 q 624 1138 625 1158 q 619 1096 622 1117 q 573 1090 597 1092 q 529 1089 549 1089 q 485 1090 510 1089 q 440 1096 461 1092 z "},"Ì":{"ha":399,"x_min":-71,"x_max":333,"o":"m 97 999 q 199 1007 149 1007 q 301 999 249 1007 l 301 0 q 200 -8 249 -8 q 97 0 149 -8 l 97 999 m -71 1229 q -14 1236 -47 1233 q 56 1239 19 1239 q 130 1236 93 1239 q 197 1229 167 1233 l 333 1085 q 232 1076 283 1076 q 183 1078 208 1076 q 133 1085 158 1079 l -71 1229 z "},"Í":{"ha":399,"x_min":86,"x_max":490,"o":"m 97 999 q 199 1007 149 1007 q 301 999 249 1007 l 301 0 q 200 -8 249 -8 q 97 0 149 -8 l 97 999 m 222 1229 q 290 1236 253 1233 q 364 1239 326 1239 q 433 1236 400 1239 q 490 1229 467 1233 l 286 1085 q 236 1078 261 1079 q 188 1076 211 1076 q 86 1085 136 1076 l 222 1229 z "},"Î":{"ha":399,"x_min":-68,"x_max":468,"o":"m 97 999 q 199 1007 149 1007 q 301 999 249 1007 l 301 0 q 200 -8 249 -8 q 97 0 149 -8 l 97 999 m 79 1229 q 131 1235 100 1232 q 200 1238 161 1238 q 268 1235 238 1238 q 321 1229 299 1232 l 468 1085 q 422 1078 449 1081 q 368 1076 394 1076 q 313 1078 344 1076 q 264 1085 281 1081 l 199 1154 l 136 1085 q 114 1081 128 1082 q 85 1078 100 1079 q 54 1077 69 1078 q 26 1076 39 1076 q -24 1078 0 1076 q -68 1085 -49 1081 l 79 1229 z "},"Ï":{"ha":399,"x_min":-50,"x_max":449,"o":"m 97 999 q 199 1007 149 1007 q 301 999 249 1007 l 301 0 q 200 -8 249 -8 q 97 0 149 -8 l 97 999 m -43 1096 q -48 1137 -46 1117 q -50 1178 -50 1157 q -48 1218 -50 1197 q -43 1260 -46 1239 q 2 1266 -22 1264 q 46 1268 26 1268 q 90 1266 65 1268 q 136 1260 114 1264 q 142 1219 140 1239 q 143 1178 143 1199 q 142 1138 143 1158 q 136 1096 140 1117 q 90 1090 114 1092 q 46 1089 67 1089 q 3 1090 28 1089 q -43 1096 -22 1092 m 264 1096 q 256 1178 256 1138 q 264 1260 256 1218 q 309 1266 285 1264 q 353 1268 333 1268 q 397 1266 372 1268 q 443 1260 421 1264 q 447 1219 446 1239 q 449 1178 449 1199 q 447 1138 449 1158 q 443 1096 446 1117 q 397 1090 421 1092 q 353 1089 372 1089 q 309 1090 333 1089 q 264 1096 285 1092 z "},"Ð":{"ha":974,"x_min":0,"x_max":903,"o":"m 103 453 l 8 453 q 0 522 0 488 q 8 593 0 557 l 103 593 l 103 999 q 225 1010 161 1006 q 367 1015 289 1015 q 766 885 629 1015 q 903 493 903 754 q 764 107 903 231 q 351 -17 625 -17 q 221 -12 281 -17 q 103 0 161 -7 l 103 453 m 307 161 q 339 158 319 160 q 386 157 358 157 q 505 172 450 157 q 600 225 560 186 q 664 329 640 264 q 688 497 688 394 q 664 664 688 597 q 600 769 640 731 q 508 824 560 808 q 397 840 456 840 q 352 840 378 840 q 307 836 326 839 l 307 593 l 500 593 q 508 524 508 557 q 500 453 508 488 l 307 453 l 307 161 z "},"Ñ":{"ha":929,"x_min":97,"x_max":831,"o":"m 97 999 q 179 1007 140 1007 q 265 999 221 1007 l 651 363 l 651 999 q 747 1007 701 1007 q 831 999 790 1007 l 831 0 q 750 -8 786 -8 q 665 0 711 -8 l 276 635 l 276 0 q 186 -8 232 -8 q 97 0 140 -8 l 97 999 m 214 1199 q 278 1253 238 1229 q 372 1276 319 1276 q 424 1267 399 1276 q 475 1248 450 1258 q 526 1228 500 1238 q 579 1219 551 1219 q 626 1228 604 1219 q 678 1267 647 1238 q 740 1161 724 1218 q 676 1108 717 1131 q 588 1086 636 1086 q 531 1095 558 1086 q 476 1115 503 1104 q 424 1134 450 1125 q 374 1143 399 1143 q 326 1133 346 1143 q 275 1096 306 1124 q 238 1145 254 1121 q 214 1199 221 1169 z "},"Ò":{"ha":1008,"x_min":71,"x_max":938,"o":"m 504 -17 q 310 22 392 -17 q 175 130 228 61 q 97 292 122 199 q 71 497 71 386 q 97 703 71 608 q 175 868 122 799 q 310 976 228 938 q 504 1015 392 1015 q 699 976 617 1015 q 833 868 781 938 q 912 703 886 799 q 938 497 938 608 q 912 292 938 386 q 833 130 886 199 q 699 22 781 61 q 504 -17 617 -17 m 504 153 q 719 497 719 153 q 667 756 719 669 q 506 842 615 842 q 288 497 288 842 q 504 153 288 153 m 203 1229 q 260 1236 226 1233 q 329 1239 293 1239 q 403 1236 367 1239 q 471 1229 440 1233 l 607 1085 q 506 1076 557 1076 q 457 1078 482 1076 q 407 1085 432 1079 l 203 1229 z "},"Ó":{"ha":1008,"x_min":71,"x_max":938,"o":"m 504 -17 q 310 22 392 -17 q 175 130 228 61 q 97 292 122 199 q 71 497 71 386 q 97 703 71 608 q 175 868 122 799 q 310 976 228 938 q 504 1015 392 1015 q 699 976 617 1015 q 833 868 781 938 q 912 703 886 799 q 938 497 938 608 q 912 292 938 386 q 833 130 886 199 q 699 22 781 61 q 504 -17 617 -17 m 504 153 q 719 497 719 153 q 667 756 719 669 q 506 842 615 842 q 288 497 288 842 q 504 153 288 153 m 531 1229 q 598 1236 561 1233 q 672 1239 635 1239 q 742 1236 708 1239 q 799 1229 775 1233 l 594 1085 q 544 1078 569 1079 q 496 1076 519 1076 q 394 1085 444 1076 l 531 1229 z "},"Ô":{"ha":1008,"x_min":71,"x_max":938,"o":"m 504 -17 q 310 22 392 -17 q 175 130 228 61 q 97 292 122 199 q 71 497 71 386 q 97 703 71 608 q 175 868 122 799 q 310 976 228 938 q 504 1015 392 1015 q 699 976 617 1015 q 833 868 781 938 q 912 703 886 799 q 938 497 938 608 q 912 292 938 386 q 833 130 886 199 q 699 22 781 61 q 504 -17 617 -17 m 504 153 q 719 497 719 153 q 667 756 719 669 q 506 842 615 842 q 288 497 288 842 q 504 153 288 153 m 382 1229 q 433 1235 403 1232 q 503 1238 464 1238 q 571 1235 540 1238 q 624 1229 601 1232 l 771 1085 q 724 1078 751 1081 q 671 1076 697 1076 q 615 1078 647 1076 q 567 1085 583 1081 l 501 1154 l 439 1085 q 417 1081 431 1082 q 388 1078 403 1079 q 357 1077 372 1078 q 329 1076 342 1076 q 278 1078 303 1076 q 235 1085 254 1081 l 382 1229 z "},"Õ":{"ha":1008,"x_min":71,"x_max":938,"o":"m 504 -17 q 310 22 392 -17 q 175 130 228 61 q 97 292 122 199 q 71 497 71 386 q 97 703 71 608 q 175 868 122 799 q 310 976 228 938 q 504 1015 392 1015 q 699 976 617 1015 q 833 868 781 938 q 912 703 886 799 q 938 497 938 608 q 912 292 938 386 q 833 130 886 199 q 699 22 781 61 q 504 -17 617 -17 m 504 153 q 719 497 719 153 q 667 756 719 669 q 506 842 615 842 q 288 497 288 842 q 504 153 288 153 m 257 1199 q 322 1253 281 1229 q 415 1276 363 1276 q 467 1267 442 1276 q 518 1248 493 1258 q 569 1228 543 1238 q 622 1219 594 1219 q 669 1228 647 1219 q 721 1267 690 1238 q 783 1161 767 1218 q 719 1108 760 1131 q 631 1086 679 1086 q 574 1095 601 1086 q 519 1115 546 1104 q 467 1134 493 1125 q 417 1143 442 1143 q 369 1133 389 1143 q 318 1096 349 1124 q 281 1145 297 1121 q 257 1199 264 1169 z "},"Ö":{"ha":1008,"x_min":71,"x_max":938,"o":"m 504 -17 q 310 22 392 -17 q 175 130 228 61 q 97 292 122 199 q 71 497 71 386 q 97 703 71 608 q 175 868 122 799 q 310 976 228 938 q 504 1015 392 1015 q 699 976 617 1015 q 833 868 781 938 q 912 703 886 799 q 938 497 938 608 q 912 292 938 386 q 833 130 886 199 q 699 22 781 61 q 504 -17 617 -17 m 504 153 q 719 497 719 153 q 667 756 719 669 q 506 842 615 842 q 288 497 288 842 q 504 153 288 153 m 261 1096 q 256 1137 258 1117 q 254 1178 254 1157 q 256 1218 254 1197 q 261 1260 258 1239 q 306 1266 282 1264 q 350 1268 331 1268 q 394 1266 369 1268 q 440 1260 418 1264 q 446 1219 444 1239 q 447 1178 447 1199 q 446 1138 447 1158 q 440 1096 444 1117 q 394 1090 418 1092 q 350 1089 371 1089 q 307 1090 332 1089 q 261 1096 282 1092 m 568 1096 q 560 1178 560 1138 q 568 1260 560 1218 q 613 1266 589 1264 q 657 1268 638 1268 q 701 1266 676 1268 q 747 1260 725 1264 q 751 1219 750 1239 q 753 1178 753 1199 q 751 1138 753 1158 q 747 1096 750 1117 q 701 1090 725 1092 q 657 1089 676 1089 q 613 1090 638 1089 q 568 1096 589 1092 z "},"×":{"ha":833,"x_min":143,"x_max":690,"o":"m 299 481 l 144 635 q 197 700 167 669 q 264 754 228 731 l 418 600 l 571 753 q 636 700 606 729 q 665 669 651 685 q 690 635 678 653 l 536 481 l 690 326 q 666 293 679 308 q 638 263 653 278 q 606 233 622 247 q 572 208 590 219 l 418 363 l 263 207 q 197 260 226 229 q 169 292 182 275 q 143 326 156 308 l 299 481 z "},"Ø":{"ha":1008,"x_min":71,"x_max":938,"o":"m 171 133 q 95 295 119 203 q 71 497 71 388 q 97 703 71 608 q 175 868 122 799 q 310 976 228 938 q 504 1015 392 1015 q 647 996 583 1015 q 758 940 710 976 l 800 997 q 857 1006 825 1006 q 924 999 893 1006 l 831 871 q 911 706 885 801 q 938 497 938 610 q 912 292 938 386 q 833 130 886 199 q 699 22 781 61 q 504 -17 617 -17 q 356 4 421 -17 q 240 64 290 25 l 196 1 q 167 -4 182 -3 q 136 -6 151 -6 q 102 -4 118 -6 q 74 0 86 -3 l 171 133 m 354 219 q 504 153 408 153 q 719 497 719 153 q 696 688 719 608 l 354 219 m 644 785 q 506 842 594 842 q 288 497 288 842 q 292 400 288 444 q 307 319 296 356 l 644 785 z "},"Ù":{"ha":932,"x_min":92,"x_max":842,"o":"m 92 999 q 143 1004 118 1003 q 194 1006 168 1006 q 243 1004 218 1006 q 294 999 268 1003 l 294 481 q 301 335 294 396 q 326 235 307 275 q 378 177 344 196 q 467 158 413 158 q 554 177 521 158 q 606 235 588 196 q 631 335 625 275 q 638 481 638 396 l 638 999 q 690 1004 665 1003 q 739 1006 715 1006 q 790 1004 764 1006 q 842 999 815 1003 l 842 438 q 825 252 842 336 q 765 108 808 168 q 650 16 722 49 q 467 -17 578 -17 q 283 16 356 -17 q 168 108 211 49 q 108 252 125 168 q 92 438 92 336 l 92 999 m 186 1229 q 243 1236 210 1233 q 313 1239 276 1239 q 387 1236 350 1239 q 454 1229 424 1233 l 590 1085 q 489 1076 540 1076 q 440 1078 465 1076 q 390 1085 415 1079 l 186 1229 z "},"Ú":{"ha":932,"x_min":92,"x_max":842,"o":"m 92 999 q 143 1004 118 1003 q 194 1006 168 1006 q 243 1004 218 1006 q 294 999 268 1003 l 294 481 q 301 335 294 396 q 326 235 307 275 q 378 177 344 196 q 467 158 413 158 q 554 177 521 158 q 606 235 588 196 q 631 335 625 275 q 638 481 638 396 l 638 999 q 690 1004 665 1003 q 739 1006 715 1006 q 790 1004 764 1006 q 842 999 815 1003 l 842 438 q 825 252 842 336 q 765 108 808 168 q 650 16 722 49 q 467 -17 578 -17 q 283 16 356 -17 q 168 108 211 49 q 108 252 125 168 q 92 438 92 336 l 92 999 m 489 1229 q 556 1236 519 1233 q 631 1239 593 1239 q 700 1236 667 1239 q 757 1229 733 1233 l 553 1085 q 503 1078 528 1079 q 454 1076 478 1076 q 353 1085 403 1076 l 489 1229 z "},"Û":{"ha":932,"x_min":92,"x_max":842,"o":"m 92 999 q 143 1004 118 1003 q 194 1006 168 1006 q 243 1004 218 1006 q 294 999 268 1003 l 294 481 q 301 335 294 396 q 326 235 307 275 q 378 177 344 196 q 467 158 413 158 q 554 177 521 158 q 606 235 588 196 q 631 335 625 275 q 638 481 638 396 l 638 999 q 690 1004 665 1003 q 739 1006 715 1006 q 790 1004 764 1006 q 842 999 815 1003 l 842 438 q 825 252 842 336 q 765 108 808 168 q 650 16 722 49 q 467 -17 578 -17 q 283 16 356 -17 q 168 108 211 49 q 108 252 125 168 q 92 438 92 336 l 92 999 m 346 1229 q 397 1235 367 1232 q 467 1238 428 1238 q 535 1235 504 1238 q 588 1229 565 1232 l 735 1085 q 688 1078 715 1081 q 635 1076 661 1076 q 579 1078 611 1076 q 531 1085 547 1081 l 465 1154 l 403 1085 q 381 1081 394 1082 q 351 1078 367 1079 q 321 1077 336 1078 q 293 1076 306 1076 q 242 1078 267 1076 q 199 1085 218 1081 l 346 1229 z "},"Ü":{"ha":932,"x_min":92,"x_max":842,"o":"m 92 999 q 143 1004 118 1003 q 194 1006 168 1006 q 243 1004 218 1006 q 294 999 268 1003 l 294 481 q 301 335 294 396 q 326 235 307 275 q 378 177 344 196 q 467 158 413 158 q 554 177 521 158 q 606 235 588 196 q 631 335 625 275 q 638 481 638 396 l 638 999 q 690 1004 665 1003 q 739 1006 715 1006 q 790 1004 764 1006 q 842 999 815 1003 l 842 438 q 825 252 842 336 q 765 108 808 168 q 650 16 722 49 q 467 -17 578 -17 q 283 16 356 -17 q 168 108 211 49 q 108 252 125 168 q 92 438 92 336 l 92 999 m 225 1096 q 220 1137 222 1117 q 218 1178 218 1157 q 220 1218 218 1197 q 225 1260 222 1239 q 270 1266 246 1264 q 314 1268 294 1268 q 358 1266 333 1268 q 404 1260 382 1264 q 410 1219 408 1239 q 411 1178 411 1199 q 410 1138 411 1158 q 404 1096 408 1117 q 358 1090 382 1092 q 314 1089 335 1089 q 271 1090 296 1089 q 225 1096 246 1092 m 532 1096 q 524 1178 524 1138 q 532 1260 524 1218 q 577 1266 553 1264 q 621 1268 601 1268 q 665 1266 640 1268 q 711 1260 689 1264 q 715 1219 714 1239 q 717 1178 717 1199 q 715 1138 717 1158 q 711 1096 714 1117 q 665 1090 689 1092 q 621 1089 640 1089 q 577 1090 601 1089 q 532 1096 553 1092 z "},"Ý":{"ha":854,"x_min":14,"x_max":840,"o":"m 325 357 l 14 999 q 131 1007 72 1007 q 236 999 183 1007 l 433 546 l 628 999 q 733 1007 679 1007 q 840 999 783 1007 l 529 357 l 529 -1 q 476 -7 501 -6 q 426 -8 451 -8 q 377 -7 403 -8 q 325 -1 351 -6 l 325 357 m 446 1229 q 513 1236 476 1233 q 588 1239 550 1239 q 657 1236 624 1239 q 714 1229 690 1233 l 510 1085 q 460 1078 485 1079 q 411 1076 435 1076 q 310 1085 360 1076 l 446 1229 z "},"Þ":{"ha":818,"x_min":97,"x_max":758,"o":"m 97 999 q 149 1004 124 1003 q 197 1006 174 1006 q 246 1004 219 1006 q 300 999 272 1003 l 300 847 q 329 849 315 849 q 358 849 343 849 q 499 835 428 849 q 628 783 571 821 q 722 678 686 746 q 758 501 758 610 q 722 325 758 393 q 628 219 686 257 q 499 168 571 182 q 358 154 428 154 l 300 154 l 300 0 q 246 -6 272 -4 q 197 -7 219 -7 q 149 -6 174 -7 q 97 0 124 -4 l 97 999 m 300 326 q 338 323 325 324 q 367 322 351 322 q 435 331 401 322 q 494 360 468 339 q 535 415 519 381 q 550 501 550 449 q 535 588 550 553 q 494 643 519 622 q 435 672 468 664 q 367 681 401 681 q 338 680 351 681 q 300 676 325 679 l 300 326 z "},"ß":{"ha":839,"x_min":92,"x_max":796,"o":"m 92 667 q 168 935 92 839 q 414 1032 244 1032 q 553 1009 497 1032 q 642 950 608 986 q 691 869 676 914 q 706 782 706 825 q 686 685 706 725 q 644 614 667 644 q 601 557 621 583 q 582 500 582 531 q 598 456 582 472 q 638 424 614 439 q 689 394 661 410 q 740 353 717 378 q 780 290 764 328 q 796 196 796 253 q 783 124 796 161 q 740 55 771 86 q 659 3 710 24 q 533 -17 608 -17 q 441 -10 482 -17 q 358 14 400 -3 q 372 90 361 51 q 399 164 382 128 q 459 142 431 147 q 511 136 488 136 q 577 157 554 136 q 600 215 600 178 q 584 259 600 242 q 544 291 568 276 q 494 320 521 306 q 443 356 467 335 q 403 408 419 378 q 388 483 388 438 q 406 564 388 532 q 446 625 424 596 q 486 688 468 654 q 504 774 504 722 q 499 811 504 793 q 483 843 494 829 q 451 865 471 857 q 403 874 432 874 q 313 825 342 874 q 285 667 285 776 l 285 0 q 190 -8 235 -8 q 92 0 142 -8 l 92 667 z "},"à":{"ha":725,"x_min":53,"x_max":647,"o":"m 456 329 q 419 334 439 332 q 385 336 400 336 q 277 312 317 336 q 238 233 238 288 q 253 178 238 197 q 290 149 268 158 q 335 138 311 140 q 378 136 360 136 q 419 140 399 136 q 456 146 440 143 l 456 329 m 456 472 q 444 526 456 506 q 414 559 433 547 q 366 575 394 571 q 303 579 338 579 q 143 550 228 579 q 114 618 124 586 q 104 694 104 650 q 226 725 165 715 q 340 735 288 735 q 566 665 485 735 q 647 443 647 596 l 647 26 q 529 -3 599 11 q 372 -17 460 -17 q 242 -4 301 -17 q 141 38 183 8 q 76 113 99 67 q 53 225 53 158 q 81 337 53 292 q 155 409 110 382 q 256 448 200 436 q 367 460 311 460 q 456 456 407 460 l 456 472 m 97 999 q 151 1005 125 1003 q 213 1007 176 1007 q 338 999 281 1007 l 493 828 q 403 819 447 819 q 350 822 375 819 q 307 828 325 825 l 97 999 z "},"á":{"ha":725,"x_min":53,"x_max":647,"o":"m 456 329 q 419 334 439 332 q 385 336 400 336 q 277 312 317 336 q 238 233 238 288 q 253 178 238 197 q 290 149 268 158 q 335 138 311 140 q 378 136 360 136 q 419 140 399 136 q 456 146 440 143 l 456 329 m 456 472 q 444 526 456 506 q 414 559 433 547 q 366 575 394 571 q 303 579 338 579 q 143 550 228 579 q 114 618 124 586 q 104 694 104 650 q 226 725 165 715 q 340 735 288 735 q 566 665 485 735 q 647 443 647 596 l 647 26 q 529 -3 599 11 q 372 -17 460 -17 q 242 -4 301 -17 q 141 38 183 8 q 76 113 99 67 q 53 225 53 158 q 81 337 53 292 q 155 409 110 382 q 256 448 200 436 q 367 460 311 460 q 456 456 407 460 l 456 472 m 353 999 q 478 1007 408 1007 q 540 1005 514 1007 q 593 999 565 1003 l 383 828 q 340 822 365 825 q 288 819 315 819 q 197 828 243 819 l 353 999 z "},"â":{"ha":725,"x_min":53,"x_max":647,"o":"m 456 329 q 419 334 439 332 q 385 336 400 336 q 277 312 317 336 q 238 233 238 288 q 253 178 238 197 q 290 149 268 158 q 335 138 311 140 q 378 136 360 136 q 419 140 399 136 q 456 146 440 143 l 456 329 m 456 472 q 444 526 456 506 q 414 559 433 547 q 366 575 394 571 q 303 579 338 579 q 143 550 228 579 q 114 618 124 586 q 104 694 104 650 q 226 725 165 715 q 340 735 288 735 q 566 665 485 735 q 647 443 647 596 l 647 26 q 529 -3 599 11 q 372 -17 460 -17 q 242 -4 301 -17 q 141 38 183 8 q 76 113 99 67 q 53 225 53 158 q 81 337 53 292 q 155 409 110 382 q 256 448 200 436 q 367 460 311 460 q 456 456 407 460 l 456 472 m 238 999 q 293 1003 261 1001 q 354 1006 325 1006 q 401 1004 372 1006 q 457 997 429 1003 l 592 826 q 507 818 560 818 q 455 820 483 818 q 403 828 426 822 l 346 917 l 290 828 q 247 820 272 822 q 196 818 221 818 q 101 826 140 818 l 238 999 z "},"ã":{"ha":725,"x_min":53,"x_max":647,"o":"m 456 329 q 419 334 439 332 q 385 336 400 336 q 277 312 317 336 q 238 233 238 288 q 253 178 238 197 q 290 149 268 158 q 335 138 311 140 q 378 136 360 136 q 419 140 399 136 q 456 146 440 143 l 456 329 m 456 472 q 444 526 456 506 q 414 559 433 547 q 366 575 394 571 q 303 579 338 579 q 143 550 228 579 q 114 618 124 586 q 104 694 104 650 q 226 725 165 715 q 340 735 288 735 q 566 665 485 735 q 647 443 647 596 l 647 26 q 529 -3 599 11 q 372 -17 460 -17 q 242 -4 301 -17 q 141 38 183 8 q 76 113 99 67 q 53 225 53 158 q 81 337 53 292 q 155 409 110 382 q 256 448 200 436 q 367 460 311 460 q 456 456 407 460 l 456 472 m 110 940 q 172 992 133 971 q 261 1014 210 1014 q 312 1006 288 1014 q 360 990 336 999 q 408 973 383 981 q 460 965 433 965 q 504 972 483 965 q 554 1008 525 979 q 592 956 576 985 q 614 897 607 926 q 551 847 590 867 q 461 826 513 826 q 410 834 435 826 q 360 851 385 842 q 312 867 336 860 q 263 875 288 875 q 217 867 236 875 q 168 832 197 860 q 132 884 149 857 q 110 940 115 911 z "},"ä":{"ha":725,"x_min":53,"x_max":647,"o":"m 456 329 q 419 334 439 332 q 385 336 400 336 q 277 312 317 336 q 238 233 238 288 q 253 178 238 197 q 290 149 268 158 q 335 138 311 140 q 378 136 360 136 q 419 140 399 136 q 456 146 440 143 l 456 329 m 456 472 q 444 526 456 506 q 414 559 433 547 q 366 575 394 571 q 303 579 338 579 q 143 550 228 579 q 114 618 124 586 q 104 694 104 650 q 226 725 165 715 q 340 735 288 735 q 566 665 485 735 q 647 443 647 596 l 647 26 q 529 -3 599 11 q 372 -17 460 -17 q 242 -4 301 -17 q 141 38 183 8 q 76 113 99 67 q 53 225 53 158 q 81 337 53 292 q 155 409 110 382 q 256 448 200 436 q 367 460 311 460 q 456 456 407 460 l 456 472 m 129 824 q 124 865 126 844 q 122 906 122 885 q 124 946 122 925 q 129 988 126 967 q 174 994 150 992 q 218 996 199 996 q 262 994 238 996 q 308 988 286 992 q 314 947 313 967 q 315 906 315 926 q 314 865 315 886 q 308 824 313 844 q 263 818 286 819 q 218 817 239 817 q 175 818 200 817 q 129 824 150 819 m 436 824 q 428 906 428 865 q 436 988 428 946 q 481 994 457 992 q 525 996 506 996 q 569 994 544 996 q 615 988 593 992 q 619 947 618 967 q 621 906 621 926 q 619 865 621 886 q 615 824 618 844 q 569 818 593 819 q 525 817 544 817 q 481 818 506 817 q 436 824 457 819 z "},"å":{"ha":725,"x_min":53,"x_max":647,"o":"m 456 329 q 419 334 439 332 q 385 336 400 336 q 277 312 317 336 q 238 233 238 288 q 253 178 238 197 q 290 149 268 158 q 335 138 311 140 q 378 136 360 136 q 419 140 399 136 q 456 146 440 143 l 456 329 m 456 472 q 444 526 456 506 q 414 559 433 547 q 366 575 394 571 q 303 579 338 579 q 143 550 228 579 q 114 618 124 586 q 104 694 104 650 q 226 725 165 715 q 340 735 288 735 q 566 665 485 735 q 647 443 647 596 l 647 26 q 529 -3 599 11 q 372 -17 460 -17 q 242 -4 301 -17 q 141 38 183 8 q 76 113 99 67 q 53 225 53 158 q 81 337 53 292 q 155 409 110 382 q 256 448 200 436 q 367 460 311 460 q 456 456 407 460 l 456 472 m 210 965 q 256 1082 210 1040 q 372 1124 303 1124 q 488 1082 442 1124 q 535 965 535 1040 q 488 849 535 890 q 372 807 442 807 q 256 849 303 807 q 210 965 210 890 m 372 889 q 419 909 400 889 q 438 965 438 929 q 419 1022 438 1001 q 372 1042 400 1042 q 326 1022 344 1042 q 307 965 307 1001 q 326 909 307 929 q 372 889 344 889 z "},"æ":{"ha":1147,"x_min":53,"x_max":1089,"o":"m 458 472 q 447 526 458 506 q 415 559 436 547 q 366 575 394 571 q 303 579 338 579 q 227 572 268 579 q 143 550 186 565 q 114 618 124 586 q 104 694 104 650 q 226 725 165 715 q 340 735 288 735 q 469 714 413 735 q 567 653 526 693 q 663 713 608 690 q 788 735 718 735 q 919 708 863 735 q 1013 636 975 682 q 1070 527 1051 590 q 1089 392 1089 464 q 1087 340 1089 365 q 1082 300 1085 315 l 633 300 q 690 179 633 218 q 832 140 746 140 q 922 149 879 140 q 1008 175 964 158 q 1035 108 1024 147 q 1047 25 1046 69 q 934 -6 993 4 q 817 -17 875 -17 q 686 -1 747 -17 q 581 43 625 14 q 474 -1 533 15 q 339 -17 415 -17 q 227 -4 279 -17 q 136 38 175 8 q 75 113 97 67 q 53 225 53 158 q 81 336 53 292 q 155 407 110 381 q 256 444 200 433 q 367 456 311 456 q 458 451 410 456 l 458 472 m 454 319 q 419 324 438 322 q 385 326 400 326 q 277 307 317 326 q 238 233 238 288 q 252 178 238 197 q 287 149 267 158 q 329 138 307 140 q 367 136 351 136 q 440 145 410 136 q 485 161 469 154 q 465 224 471 190 q 456 297 458 258 l 454 319 m 903 436 q 872 544 900 503 q 785 585 843 585 q 678 546 715 585 q 635 436 642 507 l 903 436 z "},"ç":{"ha":660,"x_min":57,"x_max":618,"o":"m 321 -8 q 205 38 254 6 q 122 119 156 71 q 73 228 89 167 q 57 358 57 289 q 78 506 57 438 q 144 625 100 574 q 253 706 188 676 q 404 735 318 735 q 460 733 435 735 q 510 728 486 732 q 557 717 533 724 q 610 699 581 710 q 601 627 610 667 q 575 551 593 588 q 502 570 533 565 q 431 575 471 575 q 301 519 344 575 q 257 358 257 463 q 304 194 257 246 q 432 143 351 143 q 470 144 453 143 q 504 147 488 144 q 538 156 521 150 q 579 169 556 161 q 607 105 596 142 q 618 18 618 68 q 515 -10 563 -3 q 415 -17 468 -17 l 393 -74 q 402 -72 397 -72 q 415 -71 407 -71 q 530 -105 489 -71 q 571 -192 571 -139 q 511 -299 571 -262 q 356 -335 451 -335 q 307 -333 336 -335 q 244 -322 278 -332 q 251 -273 247 -300 q 269 -225 256 -246 q 314 -235 294 -232 q 356 -237 333 -237 q 418 -228 394 -237 q 442 -194 442 -218 q 419 -162 442 -171 q 361 -153 397 -153 q 319 -156 342 -153 q 276 -165 296 -158 l 267 -156 l 321 -8 z "},"è":{"ha":781,"x_min":60,"x_max":722,"o":"m 254 299 q 313 178 260 215 q 451 140 365 140 q 548 149 499 140 q 642 175 597 158 q 668 108 657 147 q 681 25 679 69 q 436 -17 572 -17 q 265 11 336 -17 q 148 88 193 39 q 81 206 103 138 q 60 354 60 274 q 82 503 60 433 q 148 624 104 572 q 256 705 192 675 q 407 735 321 735 q 540 708 482 735 q 640 636 599 682 q 701 527 681 590 q 722 392 722 464 q 720 340 722 365 q 715 299 718 314 l 254 299 m 536 436 q 499 544 533 503 q 404 585 465 585 q 299 546 335 585 q 256 436 263 507 l 536 436 m 143 999 q 197 1005 171 1003 q 258 1007 222 1007 q 383 999 326 1007 l 539 828 q 449 819 493 819 q 396 822 421 819 q 353 828 371 825 l 143 999 z "},"é":{"ha":781,"x_min":60,"x_max":722,"o":"m 254 299 q 313 178 260 215 q 451 140 365 140 q 548 149 499 140 q 642 175 597 158 q 668 108 657 147 q 681 25 679 69 q 436 -17 572 -17 q 265 11 336 -17 q 148 88 193 39 q 81 206 103 138 q 60 354 60 274 q 82 503 60 433 q 148 624 104 572 q 256 705 192 675 q 407 735 321 735 q 540 708 482 735 q 640 636 599 682 q 701 527 681 590 q 722 392 722 464 q 720 340 722 365 q 715 299 718 314 l 254 299 m 536 436 q 499 544 533 503 q 404 585 465 585 q 299 546 335 585 q 256 436 263 507 l 536 436 m 421 999 q 546 1007 476 1007 q 608 1005 582 1007 q 661 999 633 1003 l 451 828 q 408 822 433 825 q 356 819 383 819 q 265 828 311 819 l 421 999 z "},"ê":{"ha":781,"x_min":60,"x_max":722,"o":"m 254 299 q 313 178 260 215 q 451 140 365 140 q 548 149 499 140 q 642 175 597 158 q 668 108 657 147 q 681 25 679 69 q 436 -17 572 -17 q 265 11 336 -17 q 148 88 193 39 q 81 206 103 138 q 60 354 60 274 q 82 503 60 433 q 148 624 104 572 q 256 705 192 675 q 407 735 321 735 q 540 708 482 735 q 640 636 599 682 q 701 527 681 590 q 722 392 722 464 q 720 340 722 365 q 715 299 718 314 l 254 299 m 536 436 q 499 544 533 503 q 404 585 465 585 q 299 546 335 585 q 256 436 263 507 l 536 436 m 293 999 q 349 1003 317 1001 q 410 1006 381 1006 q 456 1004 428 1006 q 513 997 485 1003 l 647 826 q 563 818 615 818 q 510 820 539 818 q 458 828 482 822 l 401 917 l 346 828 q 302 820 328 822 q 251 818 276 818 q 157 826 196 818 l 293 999 z "},"ë":{"ha":781,"x_min":60,"x_max":722,"o":"m 254 299 q 313 178 260 215 q 451 140 365 140 q 548 149 499 140 q 642 175 597 158 q 668 108 657 147 q 681 25 679 69 q 436 -17 572 -17 q 265 11 336 -17 q 148 88 193 39 q 81 206 103 138 q 60 354 60 274 q 82 503 60 433 q 148 624 104 572 q 256 705 192 675 q 407 735 321 735 q 540 708 482 735 q 640 636 599 682 q 701 527 681 590 q 722 392 722 464 q 720 340 722 365 q 715 299 718 314 l 254 299 m 536 436 q 499 544 533 503 q 404 585 465 585 q 299 546 335 585 q 256 436 263 507 l 536 436 m 149 824 q 144 865 146 844 q 142 906 142 885 q 144 946 142 925 q 149 988 146 967 q 194 994 169 992 q 238 996 218 996 q 281 994 257 996 q 328 988 306 992 q 333 947 332 967 q 335 906 335 926 q 333 865 335 886 q 328 824 332 844 q 282 818 306 819 q 238 817 258 817 q 194 818 219 817 q 149 824 169 819 m 456 824 q 447 906 447 865 q 456 988 447 946 q 501 994 476 992 q 544 996 525 996 q 588 994 564 996 q 635 988 613 992 q 639 947 638 967 q 640 906 640 926 q 639 865 640 886 q 635 824 638 844 q 588 818 613 819 q 544 817 564 817 q 501 818 525 817 q 456 824 476 819 z "},"ì":{"ha":426,"x_min":-71,"x_max":329,"o":"m 136 568 l 43 568 q 37 606 39 586 q 35 644 35 626 q 43 718 35 682 l 329 718 l 329 0 q 232 -8 279 -8 q 136 0 186 -8 l 136 568 m -71 999 q -17 1005 -43 1003 q 44 1007 8 1007 q 169 999 113 1007 l 325 828 q 235 819 279 819 q 182 822 207 819 q 139 828 157 825 l -71 999 z "},"í":{"ha":426,"x_min":35,"x_max":460,"o":"m 136 568 l 43 568 q 37 606 39 586 q 35 644 35 626 q 43 718 35 682 l 329 718 l 329 0 q 232 -8 279 -8 q 136 0 186 -8 l 136 568 m 219 999 q 344 1007 275 1007 q 406 1005 381 1007 q 460 999 432 1003 l 250 828 q 207 822 232 825 q 154 819 182 819 q 64 828 110 819 l 219 999 z "},"î":{"ha":426,"x_min":-33,"x_max":457,"o":"m 136 568 l 43 568 q 37 606 39 586 q 35 644 35 626 q 43 718 35 682 l 329 718 l 329 0 q 232 -8 279 -8 q 136 0 186 -8 l 136 568 m 103 999 q 158 1003 126 1001 q 219 1006 190 1006 q 266 1004 238 1006 q 322 997 294 1003 l 457 826 q 372 818 425 818 q 320 820 349 818 q 268 828 292 822 l 211 917 l 156 828 q 112 820 138 822 q 61 818 86 818 q -33 826 6 818 l 103 999 z "},"ï":{"ha":426,"x_min":-36,"x_max":463,"o":"m 136 568 l 43 568 q 37 606 39 586 q 35 644 35 626 q 43 718 35 682 l 329 718 l 329 0 q 232 -8 279 -8 q 136 0 186 -8 l 136 568 m -29 824 q -34 865 -32 844 q -36 906 -36 885 q -34 946 -36 925 q -29 988 -32 967 q 16 994 -8 992 q 60 996 40 996 q 103 994 79 996 q 150 988 128 992 q 156 947 154 967 q 157 906 157 926 q 156 865 157 886 q 150 824 154 844 q 104 818 128 819 q 60 817 81 817 q 17 818 42 817 q -29 824 -8 819 m 278 824 q 269 906 269 865 q 278 988 269 946 q 323 994 299 992 q 367 996 347 996 q 410 994 386 996 q 457 988 435 992 q 461 947 460 967 q 463 906 463 926 q 461 865 463 886 q 457 824 460 844 q 410 818 435 819 q 367 817 386 817 q 323 818 347 817 q 278 824 299 819 z "},"ð":{"ha":794,"x_min":57,"x_max":738,"o":"m 290 839 q 183 857 243 854 q 171 931 171 896 q 176 976 171 954 q 188 1021 181 999 q 333 1002 267 1021 q 456 950 399 983 l 567 1025 q 603 987 588 1010 q 629 936 618 964 l 547 882 q 630 779 594 836 q 690 658 665 722 q 726 523 714 593 q 738 381 738 453 q 717 217 738 290 q 653 92 696 144 q 547 12 611 40 q 396 -17 482 -17 q 247 10 310 -17 q 141 83 183 36 q 78 192 99 129 q 57 328 57 254 q 77 465 57 401 q 137 576 97 529 q 234 649 176 622 q 367 676 292 676 q 438 667 403 676 q 500 638 472 658 q 459 717 485 679 q 397 782 433 754 l 272 699 q 238 738 254 714 q 214 789 221 763 l 290 839 m 396 122 q 503 175 471 122 q 536 328 536 228 q 503 481 536 428 q 396 533 471 533 q 289 481 321 533 q 257 328 257 428 q 289 175 257 228 q 396 122 321 122 z "},"ñ":{"ha":815,"x_min":97,"x_max":733,"o":"m 97 718 q 136 724 117 722 q 179 726 156 726 q 221 724 203 726 q 258 718 239 722 q 266 698 263 711 q 272 670 269 685 q 277 642 275 656 q 281 618 279 628 q 314 660 294 639 q 359 697 333 681 q 417 724 385 714 q 488 735 449 735 q 672 668 610 735 q 733 458 733 601 l 733 0 q 635 -8 683 -8 q 536 0 586 -8 l 536 406 q 513 521 536 481 q 433 561 490 561 q 385 554 410 561 q 340 527 360 547 q 307 471 319 507 q 294 376 294 435 l 294 0 q 196 -8 244 -8 q 97 0 147 -8 l 97 718 m 160 940 q 222 992 183 971 q 311 1014 260 1014 q 362 1006 338 1014 q 410 990 386 999 q 458 973 433 981 q 510 965 483 965 q 554 972 533 965 q 604 1008 575 979 q 642 956 626 985 q 664 897 657 926 q 601 847 640 867 q 511 826 563 826 q 460 834 485 826 q 410 851 435 842 q 362 867 386 860 q 313 875 338 875 q 267 867 286 875 q 218 832 247 860 q 182 884 199 857 q 160 940 165 911 z "},"ò":{"ha":806,"x_min":57,"x_max":747,"o":"m 401 -17 q 249 12 314 -17 q 142 91 185 40 q 78 210 100 142 q 57 357 57 278 q 78 506 57 436 q 142 626 100 575 q 249 706 185 676 q 401 735 314 735 q 554 706 489 735 q 663 626 619 676 q 726 506 706 575 q 747 357 747 436 q 726 210 747 278 q 663 91 706 142 q 554 12 619 40 q 401 -17 489 -17 m 401 133 q 513 191 479 133 q 547 357 547 249 q 513 523 547 465 q 401 581 479 581 q 291 523 325 581 q 257 357 257 465 q 291 191 257 249 q 401 133 325 133 m 119 999 q 173 1005 147 1003 q 235 1007 199 1007 q 360 999 303 1007 l 515 828 q 425 819 469 819 q 372 822 397 819 q 329 828 347 825 l 119 999 z "},"ó":{"ha":806,"x_min":57,"x_max":747,"o":"m 401 -17 q 249 12 314 -17 q 142 91 185 40 q 78 210 100 142 q 57 357 57 278 q 78 506 57 436 q 142 626 100 575 q 249 706 185 676 q 401 735 314 735 q 554 706 489 735 q 663 626 619 676 q 726 506 706 575 q 747 357 747 436 q 726 210 747 278 q 663 91 706 142 q 554 12 619 40 q 401 -17 489 -17 m 401 133 q 513 191 479 133 q 547 357 547 249 q 513 523 547 465 q 401 581 479 581 q 291 523 325 581 q 257 357 257 465 q 291 191 257 249 q 401 133 325 133 m 415 999 q 540 1007 471 1007 q 602 1005 576 1007 q 656 999 628 1003 l 446 828 q 403 822 428 825 q 350 819 378 819 q 260 828 306 819 l 415 999 z "},"ô":{"ha":806,"x_min":57,"x_max":747,"o":"m 401 -17 q 249 12 314 -17 q 142 91 185 40 q 78 210 100 142 q 57 357 57 278 q 78 506 57 436 q 142 626 100 575 q 249 706 185 676 q 401 735 314 735 q 554 706 489 735 q 663 626 619 676 q 726 506 706 575 q 747 357 747 436 q 726 210 747 278 q 663 91 706 142 q 554 12 619 40 q 401 -17 489 -17 m 401 133 q 513 191 479 133 q 547 357 547 249 q 513 523 547 465 q 401 581 479 581 q 291 523 325 581 q 257 357 257 465 q 291 191 257 249 q 401 133 325 133 m 293 999 q 349 1003 317 1001 q 410 1006 381 1006 q 456 1004 428 1006 q 513 997 485 1003 l 647 826 q 563 818 615 818 q 510 820 539 818 q 458 828 482 822 l 401 917 l 346 828 q 302 820 328 822 q 251 818 276 818 q 157 826 196 818 l 293 999 z "},"õ":{"ha":806,"x_min":57,"x_max":747,"o":"m 401 -17 q 249 12 314 -17 q 142 91 185 40 q 78 210 100 142 q 57 357 57 278 q 78 506 57 436 q 142 626 100 575 q 249 706 185 676 q 401 735 314 735 q 554 706 489 735 q 663 626 619 676 q 726 506 706 575 q 747 357 747 436 q 726 210 747 278 q 663 91 706 142 q 554 12 619 40 q 401 -17 489 -17 m 401 133 q 513 191 479 133 q 547 357 547 249 q 513 523 547 465 q 401 581 479 581 q 291 523 325 581 q 257 357 257 465 q 291 191 257 249 q 401 133 325 133 m 150 940 q 212 992 174 971 q 301 1014 250 1014 q 352 1006 328 1014 q 400 990 376 999 q 449 973 424 981 q 500 965 474 965 q 544 972 524 965 q 594 1008 565 979 q 632 956 617 985 q 654 897 647 926 q 592 847 631 867 q 501 826 553 826 q 450 834 475 826 q 401 851 425 842 q 352 867 376 860 q 303 875 328 875 q 257 867 276 875 q 208 832 238 860 q 172 884 189 857 q 150 940 156 911 z "},"ö":{"ha":806,"x_min":57,"x_max":747,"o":"m 401 -17 q 249 12 314 -17 q 142 91 185 40 q 78 210 100 142 q 57 357 57 278 q 78 506 57 436 q 142 626 100 575 q 249 706 185 676 q 401 735 314 735 q 554 706 489 735 q 663 626 619 676 q 726 506 706 575 q 747 357 747 436 q 726 210 747 278 q 663 91 706 142 q 554 12 619 40 q 401 -17 489 -17 m 401 133 q 513 191 479 133 q 547 357 547 249 q 513 523 547 465 q 401 581 479 581 q 291 523 325 581 q 257 357 257 465 q 291 191 257 249 q 401 133 325 133 m 158 824 q 153 865 156 844 q 151 906 151 885 q 153 946 151 925 q 158 988 156 967 q 203 994 179 992 q 247 996 228 996 q 291 994 267 996 q 338 988 315 992 q 343 947 342 967 q 344 906 344 926 q 343 865 344 886 q 338 824 342 844 q 292 818 315 819 q 247 817 268 817 q 204 818 229 817 q 158 824 179 819 m 465 824 q 457 906 457 865 q 465 988 457 946 q 510 994 486 992 q 554 996 535 996 q 598 994 574 996 q 644 988 622 992 q 649 947 647 967 q 650 906 650 926 q 649 865 650 886 q 644 824 647 844 q 598 818 622 819 q 554 817 574 817 q 510 818 535 817 q 465 824 486 819 z "},"÷":{"ha":833,"x_min":117,"x_max":718,"o":"m 301 776 q 335 858 301 824 q 415 892 368 892 q 497 858 463 892 q 531 776 531 824 q 497 696 531 729 q 415 663 463 663 q 335 696 368 663 q 301 776 301 729 m 301 213 q 335 294 301 260 q 415 328 368 328 q 497 294 463 328 q 531 213 531 260 q 497 132 531 165 q 415 99 463 99 q 335 132 368 99 q 301 213 301 165 m 710 575 q 718 492 718 533 q 710 407 718 449 l 125 407 q 117 490 117 449 q 125 575 117 533 l 710 575 z "},"ø":{"ha":806,"x_min":57,"x_max":747,"o":"m 146 86 q 79 206 101 136 q 57 357 57 275 q 78 506 57 436 q 142 626 100 575 q 249 706 185 676 q 401 735 314 735 q 517 719 465 735 q 608 675 568 703 l 635 707 q 660 711 646 710 q 688 713 674 713 q 743 708 722 713 l 669 615 q 728 499 710 565 q 747 357 747 433 q 726 210 747 278 q 663 91 706 142 q 554 12 619 40 q 401 -17 489 -17 q 211 32 289 -17 l 188 1 q 161 -3 175 -1 q 135 -4 147 -4 q 103 -3 118 -4 q 79 0 89 -3 l 146 86 m 501 538 q 401 581 465 581 q 291 523 325 581 q 257 357 257 465 q 260 294 257 324 q 269 242 263 265 l 501 538 m 315 163 q 401 133 349 133 q 513 191 479 133 q 547 357 547 249 q 539 449 547 408 l 315 163 z "},"ù":{"ha":794,"x_min":85,"x_max":713,"o":"m 85 718 q 183 726 135 726 q 282 718 232 726 l 282 338 q 291 244 282 281 q 319 185 300 207 q 365 155 338 164 q 431 146 393 146 q 517 156 482 146 l 517 718 q 614 726 567 726 q 713 718 663 726 l 713 28 q 595 -2 668 13 q 443 -17 522 -17 q 307 -6 372 -17 q 192 42 242 6 q 114 147 143 78 q 85 332 85 217 l 85 718 m 146 999 q 199 1005 174 1003 q 261 1007 225 1007 q 386 999 329 1007 l 542 828 q 451 819 496 819 q 399 822 424 819 q 356 828 374 825 l 146 999 z "},"ú":{"ha":794,"x_min":85,"x_max":713,"o":"m 85 718 q 183 726 135 726 q 282 718 232 726 l 282 338 q 291 244 282 281 q 319 185 300 207 q 365 155 338 164 q 431 146 393 146 q 517 156 482 146 l 517 718 q 614 726 567 726 q 713 718 663 726 l 713 28 q 595 -2 668 13 q 443 -17 522 -17 q 307 -6 372 -17 q 192 42 242 6 q 114 147 143 78 q 85 332 85 217 l 85 718 m 428 999 q 553 1007 483 1007 q 615 1005 589 1007 q 668 999 640 1003 l 458 828 q 415 822 440 825 q 363 819 390 819 q 272 828 318 819 l 428 999 z "},"û":{"ha":794,"x_min":85,"x_max":713,"o":"m 85 718 q 183 726 135 726 q 282 718 232 726 l 282 338 q 291 244 282 281 q 319 185 300 207 q 365 155 338 164 q 431 146 393 146 q 517 156 482 146 l 517 718 q 614 726 567 726 q 713 718 663 726 l 713 28 q 595 -2 668 13 q 443 -17 522 -17 q 307 -6 372 -17 q 192 42 242 6 q 114 147 143 78 q 85 332 85 217 l 85 718 m 289 999 q 344 1003 313 1001 q 406 1006 376 1006 q 452 1004 424 1006 q 508 997 481 1003 l 643 826 q 558 818 611 818 q 506 820 535 818 q 454 828 478 822 l 397 917 l 342 828 q 298 820 324 822 q 247 818 272 818 q 153 826 192 818 l 289 999 z "},"ü":{"ha":794,"x_min":85,"x_max":713,"o":"m 85 718 q 183 726 135 726 q 282 718 232 726 l 282 338 q 291 244 282 281 q 319 185 300 207 q 365 155 338 164 q 431 146 393 146 q 517 156 482 146 l 517 718 q 614 726 567 726 q 713 718 663 726 l 713 28 q 595 -2 668 13 q 443 -17 522 -17 q 307 -6 372 -17 q 192 42 242 6 q 114 147 143 78 q 85 332 85 217 l 85 718 m 165 824 q 160 865 163 844 q 158 906 158 885 q 160 946 158 925 q 165 988 163 967 q 210 994 186 992 q 254 996 235 996 q 298 994 274 996 q 344 988 322 992 q 350 947 349 967 q 351 906 351 926 q 350 865 351 886 q 344 824 349 844 q 299 818 322 819 q 254 817 275 817 q 211 818 236 817 q 165 824 186 819 m 472 824 q 464 906 464 865 q 472 988 464 946 q 517 994 493 992 q 561 996 542 996 q 605 994 581 996 q 651 988 629 992 q 656 947 654 967 q 657 906 657 926 q 656 865 657 886 q 651 824 654 844 q 605 818 629 819 q 561 817 581 817 q 517 818 542 817 q 472 824 493 819 z "},"ý":{"ha":753,"x_min":14,"x_max":742,"o":"m 14 718 q 70 726 46 725 q 115 726 94 726 q 172 725 143 726 q 225 718 201 724 l 375 92 l 544 718 q 639 726 590 726 q 683 726 660 726 q 742 718 707 725 l 474 -169 q 434 -257 457 -222 q 382 -311 411 -292 q 317 -338 353 -331 q 239 -346 281 -346 q 169 -341 200 -346 q 107 -328 138 -336 q 106 -316 106 -321 q 106 -306 106 -311 q 113 -242 106 -272 q 132 -185 121 -212 q 165 -192 144 -189 q 207 -196 186 -196 q 240 -194 224 -196 q 273 -181 257 -192 q 303 -149 289 -171 q 328 -86 317 -126 l 351 0 q 317 -2 336 -1 q 279 -3 299 -3 q 250 -3 264 -3 q 225 0 236 -3 l 14 718 m 382 999 q 507 1007 438 1007 q 569 1005 543 1007 q 622 999 594 1003 l 413 828 q 369 822 394 825 q 317 819 344 819 q 226 828 272 819 l 382 999 z "},"þ":{"ha":821,"x_min":93,"x_max":764,"o":"m 290 153 q 376 142 328 142 q 508 197 463 142 q 554 365 554 253 q 547 445 554 408 q 524 508 540 482 q 481 550 507 535 q 418 565 456 565 q 359 552 383 565 q 319 516 335 539 q 297 463 304 493 q 290 397 290 432 l 290 153 m 93 1015 q 144 1021 119 1019 q 192 1022 168 1022 q 240 1021 215 1022 q 290 1015 264 1019 l 290 638 q 364 706 318 676 q 479 735 410 735 q 591 713 539 735 q 682 645 643 690 q 742 532 721 600 q 764 371 764 464 q 738 209 764 281 q 661 88 711 138 q 539 10 611 38 q 375 -17 467 -17 q 328 -15 351 -17 q 290 -10 306 -12 l 290 -329 q 240 -335 264 -333 q 192 -336 215 -336 q 144 -335 168 -336 q 93 -329 119 -333 l 93 1015 z "},"ÿ":{"ha":753,"x_min":14,"x_max":742,"o":"m 14 718 q 70 726 46 725 q 115 726 94 726 q 172 725 143 726 q 225 718 201 724 l 375 92 l 544 718 q 639 726 590 726 q 683 726 660 726 q 742 718 707 725 l 474 -169 q 434 -257 457 -222 q 382 -311 411 -292 q 317 -338 353 -331 q 239 -346 281 -346 q 169 -341 200 -346 q 107 -328 138 -336 q 106 -316 106 -321 q 106 -306 106 -311 q 113 -242 106 -272 q 132 -185 121 -212 q 165 -192 144 -189 q 207 -196 186 -196 q 240 -194 224 -196 q 273 -181 257 -192 q 303 -149 289 -171 q 328 -86 317 -126 l 351 0 q 317 -2 336 -1 q 279 -3 299 -3 q 250 -3 264 -3 q 225 0 236 -3 l 14 718 m 138 824 q 133 865 135 844 q 131 906 131 885 q 133 946 131 925 q 138 988 135 967 q 183 994 158 992 q 226 996 207 996 q 270 994 246 996 q 317 988 294 992 q 322 947 321 967 q 324 906 324 926 q 322 865 324 886 q 317 824 321 844 q 271 818 294 819 q 226 817 247 817 q 183 818 208 817 q 138 824 158 819 m 444 824 q 436 906 436 865 q 444 988 436 946 q 490 994 465 992 q 533 996 514 996 q 577 994 553 996 q 624 988 601 992 q 628 947 626 967 q 629 906 629 926 q 628 865 629 886 q 624 824 626 844 q 577 818 601 819 q 533 817 553 817 q 490 818 514 817 q 444 824 465 819 z "},"Ā":{"ha":883,"x_min":14,"x_max":868,"o":"m 329 999 q 385 1005 358 1003 q 443 1007 411 1007 q 497 1005 471 1007 q 556 999 524 1003 l 868 0 q 757 -8 811 -8 q 654 0 704 -8 l 599 200 l 268 200 l 211 0 q 115 -8 161 -8 q 14 0 64 -8 l 329 999 m 551 368 l 436 788 l 315 368 l 551 368 m 667 1233 q 675 1164 675 1197 q 667 1093 675 1128 l 215 1093 q 207 1163 207 1128 q 215 1233 207 1197 l 667 1233 z "},"ā":{"ha":725,"x_min":53,"x_max":647,"o":"m 456 329 q 419 334 439 332 q 385 336 400 336 q 277 312 317 336 q 238 233 238 288 q 253 178 238 197 q 290 149 268 158 q 335 138 311 140 q 378 136 360 136 q 419 140 399 136 q 456 146 440 143 l 456 329 m 456 472 q 444 526 456 506 q 414 559 433 547 q 366 575 394 571 q 303 579 338 579 q 143 550 228 579 q 114 618 124 586 q 104 694 104 650 q 226 725 165 715 q 340 735 288 735 q 566 665 485 735 q 647 443 647 596 l 647 26 q 529 -3 599 11 q 372 -17 460 -17 q 242 -4 301 -17 q 141 38 183 8 q 76 113 99 67 q 53 225 53 158 q 81 337 53 292 q 155 409 110 382 q 256 448 200 436 q 367 460 311 460 q 456 456 407 460 l 456 472 m 557 982 q 565 913 565 946 q 557 842 565 876 l 189 842 q 181 911 181 876 q 189 982 181 946 l 557 982 z "},"Ă":{"ha":883,"x_min":14,"x_max":868,"o":"m 329 999 q 385 1005 358 1003 q 443 1007 411 1007 q 497 1005 471 1007 q 556 999 524 1003 l 868 0 q 757 -8 811 -8 q 654 0 704 -8 l 599 200 l 268 200 l 211 0 q 115 -8 161 -8 q 14 0 64 -8 l 329 999 m 551 368 l 436 788 l 315 368 l 551 368 m 196 1242 q 238 1249 218 1247 q 278 1251 258 1251 q 357 1240 317 1251 q 375 1199 360 1218 q 440 1181 390 1181 q 506 1199 490 1181 q 524 1240 521 1218 q 610 1251 568 1251 q 686 1242 647 1251 q 654 1149 681 1183 q 592 1098 628 1115 q 516 1076 557 1081 q 440 1071 475 1071 q 365 1076 406 1071 q 289 1098 325 1081 q 227 1149 253 1115 q 196 1242 201 1183 z "},"ă":{"ha":725,"x_min":53,"x_max":647,"o":"m 456 329 q 419 334 439 332 q 385 336 400 336 q 277 312 317 336 q 238 233 238 288 q 253 178 238 197 q 290 149 268 158 q 335 138 311 140 q 378 136 360 136 q 419 140 399 136 q 456 146 440 143 l 456 329 m 456 472 q 444 526 456 506 q 414 559 433 547 q 366 575 394 571 q 303 579 338 579 q 143 550 228 579 q 114 618 124 586 q 104 694 104 650 q 226 725 165 715 q 340 735 288 735 q 566 665 485 735 q 647 443 647 596 l 647 26 q 529 -3 599 11 q 372 -17 460 -17 q 242 -4 301 -17 q 141 38 183 8 q 76 113 99 67 q 53 225 53 158 q 81 337 53 292 q 155 409 110 382 q 256 448 200 436 q 367 460 311 460 q 456 456 407 460 l 456 472 m 119 997 q 160 1005 139 1003 q 201 1007 182 1007 q 241 1004 222 1007 q 281 996 260 1001 q 285 973 282 985 q 297 951 289 961 q 320 934 306 940 q 360 928 335 928 q 399 934 385 928 q 422 951 414 940 q 434 973 431 961 q 439 996 438 985 q 482 1004 463 1001 q 524 1007 501 1007 q 562 1005 542 1007 q 601 997 582 1003 q 570 902 596 939 q 510 844 544 865 q 435 815 475 822 q 360 807 394 807 q 285 815 325 807 q 210 844 246 822 q 150 902 175 865 q 119 997 125 939 z "},"Ą":{"ha":883,"x_min":14,"x_max":868,"o":"m 329 999 q 385 1005 358 1003 q 443 1007 411 1007 q 497 1005 471 1007 q 556 999 524 1003 l 868 0 q 801 -16 833 0 q 745 -56 769 -32 q 706 -108 721 -79 q 692 -164 692 -137 q 707 -206 692 -192 q 750 -221 722 -221 q 774 -219 757 -221 q 818 -208 790 -217 q 840 -258 833 -228 q 846 -317 846 -289 q 792 -330 826 -324 q 715 -336 758 -336 q 646 -330 681 -336 q 583 -307 611 -324 q 538 -262 556 -290 q 521 -193 521 -235 q 559 -87 521 -133 q 654 0 597 -40 l 599 200 l 268 200 l 211 0 q 115 -8 161 -8 q 14 0 64 -8 l 329 999 m 551 368 l 436 788 l 315 368 l 551 368 z "},"ą":{"ha":725,"x_min":53,"x_max":647,"o":"m 456 472 q 444 526 456 506 q 414 559 433 547 q 366 575 394 571 q 303 579 338 579 q 143 550 228 579 q 114 618 124 586 q 104 694 104 650 q 226 725 165 715 q 340 735 288 735 q 566 665 485 735 q 647 443 647 596 l 647 26 q 528 -69 563 -22 q 494 -158 494 -117 q 554 -224 494 -224 q 578 -222 563 -224 q 617 -212 593 -221 q 637 -262 631 -231 q 643 -318 643 -293 q 588 -331 624 -325 q 511 -336 551 -336 q 442 -329 476 -336 q 382 -306 408 -322 q 339 -262 356 -289 q 322 -196 322 -236 q 355 -102 322 -150 q 438 -14 388 -54 q 406 -16 422 -15 q 372 -17 389 -17 q 242 -4 301 -17 q 141 38 183 8 q 76 113 99 67 q 53 225 53 158 q 81 337 53 292 q 155 409 110 382 q 256 448 200 436 q 367 460 311 460 q 456 456 407 460 l 456 472 m 456 329 q 419 334 439 332 q 385 336 400 336 q 277 312 317 336 q 238 233 238 288 q 253 178 238 197 q 290 149 268 158 q 335 138 311 140 q 378 136 360 136 q 419 140 399 136 q 456 146 440 143 l 456 329 z "},"Ć":{"ha":858,"x_min":72,"x_max":833,"o":"m 757 189 q 787 109 775 150 q 804 26 799 68 q 674 -8 732 0 q 550 -17 617 -17 q 343 22 432 -17 q 194 128 254 60 q 103 292 133 197 q 72 497 72 386 q 104 703 72 608 q 197 868 136 799 q 345 976 257 938 q 546 1015 433 1015 q 669 1007 613 1015 q 790 972 725 999 q 774 891 788 931 q 743 811 760 851 q 657 835 694 828 q 568 842 619 842 q 363 755 435 842 q 292 497 292 668 q 579 158 292 158 q 669 165 631 158 q 757 189 708 172 m 565 1229 q 633 1236 596 1233 q 707 1239 669 1239 q 776 1236 743 1239 q 833 1229 810 1233 l 629 1085 q 579 1078 604 1079 q 531 1076 554 1076 q 429 1085 479 1076 l 565 1229 z "},"ć":{"ha":660,"x_min":57,"x_max":668,"o":"m 579 169 q 607 105 596 142 q 618 18 618 68 q 514 -10 563 -4 q 413 -17 465 -17 q 256 12 322 -17 q 145 90 189 40 q 79 209 101 140 q 57 358 57 278 q 78 506 57 438 q 144 625 100 574 q 253 706 188 676 q 404 735 318 735 q 460 733 435 735 q 510 728 486 732 q 557 717 533 724 q 610 699 581 710 q 601 627 610 667 q 575 551 593 588 q 502 570 533 565 q 431 575 471 575 q 301 519 344 575 q 257 358 257 463 q 304 194 257 246 q 432 143 351 143 q 470 144 453 143 q 504 147 488 144 q 538 156 521 150 q 579 169 556 161 m 428 999 q 553 1007 483 1007 q 615 1005 589 1007 q 668 999 640 1003 l 458 828 q 415 822 440 825 q 363 819 390 819 q 272 828 318 819 l 428 999 z "},"Ĉ":{"ha":858,"x_min":72,"x_max":804,"o":"m 757 189 q 787 109 775 150 q 804 26 799 68 q 674 -8 732 0 q 550 -17 617 -17 q 343 22 432 -17 q 194 128 254 60 q 103 292 133 197 q 72 497 72 386 q 104 703 72 608 q 197 868 136 799 q 345 976 257 938 q 546 1015 433 1015 q 669 1007 613 1015 q 790 972 725 999 q 774 891 788 931 q 743 811 760 851 q 657 835 694 828 q 568 842 619 842 q 363 755 435 842 q 292 497 292 668 q 579 158 292 158 q 669 165 631 158 q 757 189 708 172 m 399 1229 q 450 1235 419 1232 q 519 1238 481 1238 q 588 1235 557 1238 q 640 1229 618 1232 l 788 1085 q 741 1078 768 1081 q 688 1076 714 1076 q 632 1078 664 1076 q 583 1085 600 1081 l 518 1154 l 456 1085 q 433 1081 447 1082 q 404 1078 419 1079 q 374 1077 389 1078 q 346 1076 358 1076 q 295 1078 319 1076 q 251 1085 271 1081 l 399 1229 z "},"ĉ":{"ha":660,"x_min":57,"x_max":618,"o":"m 579 169 q 607 105 596 142 q 618 18 618 68 q 514 -10 563 -4 q 413 -17 465 -17 q 256 12 322 -17 q 145 90 189 40 q 79 209 101 140 q 57 358 57 278 q 78 506 57 438 q 144 625 100 574 q 253 706 188 676 q 404 735 318 735 q 460 733 435 735 q 510 728 486 732 q 557 717 533 724 q 610 699 581 710 q 601 627 610 667 q 575 551 593 588 q 502 570 533 565 q 431 575 471 575 q 301 519 344 575 q 257 358 257 463 q 304 194 257 246 q 432 143 351 143 q 470 144 453 143 q 504 147 488 144 q 538 156 521 150 q 579 169 556 161 m 264 999 q 319 1003 288 1001 q 381 1006 351 1006 q 427 1004 399 1006 q 483 997 456 1003 l 618 826 q 533 818 586 818 q 481 820 510 818 q 429 828 453 822 l 372 917 l 317 828 q 273 820 299 822 q 222 818 247 818 q 128 826 167 818 l 264 999 z "},"Ċ":{"ha":858,"x_min":72,"x_max":804,"o":"m 757 189 q 787 109 775 150 q 804 26 799 68 q 674 -8 732 0 q 550 -17 617 -17 q 343 22 432 -17 q 194 128 254 60 q 103 292 133 197 q 72 497 72 386 q 104 703 72 608 q 197 868 136 799 q 345 976 257 938 q 546 1015 433 1015 q 669 1007 613 1015 q 790 972 725 999 q 774 891 788 931 q 743 811 760 851 q 657 835 694 828 q 568 842 619 842 q 363 755 435 842 q 292 497 292 668 q 579 158 292 158 q 669 165 631 158 q 757 189 708 172 m 460 1092 q 454 1134 456 1114 q 453 1175 453 1154 q 454 1215 453 1194 q 460 1258 456 1236 q 506 1265 482 1263 q 550 1267 531 1267 q 596 1265 571 1267 q 643 1258 621 1263 q 648 1216 647 1236 q 649 1175 649 1196 q 648 1135 649 1156 q 643 1092 647 1114 q 597 1086 621 1088 q 551 1085 572 1085 q 507 1086 532 1085 q 460 1092 482 1088 z "},"ċ":{"ha":660,"x_min":57,"x_max":618,"o":"m 579 169 q 607 105 596 142 q 618 18 618 68 q 514 -10 563 -4 q 413 -17 465 -17 q 256 12 322 -17 q 145 90 189 40 q 79 209 101 140 q 57 358 57 278 q 78 506 57 438 q 144 625 100 574 q 253 706 188 676 q 404 735 318 735 q 460 733 435 735 q 510 728 486 732 q 557 717 533 724 q 610 699 581 710 q 601 627 610 667 q 575 551 593 588 q 502 570 533 565 q 431 575 471 575 q 301 519 344 575 q 257 358 257 463 q 304 194 257 246 q 432 143 351 143 q 470 144 453 143 q 504 147 488 144 q 538 156 521 150 q 579 169 556 161 m 290 839 q 282 932 282 886 q 290 1025 282 976 q 341 1031 314 1029 q 390 1033 368 1033 q 442 1031 414 1033 q 493 1025 469 1029 q 499 978 497 1001 q 500 932 500 956 q 499 886 500 910 q 493 839 497 863 q 442 833 469 835 q 392 832 415 832 q 342 833 369 832 q 290 839 314 835 z "},"Č":{"ha":858,"x_min":72,"x_max":804,"o":"m 757 189 q 787 109 775 150 q 804 26 799 68 q 674 -8 732 0 q 550 -17 617 -17 q 343 22 432 -17 q 194 128 254 60 q 103 292 133 197 q 72 497 72 386 q 104 703 72 608 q 197 868 136 799 q 345 976 257 938 q 546 1015 433 1015 q 669 1007 613 1015 q 790 972 725 999 q 774 891 788 931 q 743 811 760 851 q 657 835 694 828 q 568 842 619 842 q 363 755 435 842 q 292 497 292 668 q 579 158 292 158 q 669 165 631 158 q 757 189 708 172 m 643 1083 q 592 1078 622 1081 q 522 1075 561 1075 q 454 1078 485 1075 q 401 1083 424 1081 l 254 1228 q 301 1234 274 1232 q 354 1236 328 1236 q 410 1234 378 1236 q 458 1228 442 1232 l 524 1158 l 586 1228 q 608 1232 594 1231 q 638 1234 622 1233 q 668 1235 653 1235 q 696 1236 683 1236 q 747 1234 722 1236 q 790 1228 771 1232 l 643 1083 z "},"č":{"ha":660,"x_min":57,"x_max":631,"o":"m 579 169 q 607 105 596 142 q 618 18 618 68 q 514 -10 563 -4 q 413 -17 465 -17 q 256 12 322 -17 q 145 90 189 40 q 79 209 101 140 q 57 358 57 278 q 78 506 57 438 q 144 625 100 574 q 253 706 188 676 q 404 735 318 735 q 460 733 435 735 q 510 728 486 732 q 557 717 533 724 q 610 699 581 710 q 601 627 610 667 q 575 551 593 588 q 502 570 533 565 q 431 575 471 575 q 301 519 344 575 q 257 358 257 463 q 304 194 257 246 q 432 143 351 143 q 470 144 453 143 q 504 147 488 144 q 538 156 521 150 q 579 169 556 161 m 494 825 q 439 820 471 822 q 378 818 407 818 q 331 820 360 818 q 275 826 303 821 l 140 997 q 225 1006 172 1006 q 277 1004 249 1006 q 329 996 306 1001 l 386 907 l 442 996 q 485 1004 460 1001 q 536 1006 511 1006 q 631 997 592 1006 l 494 825 z "},"Ď":{"ha":972,"x_min":101,"x_max":901,"o":"m 101 999 q 224 1010 160 1006 q 365 1015 288 1015 q 765 885 628 1015 q 901 493 901 754 q 763 107 901 231 q 350 -17 624 -17 q 219 -12 279 -17 q 101 0 160 -7 l 101 999 m 306 161 q 338 158 318 160 q 385 157 357 157 q 503 172 449 157 q 599 225 558 186 q 663 329 639 264 q 686 497 686 394 q 663 664 686 597 q 599 769 639 731 q 506 824 558 808 q 396 840 454 840 q 351 840 376 840 q 306 836 325 839 l 306 161 m 161 1229 q 208 1235 181 1233 q 261 1238 235 1238 q 317 1235 285 1238 q 365 1229 349 1233 l 431 1160 l 493 1229 q 515 1233 501 1231 q 544 1235 529 1235 q 575 1237 560 1236 q 603 1238 590 1238 q 653 1235 629 1238 q 697 1229 678 1233 l 550 1085 q 499 1079 529 1082 q 429 1076 468 1076 q 361 1079 392 1076 q 308 1085 331 1082 l 161 1229 z "},"ď":{"ha":1008,"x_min":57,"x_max":1022,"o":"m 528 1015 q 577 1021 553 1019 q 625 1022 601 1022 q 674 1021 649 1022 q 724 1015 699 1019 l 724 24 q 591 -6 658 4 q 428 -17 524 -17 q 287 3 354 -17 q 168 67 219 24 q 87 181 117 111 q 57 350 57 250 q 83 499 57 429 q 156 621 108 569 q 272 702 204 672 q 424 732 340 732 q 476 730 449 732 q 528 721 503 728 l 528 1015 m 528 569 q 483 578 500 576 q 439 581 465 581 q 359 562 393 581 q 303 512 325 543 q 270 438 281 481 q 260 350 260 396 q 274 253 260 293 q 312 190 288 214 q 369 156 336 167 q 442 146 403 146 q 485 148 465 146 q 528 157 504 150 l 528 569 m 847 1004 q 931 1013 885 1013 q 976 1010 951 1013 q 1022 1004 1000 1008 l 990 721 q 924 713 958 713 q 885 715 906 713 q 847 721 865 717 l 847 1004 z "},"Đ":{"ha":974,"x_min":0,"x_max":903,"o":"m 103 453 l 8 453 q 0 522 0 488 q 8 593 0 557 l 103 593 l 103 999 q 225 1010 161 1006 q 367 1015 289 1015 q 766 885 629 1015 q 903 493 903 754 q 764 107 903 231 q 351 -17 625 -17 q 221 -12 281 -17 q 103 0 161 -7 l 103 453 m 307 161 q 339 158 319 160 q 386 157 358 157 q 505 172 450 157 q 600 225 560 186 q 664 329 640 264 q 688 497 688 394 q 664 664 688 597 q 600 769 640 731 q 508 824 560 808 q 397 840 456 840 q 352 840 378 840 q 307 836 326 839 l 307 593 l 500 593 q 508 524 508 557 q 500 453 508 488 l 307 453 l 307 161 z "},"đ":{"ha":829,"x_min":57,"x_max":815,"o":"m 528 800 l 347 800 q 341 829 343 814 q 339 858 339 844 q 341 888 339 872 q 347 918 343 904 l 528 918 l 528 1015 q 577 1021 553 1019 q 625 1022 601 1022 q 674 1021 649 1022 q 724 1015 699 1019 l 724 918 l 807 918 q 815 860 815 890 q 813 830 815 846 q 807 800 811 814 l 724 800 l 724 24 q 591 -6 658 4 q 428 -17 524 -17 q 287 3 354 -17 q 168 67 219 24 q 87 181 117 111 q 57 350 57 250 q 83 499 57 429 q 156 621 108 569 q 272 702 204 672 q 424 732 340 732 q 476 730 449 732 q 528 721 503 728 l 528 800 m 528 569 q 483 578 500 576 q 439 581 465 581 q 359 562 393 581 q 303 512 325 543 q 270 438 281 481 q 260 350 260 396 q 274 253 260 293 q 312 190 288 214 q 369 156 336 167 q 442 146 403 146 q 485 148 465 146 q 528 157 504 150 l 528 569 z "},"Ē":{"ha":738,"x_min":97,"x_max":682,"o":"m 97 999 l 664 999 q 672 914 672 957 q 664 826 672 868 l 300 826 l 300 610 l 589 610 q 597 524 597 565 q 589 436 597 479 l 300 436 l 300 172 l 674 172 q 682 88 682 131 q 674 0 682 42 l 97 0 l 97 999 m 614 1233 q 622 1164 622 1197 q 614 1093 622 1128 l 163 1093 q 154 1163 154 1128 q 163 1233 154 1197 l 614 1233 z "},"ē":{"ha":781,"x_min":60,"x_max":722,"o":"m 254 299 q 313 178 260 215 q 451 140 365 140 q 548 149 499 140 q 642 175 597 158 q 668 108 657 147 q 681 25 679 69 q 436 -17 572 -17 q 265 11 336 -17 q 148 88 193 39 q 81 206 103 138 q 60 354 60 274 q 82 503 60 433 q 148 624 104 572 q 256 705 192 675 q 407 735 321 735 q 540 708 482 735 q 640 636 599 682 q 701 527 681 590 q 722 392 722 464 q 720 340 722 365 q 715 299 718 314 l 254 299 m 536 436 q 499 544 533 503 q 404 585 465 585 q 299 546 335 585 q 256 436 263 507 l 536 436 m 592 982 q 600 913 600 946 q 592 842 600 876 l 224 842 q 215 911 215 876 q 224 982 215 946 l 592 982 z "},"Ĕ":{"ha":738,"x_min":97,"x_max":682,"o":"m 97 999 l 664 999 q 672 914 672 957 q 664 826 672 868 l 300 826 l 300 610 l 589 610 q 597 524 597 565 q 589 436 597 479 l 300 436 l 300 172 l 674 172 q 682 88 682 131 q 674 0 682 42 l 97 0 l 97 999 m 144 1242 q 187 1249 167 1247 q 226 1251 207 1251 q 306 1240 265 1251 q 324 1199 308 1218 q 389 1181 339 1181 q 454 1199 439 1181 q 472 1240 469 1218 q 558 1251 517 1251 q 635 1242 596 1251 q 603 1149 629 1183 q 541 1098 576 1115 q 465 1076 506 1081 q 389 1071 424 1071 q 314 1076 354 1071 q 238 1098 274 1081 q 176 1149 201 1115 q 144 1242 150 1183 z "},"ĕ":{"ha":781,"x_min":60,"x_max":722,"o":"m 254 299 q 313 178 260 215 q 451 140 365 140 q 548 149 499 140 q 642 175 597 158 q 668 108 657 147 q 681 25 679 69 q 436 -17 572 -17 q 265 11 336 -17 q 148 88 193 39 q 81 206 103 138 q 60 354 60 274 q 82 503 60 433 q 148 624 104 572 q 256 705 192 675 q 407 735 321 735 q 540 708 482 735 q 640 636 599 682 q 701 527 681 590 q 722 392 722 464 q 720 340 722 365 q 715 299 718 314 l 254 299 m 536 436 q 499 544 533 503 q 404 585 465 585 q 299 546 335 585 q 256 436 263 507 l 536 436 m 156 997 q 197 1005 175 1003 q 238 1007 218 1007 q 277 1004 258 1007 q 317 996 296 1001 q 322 973 318 985 q 333 951 325 961 q 356 934 342 940 q 396 928 371 928 q 435 934 421 928 q 458 951 450 940 q 470 973 467 961 q 475 996 474 985 q 518 1004 499 1001 q 560 1007 538 1007 q 598 1005 578 1007 q 638 997 618 1003 q 606 902 632 939 q 546 844 581 865 q 471 815 511 822 q 396 807 431 807 q 322 815 361 807 q 247 844 282 822 q 186 902 211 865 q 156 997 161 939 z "},"Ė":{"ha":738,"x_min":97,"x_max":682,"o":"m 97 999 l 664 999 q 672 914 672 957 q 664 826 672 868 l 300 826 l 300 610 l 589 610 q 597 524 597 565 q 589 436 597 479 l 300 436 l 300 172 l 674 172 q 682 88 682 131 q 674 0 682 42 l 97 0 l 97 999 m 306 1092 q 300 1134 301 1114 q 299 1175 299 1154 q 300 1215 299 1194 q 306 1258 301 1236 q 352 1265 328 1263 q 396 1267 376 1267 q 442 1265 417 1267 q 489 1258 467 1263 q 494 1216 493 1236 q 494 1175 494 1196 q 494 1135 494 1156 q 489 1092 493 1114 q 442 1086 467 1088 q 397 1085 418 1085 q 353 1086 378 1085 q 306 1092 328 1088 z "},"ė":{"ha":781,"x_min":60,"x_max":722,"o":"m 254 299 q 313 178 260 215 q 451 140 365 140 q 548 149 499 140 q 642 175 597 158 q 668 108 657 147 q 681 25 679 69 q 436 -17 572 -17 q 265 11 336 -17 q 148 88 193 39 q 81 206 103 138 q 60 354 60 274 q 82 503 60 433 q 148 624 104 572 q 256 705 192 675 q 407 735 321 735 q 540 708 482 735 q 640 636 599 682 q 701 527 681 590 q 722 392 722 464 q 720 340 722 365 q 715 299 718 314 l 254 299 m 536 436 q 499 544 533 503 q 404 585 465 585 q 299 546 335 585 q 256 436 263 507 l 536 436 m 308 839 q 300 932 300 886 q 308 1025 300 976 q 359 1031 332 1029 q 408 1033 386 1033 q 460 1031 432 1033 q 511 1025 488 1029 q 517 978 515 1001 q 518 932 518 956 q 517 886 518 910 q 511 839 515 863 q 460 833 488 835 q 410 832 433 832 q 360 833 388 832 q 308 839 332 835 z "},"Ę":{"ha":738,"x_min":97,"x_max":688,"o":"m 97 999 l 664 999 q 672 914 672 957 q 664 826 672 868 l 300 826 l 300 610 l 589 610 q 597 524 597 565 q 589 436 597 479 l 300 436 l 300 172 l 674 172 q 682 88 682 131 q 674 0 682 42 q 572 -72 610 -31 q 533 -164 533 -114 q 549 -206 533 -192 q 592 -221 564 -221 q 615 -219 599 -221 q 660 -208 632 -217 q 681 -258 675 -228 q 688 -317 688 -289 q 634 -330 668 -324 q 557 -336 600 -336 q 488 -330 522 -336 q 425 -307 453 -324 q 380 -262 397 -290 q 363 -193 363 -235 q 401 -87 363 -133 q 496 0 439 -40 l 97 0 l 97 999 z "},"ę":{"ha":781,"x_min":60,"x_max":722,"o":"m 436 -17 q 265 11 336 -17 q 148 88 193 39 q 81 206 103 138 q 60 354 60 274 q 82 503 60 433 q 148 624 104 572 q 256 705 192 675 q 407 735 321 735 q 540 708 482 735 q 640 636 599 682 q 701 527 681 590 q 722 392 722 464 q 720 340 722 365 q 715 299 718 314 l 254 299 q 313 178 260 215 q 451 140 365 140 q 548 149 499 140 q 642 175 597 158 q 668 108 657 147 q 681 25 679 69 q 560 -67 597 -18 q 524 -158 524 -117 q 542 -207 524 -190 q 589 -224 560 -224 q 610 -222 597 -224 q 646 -212 622 -221 q 666 -262 660 -231 q 672 -318 672 -293 q 617 -331 653 -325 q 540 -336 581 -336 q 472 -329 506 -336 q 411 -306 438 -322 q 368 -262 385 -289 q 351 -196 351 -236 q 383 -103 351 -151 q 464 -17 415 -56 l 436 -17 m 536 436 q 499 544 533 503 q 404 585 465 585 q 299 546 335 585 q 256 436 263 507 l 536 436 z "},"Ě":{"ha":738,"x_min":97,"x_max":682,"o":"m 97 999 l 664 999 q 672 914 672 957 q 664 826 672 868 l 300 826 l 300 610 l 589 610 q 597 524 597 565 q 589 436 597 479 l 300 436 l 300 172 l 674 172 q 682 88 682 131 q 674 0 682 42 l 97 0 l 97 999 m 117 1229 q 163 1235 136 1233 q 217 1238 190 1238 q 272 1235 240 1238 q 321 1229 304 1233 l 386 1160 l 449 1229 q 471 1233 457 1231 q 500 1235 485 1235 q 531 1237 515 1236 q 558 1238 546 1238 q 609 1235 585 1238 q 653 1229 633 1233 l 506 1085 q 454 1079 485 1082 q 385 1076 424 1076 q 317 1079 347 1076 q 264 1085 286 1082 l 117 1229 z "},"ě":{"ha":781,"x_min":60,"x_max":722,"o":"m 254 299 q 313 178 260 215 q 451 140 365 140 q 548 149 499 140 q 642 175 597 158 q 668 108 657 147 q 681 25 679 69 q 436 -17 572 -17 q 265 11 336 -17 q 148 88 193 39 q 81 206 103 138 q 60 354 60 274 q 82 503 60 433 q 148 624 104 572 q 256 705 192 675 q 407 735 321 735 q 540 708 482 735 q 640 636 599 682 q 701 527 681 590 q 722 392 722 464 q 720 340 722 365 q 715 299 718 314 l 254 299 m 536 436 q 499 544 533 503 q 404 585 465 585 q 299 546 335 585 q 256 436 263 507 l 536 436 m 151 997 q 236 1006 182 1006 q 288 1003 260 1006 q 340 996 317 1001 l 397 907 l 453 996 q 497 1003 471 1001 q 547 1006 522 1006 q 642 997 601 1006 l 506 825 q 450 820 482 822 q 389 818 418 818 q 342 819 371 818 q 286 826 314 821 l 151 997 z "},"Ĝ":{"ha":928,"x_min":71,"x_max":847,"o":"m 646 518 q 746 526 697 526 q 847 518 794 526 l 847 28 q 697 -8 775 1 q 560 -17 618 -17 q 346 22 438 -17 q 193 128 254 60 q 101 292 132 197 q 71 497 71 386 q 103 703 71 608 q 195 868 135 799 q 344 976 256 938 q 544 1015 432 1015 q 669 1007 611 1015 q 789 972 726 999 q 772 891 786 931 q 742 811 758 851 q 656 835 693 828 q 567 842 618 842 q 362 755 433 842 q 290 497 290 668 q 361 242 290 326 q 569 158 432 158 q 612 161 593 158 q 646 167 631 164 l 646 518 m 408 1229 q 460 1235 429 1232 q 529 1238 490 1238 q 597 1235 567 1238 q 650 1229 628 1232 l 797 1085 q 751 1078 778 1081 q 697 1076 724 1076 q 642 1078 674 1076 q 593 1085 610 1081 l 528 1154 l 465 1085 q 443 1081 457 1082 q 414 1078 429 1079 q 383 1077 399 1078 q 356 1076 368 1076 q 305 1078 329 1076 q 261 1085 281 1081 l 408 1229 z "},"ĝ":{"ha":786,"x_min":46,"x_max":781,"o":"m 500 119 q 686 63 626 117 q 746 -89 746 10 q 715 -195 746 -147 q 632 -276 685 -243 q 507 -328 579 -310 q 351 -346 435 -346 q 210 -333 268 -346 q 115 -296 151 -319 q 62 -237 78 -272 q 46 -161 46 -203 q 76 -58 46 -99 q 156 13 106 -18 q 105 60 124 32 q 86 133 86 89 q 108 219 86 186 q 174 283 131 253 q 99 368 125 318 q 72 479 72 418 q 93 580 72 533 q 153 660 114 626 q 250 714 193 694 q 378 733 307 733 q 506 712 447 733 q 603 657 564 690 q 668 709 629 692 q 774 726 707 726 q 778 691 776 708 q 781 654 781 674 q 779 610 781 632 q 774 564 778 588 l 661 564 q 674 531 668 550 q 679 479 679 511 q 659 378 679 425 q 600 299 639 332 q 505 246 561 265 q 378 226 449 226 q 271 239 318 226 q 242 206 247 224 q 236 174 236 189 q 251 138 236 151 q 310 122 265 124 l 500 119 m 322 -25 q 272 -32 292 -24 q 240 -53 251 -40 q 223 -83 228 -67 q 218 -114 218 -99 q 258 -185 218 -167 q 364 -204 297 -204 q 505 -176 451 -204 q 558 -101 558 -149 q 555 -75 558 -87 q 542 -52 551 -62 q 515 -35 532 -42 q 468 -28 497 -28 l 322 -25 m 379 354 q 463 388 438 354 q 489 479 489 421 q 463 572 489 538 q 379 606 438 606 q 293 572 319 606 q 267 479 267 538 q 293 388 267 421 q 379 354 319 354 m 293 999 q 349 1003 317 1001 q 410 1006 381 1006 q 456 1004 428 1006 q 513 997 485 1003 l 647 826 q 563 818 615 818 q 510 820 539 818 q 458 828 482 822 l 401 917 l 346 828 q 302 820 328 822 q 251 818 276 818 q 157 826 196 818 l 293 999 z "},"Ğ":{"ha":928,"x_min":71,"x_max":847,"o":"m 646 518 q 746 526 697 526 q 847 518 794 526 l 847 28 q 697 -8 775 1 q 560 -17 618 -17 q 346 22 438 -17 q 193 128 254 60 q 101 292 132 197 q 71 497 71 386 q 103 703 71 608 q 195 868 135 799 q 344 976 256 938 q 544 1015 432 1015 q 669 1007 611 1015 q 789 972 726 999 q 772 891 786 931 q 742 811 758 851 q 656 835 693 828 q 567 842 618 842 q 362 755 433 842 q 290 497 290 668 q 361 242 290 326 q 569 158 432 158 q 612 161 593 158 q 646 167 631 164 l 646 518 m 286 1242 q 328 1249 308 1247 q 368 1251 349 1251 q 447 1240 407 1251 q 465 1199 450 1218 q 531 1181 481 1181 q 596 1199 581 1181 q 614 1240 611 1218 q 700 1251 658 1251 q 776 1242 738 1251 q 744 1149 771 1183 q 683 1098 718 1115 q 606 1076 647 1081 q 531 1071 565 1071 q 456 1076 496 1071 q 379 1098 415 1081 q 317 1149 343 1115 q 286 1242 292 1183 z "},"ğ":{"ha":786,"x_min":46,"x_max":781,"o":"m 500 119 q 686 63 626 117 q 746 -89 746 10 q 715 -195 746 -147 q 632 -276 685 -243 q 507 -328 579 -310 q 351 -346 435 -346 q 210 -333 268 -346 q 115 -296 151 -319 q 62 -237 78 -272 q 46 -161 46 -203 q 76 -58 46 -99 q 156 13 106 -18 q 105 60 124 32 q 86 133 86 89 q 108 219 86 186 q 174 283 131 253 q 99 368 125 318 q 72 479 72 418 q 93 580 72 533 q 153 660 114 626 q 250 714 193 694 q 378 733 307 733 q 506 712 447 733 q 603 657 564 690 q 668 709 629 692 q 774 726 707 726 q 778 691 776 708 q 781 654 781 674 q 779 610 781 632 q 774 564 778 588 l 661 564 q 674 531 668 550 q 679 479 679 511 q 659 378 679 425 q 600 299 639 332 q 505 246 561 265 q 378 226 449 226 q 271 239 318 226 q 242 206 247 224 q 236 174 236 189 q 251 138 236 151 q 310 122 265 124 l 500 119 m 322 -25 q 272 -32 292 -24 q 240 -53 251 -40 q 223 -83 228 -67 q 218 -114 218 -99 q 258 -185 218 -167 q 364 -204 297 -204 q 505 -176 451 -204 q 558 -101 558 -149 q 555 -75 558 -87 q 542 -52 551 -62 q 515 -35 532 -42 q 468 -28 497 -28 l 322 -25 m 379 354 q 463 388 438 354 q 489 479 489 421 q 463 572 489 538 q 379 606 438 606 q 293 572 319 606 q 267 479 267 538 q 293 388 267 421 q 379 354 319 354 m 154 997 q 195 1005 174 1003 q 236 1007 217 1007 q 276 1004 257 1007 q 315 996 294 1001 q 320 973 317 985 q 332 951 324 961 q 355 934 340 940 q 394 928 369 928 q 434 934 419 928 q 457 951 449 940 q 469 973 465 961 q 474 996 472 985 q 517 1004 497 1001 q 558 1007 536 1007 q 597 1005 576 1007 q 636 997 617 1003 q 605 902 631 939 q 544 844 579 865 q 469 815 510 822 q 394 807 429 807 q 320 815 360 807 q 245 844 281 822 q 185 902 210 865 q 154 997 160 939 z "},"Ġ":{"ha":928,"x_min":71,"x_max":847,"o":"m 646 518 q 746 526 697 526 q 847 518 794 526 l 847 28 q 697 -8 775 1 q 560 -17 618 -17 q 346 22 438 -17 q 193 128 254 60 q 101 292 132 197 q 71 497 71 386 q 103 703 71 608 q 195 868 135 799 q 344 976 256 938 q 544 1015 432 1015 q 669 1007 611 1015 q 789 972 726 999 q 772 891 786 931 q 742 811 758 851 q 656 835 693 828 q 567 842 618 842 q 362 755 433 842 q 290 497 290 668 q 361 242 290 326 q 569 158 432 158 q 612 161 593 158 q 646 167 631 164 l 646 518 m 446 1092 q 440 1134 442 1114 q 439 1175 439 1154 q 440 1215 439 1194 q 446 1258 442 1236 q 492 1265 468 1263 q 536 1267 517 1267 q 582 1265 557 1267 q 629 1258 607 1263 q 634 1216 633 1236 q 635 1175 635 1196 q 634 1135 635 1156 q 629 1092 633 1114 q 583 1086 607 1088 q 538 1085 558 1085 q 493 1086 518 1085 q 446 1092 468 1088 z "},"ġ":{"ha":786,"x_min":46,"x_max":781,"o":"m 500 119 q 686 63 626 117 q 746 -89 746 10 q 715 -195 746 -147 q 632 -276 685 -243 q 507 -328 579 -310 q 351 -346 435 -346 q 210 -333 268 -346 q 115 -296 151 -319 q 62 -237 78 -272 q 46 -161 46 -203 q 76 -58 46 -99 q 156 13 106 -18 q 105 60 124 32 q 86 133 86 89 q 108 219 86 186 q 174 283 131 253 q 99 368 125 318 q 72 479 72 418 q 93 580 72 533 q 153 660 114 626 q 250 714 193 694 q 378 733 307 733 q 506 712 447 733 q 603 657 564 690 q 668 709 629 692 q 774 726 707 726 q 778 691 776 708 q 781 654 781 674 q 779 610 781 632 q 774 564 778 588 l 661 564 q 674 531 668 550 q 679 479 679 511 q 659 378 679 425 q 600 299 639 332 q 505 246 561 265 q 378 226 449 226 q 271 239 318 226 q 242 206 247 224 q 236 174 236 189 q 251 138 236 151 q 310 122 265 124 l 500 119 m 322 -25 q 272 -32 292 -24 q 240 -53 251 -40 q 223 -83 228 -67 q 218 -114 218 -99 q 258 -185 218 -167 q 364 -204 297 -204 q 505 -176 451 -204 q 558 -101 558 -149 q 555 -75 558 -87 q 542 -52 551 -62 q 515 -35 532 -42 q 468 -28 497 -28 l 322 -25 m 379 354 q 463 388 438 354 q 489 479 489 421 q 463 572 489 538 q 379 606 438 606 q 293 572 319 606 q 267 479 267 538 q 293 388 267 421 q 379 354 319 354 m 283 839 q 275 932 275 886 q 283 1025 275 976 q 334 1031 307 1029 q 383 1033 361 1033 q 435 1031 407 1033 q 486 1025 463 1029 q 492 978 490 1001 q 493 932 493 956 q 492 886 493 910 q 486 839 490 863 q 435 833 463 835 q 385 832 408 832 q 335 833 363 832 q 283 839 307 835 z "},"Ģ":{"ha":928,"x_min":71,"x_max":847,"o":"m 646 518 q 746 526 697 526 q 847 518 794 526 l 847 28 q 697 -8 775 1 q 560 -17 618 -17 q 346 22 438 -17 q 193 128 254 60 q 101 292 132 197 q 71 497 71 386 q 103 703 71 608 q 195 868 135 799 q 344 976 256 938 q 544 1015 432 1015 q 669 1007 611 1015 q 789 972 726 999 q 772 891 786 931 q 742 811 758 851 q 656 835 693 828 q 567 842 618 842 q 362 755 433 842 q 290 497 290 668 q 361 242 290 326 q 569 158 432 158 q 612 161 593 158 q 646 167 631 164 l 646 518 m 456 -94 q 547 -85 499 -85 q 594 -87 571 -85 q 642 -94 618 -89 l 556 -329 q 481 -337 519 -337 q 397 -328 440 -337 l 456 -94 z "},"ģ":{"ha":786,"x_min":46,"x_max":781,"o":"m 500 119 q 686 63 626 117 q 746 -89 746 10 q 715 -195 746 -147 q 632 -276 685 -243 q 507 -328 579 -310 q 351 -346 435 -346 q 210 -333 268 -346 q 115 -296 151 -319 q 62 -237 78 -272 q 46 -161 46 -203 q 76 -58 46 -99 q 156 13 106 -18 q 105 60 124 32 q 86 133 86 89 q 108 219 86 186 q 174 283 131 253 q 99 368 125 318 q 72 479 72 418 q 93 580 72 533 q 153 660 114 626 q 250 714 193 694 q 378 733 307 733 q 506 712 447 733 q 603 657 564 690 q 668 709 629 692 q 774 726 707 726 q 778 691 776 708 q 781 654 781 674 q 779 610 781 632 q 774 564 778 588 l 661 564 q 674 531 668 550 q 679 479 679 511 q 659 378 679 425 q 600 299 639 332 q 505 246 561 265 q 378 226 449 226 q 271 239 318 226 q 242 206 247 224 q 236 174 236 189 q 251 138 236 151 q 310 122 265 124 l 500 119 m 322 -25 q 272 -32 292 -24 q 240 -53 251 -40 q 223 -83 228 -67 q 218 -114 218 -99 q 258 -185 218 -167 q 364 -204 297 -204 q 505 -176 451 -204 q 558 -101 558 -149 q 555 -75 558 -87 q 542 -52 551 -62 q 515 -35 532 -42 q 468 -28 497 -28 l 322 -25 m 379 354 q 463 388 438 354 q 489 479 489 421 q 463 572 489 538 q 379 606 438 606 q 293 572 319 606 q 267 479 267 538 q 293 388 267 421 q 379 354 319 354 m 415 999 q 497 1008 454 1008 q 585 999 542 1008 l 485 807 q 390 796 436 796 q 293 807 344 796 l 415 999 z "},"Ĥ":{"ha":938,"x_min":97,"x_max":840,"o":"m 97 999 q 199 1007 149 1007 q 301 999 249 1007 l 301 607 l 636 607 l 636 999 q 738 1007 688 1007 q 840 999 788 1007 l 840 0 q 739 -8 788 -8 q 636 0 688 -8 l 636 432 l 301 432 l 301 0 q 200 -8 249 -8 q 97 0 149 -8 l 97 999 m 347 1229 q 399 1235 368 1232 q 468 1238 429 1238 q 536 1235 506 1238 q 589 1229 567 1232 l 736 1085 q 690 1078 717 1081 q 636 1076 663 1076 q 581 1078 613 1076 q 532 1085 549 1081 l 467 1154 l 404 1085 q 382 1081 396 1082 q 353 1078 368 1079 q 322 1077 338 1078 q 294 1076 307 1076 q 244 1078 268 1076 q 200 1085 219 1081 l 347 1229 z "},"ĥ":{"ha":814,"x_min":76,"x_max":732,"o":"m 94 1015 q 143 1021 118 1019 q 192 1022 168 1022 q 240 1021 215 1022 q 290 1015 265 1019 l 290 633 q 316 663 300 646 q 356 697 332 681 q 413 724 379 713 q 489 735 446 735 q 670 668 608 735 q 732 458 732 601 l 732 -1 q 682 -7 707 -6 q 633 -8 657 -8 q 585 -7 610 -8 q 535 -1 560 -6 l 535 406 q 511 521 535 481 q 431 561 488 561 q 382 554 407 561 q 337 527 357 547 q 303 471 317 507 q 290 376 290 435 l 290 -1 q 240 -7 265 -6 q 192 -8 215 -8 q 144 -7 168 -8 q 94 -1 119 -6 l 94 1015 m 213 1267 q 268 1272 236 1269 q 329 1274 300 1274 q 376 1272 347 1274 q 432 1265 404 1271 l 567 1094 q 482 1086 535 1086 q 430 1088 458 1086 q 378 1096 401 1090 l 321 1185 l 265 1096 q 222 1088 247 1090 q 171 1086 196 1086 q 76 1094 115 1086 l 213 1267 z "},"Ħ":{"ha":993,"x_min":28,"x_max":965,"o":"m 125 736 l 36 736 q 28 806 28 771 q 36 876 28 840 l 125 876 l 125 999 q 226 1007 176 1007 q 329 999 276 1007 l 329 876 l 664 876 l 664 999 q 765 1007 715 1007 q 868 999 815 1007 l 868 876 l 957 876 q 965 807 965 840 q 957 736 965 771 l 868 736 l 868 0 q 767 -8 815 -8 q 664 0 715 -8 l 664 432 l 329 432 l 329 0 q 228 -8 276 -8 q 125 0 176 -8 l 125 736 m 664 607 l 664 736 l 329 736 l 329 607 l 664 607 z "},"ħ":{"ha":826,"x_min":14,"x_max":744,"o":"m 107 800 l 22 800 q 16 829 18 814 q 14 858 14 844 q 16 888 14 872 q 22 918 18 904 l 107 918 l 107 1015 q 156 1021 131 1019 q 204 1022 181 1022 q 253 1021 228 1022 q 303 1015 278 1019 l 303 918 l 482 918 q 490 860 490 890 q 488 830 490 846 q 482 800 486 814 l 303 800 l 303 633 q 328 663 313 646 q 368 697 344 681 q 425 724 392 713 q 501 735 458 735 q 683 668 621 735 q 744 458 744 601 l 744 -1 q 694 -7 719 -6 q 646 -8 669 -8 q 597 -7 622 -8 q 547 -1 572 -6 l 547 406 q 524 521 547 481 q 443 561 500 561 q 394 554 419 561 q 349 527 369 547 q 316 471 329 507 q 303 376 303 435 l 303 -1 q 253 -7 278 -6 q 204 -8 228 -8 q 156 -7 181 -8 q 107 -1 132 -6 l 107 800 z "},"Ĩ":{"ha":399,"x_min":-64,"x_max":463,"o":"m 97 999 q 199 1007 149 1007 q 301 999 249 1007 l 301 0 q 200 -8 249 -8 q 97 0 149 -8 l 97 999 m -64 1199 q 1 1253 -40 1229 q 94 1276 42 1276 q 147 1267 121 1276 q 197 1248 172 1258 q 248 1228 222 1238 q 301 1219 274 1219 q 348 1228 326 1219 q 400 1267 369 1238 q 463 1161 446 1218 q 399 1108 439 1131 q 310 1086 358 1086 q 253 1095 281 1086 q 199 1115 225 1104 q 147 1134 172 1125 q 96 1143 121 1143 q 48 1133 68 1143 q -3 1096 28 1124 q -40 1145 -24 1121 q -64 1199 -57 1169 z "},"ĩ":{"ha":426,"x_min":-44,"x_max":460,"o":"m 136 568 l 43 568 q 37 606 39 586 q 35 644 35 626 q 43 718 35 682 l 329 718 l 329 0 q 232 -8 279 -8 q 136 0 186 -8 l 136 568 m -44 940 q 17 992 -21 971 q 107 1014 56 1014 q 158 1006 133 1014 q 206 990 182 999 q 254 973 229 981 q 306 965 279 965 q 350 972 329 965 q 400 1008 371 979 q 438 956 422 985 q 460 897 453 926 q 397 847 436 867 q 307 826 358 826 q 256 834 281 826 q 206 851 231 842 q 158 867 182 860 q 108 875 133 875 q 63 867 82 875 q 14 832 43 860 q -22 884 -6 857 q -44 940 -39 911 z "},"Ī":{"ha":399,"x_min":-33,"x_max":435,"o":"m 97 999 q 199 1007 149 1007 q 301 999 249 1007 l 301 0 q 200 -8 249 -8 q 97 0 149 -8 l 97 999 m 426 1233 q 435 1164 435 1197 q 426 1093 435 1128 l -25 1093 q -33 1163 -33 1128 q -25 1233 -33 1197 l 426 1233 z "},"ī":{"ha":426,"x_min":-6,"x_max":379,"o":"m 136 568 l 43 568 q 37 606 39 586 q 35 644 35 626 q 43 718 35 682 l 329 718 l 329 0 q 232 -8 279 -8 q 136 0 186 -8 l 136 568 m 371 982 q 379 913 379 946 q 371 842 379 876 l 3 842 q -6 911 -6 876 q 3 982 -6 946 l 371 982 z "},"Ĭ":{"ha":399,"x_min":-44,"x_max":446,"o":"m 97 999 q 199 1007 149 1007 q 301 999 249 1007 l 301 0 q 200 -8 249 -8 q 97 0 149 -8 l 97 999 m -44 1242 q -2 1249 -22 1247 q 38 1251 18 1251 q 117 1240 76 1251 q 135 1199 119 1218 q 200 1181 150 1181 q 265 1199 250 1181 q 283 1240 281 1218 q 369 1251 328 1251 q 446 1242 407 1251 q 414 1149 440 1183 q 352 1098 388 1115 q 276 1076 317 1081 q 200 1071 235 1071 q 125 1076 165 1071 q 49 1098 85 1081 q -13 1149 13 1115 q -44 1242 -39 1183 z "},"ĭ":{"ha":426,"x_min":-36,"x_max":446,"o":"m 136 568 l 43 568 q 37 606 39 586 q 35 644 35 626 q 43 718 35 682 l 329 718 l 329 0 q 232 -8 279 -8 q 136 0 186 -8 l 136 568 m -36 997 q 5 1005 -17 1003 q 46 1007 26 1007 q 85 1004 67 1007 q 125 996 104 1001 q 130 973 126 985 q 142 951 133 961 q 165 934 150 940 q 204 928 179 928 q 244 934 229 928 q 267 951 258 940 q 278 973 275 961 q 283 996 282 985 q 326 1004 307 1001 q 368 1007 346 1007 q 406 1005 386 1007 q 446 997 426 1003 q 415 902 440 939 q 354 844 389 865 q 279 815 319 822 q 204 807 239 807 q 130 815 169 807 q 55 844 90 822 q -6 902 19 865 q -36 997 -31 939 z "},"Į":{"ha":399,"x_min":-3,"x_max":322,"o":"m 97 999 q 199 1007 149 1007 q 301 999 249 1007 l 301 0 q 206 -74 243 -33 q 168 -164 168 -114 q 183 -206 168 -192 q 226 -221 199 -221 q 250 -219 233 -221 q 294 -208 267 -217 q 316 -258 310 -228 q 322 -317 322 -289 q 269 -330 303 -324 q 192 -336 235 -336 q 122 -330 157 -336 q 60 -307 88 -324 q 15 -262 32 -290 q -3 -193 -3 -235 q 34 -90 -3 -135 q 125 -4 71 -44 l 97 0 l 97 999 z "},"į":{"ha":426,"x_min":33,"x_max":354,"o":"m 136 568 l 43 568 q 37 606 39 586 q 35 644 35 626 q 43 718 35 682 l 329 718 l 329 0 q 238 -74 271 -31 q 206 -158 206 -117 q 265 -224 206 -224 q 289 -222 274 -224 q 328 -212 304 -221 q 348 -262 342 -231 q 354 -318 354 -293 q 299 -331 335 -325 q 222 -336 263 -336 q 153 -329 188 -336 q 93 -306 119 -322 q 50 -262 67 -289 q 33 -196 33 -236 q 70 -96 33 -147 q 163 -4 107 -44 l 136 0 l 136 568 m 107 839 q 99 932 99 886 q 107 1025 99 976 q 158 1031 131 1029 q 207 1033 185 1033 q 258 1031 231 1033 q 310 1025 286 1029 q 315 978 314 1001 q 317 932 317 956 q 315 886 317 910 q 310 839 314 863 q 259 833 286 835 q 208 832 232 832 q 158 833 186 832 q 107 839 131 835 z "},"İ":{"ha":399,"x_min":97,"x_max":301,"o":"m 97 999 q 199 1007 149 1007 q 301 999 249 1007 l 301 0 q 200 -8 249 -8 q 97 0 149 -8 l 97 999 m 110 1092 q 104 1134 106 1114 q 103 1175 103 1154 q 104 1215 103 1194 q 110 1258 106 1236 q 156 1265 132 1263 q 200 1267 181 1267 q 246 1265 221 1267 q 293 1258 271 1263 q 298 1216 297 1236 q 299 1175 299 1196 q 298 1135 299 1156 q 293 1092 297 1114 q 247 1086 271 1088 q 201 1085 222 1085 q 157 1086 182 1085 q 110 1092 132 1088 z "},"ı":{"ha":426,"x_min":35,"x_max":329,"o":"m 136 568 l 43 568 q 37 606 39 586 q 35 644 35 626 q 43 718 35 682 l 329 718 l 329 0 q 232 -8 279 -8 q 136 0 186 -8 l 136 568 z "},"Ĳ":{"ha":968,"x_min":97,"x_max":878,"o":"m 97 999 q 199 1007 149 1007 q 301 999 249 1007 l 301 0 q 200 -8 249 -8 q 97 0 149 -8 l 97 999 m 675 826 l 510 826 q 503 869 506 846 q 501 914 501 892 q 510 999 501 958 l 878 999 l 878 265 q 853 135 878 189 q 787 48 829 82 q 687 -1 744 14 q 561 -17 629 -17 q 502 -12 538 -17 q 435 0 467 -8 q 433 19 433 10 q 432 40 432 29 q 456 168 432 104 q 489 161 471 165 q 526 157 507 157 q 576 160 550 157 q 624 176 603 163 q 660 217 646 190 q 675 294 675 244 l 675 826 z "},"ĳ":{"ha":853,"x_min":35,"x_max":756,"o":"m 136 568 l 43 568 q 37 606 39 586 q 35 644 35 626 q 43 718 35 682 l 329 718 l 329 0 q 232 -8 279 -8 q 136 0 186 -8 l 136 568 m 107 839 q 99 932 99 886 q 107 1025 99 976 q 158 1031 131 1029 q 207 1033 185 1033 q 258 1031 231 1033 q 310 1025 286 1029 q 315 978 314 1001 q 317 932 317 956 q 315 886 317 910 q 310 839 314 863 q 259 833 286 835 q 208 832 232 832 q 158 833 186 832 q 107 839 131 835 m 564 568 l 469 568 q 463 606 465 586 q 461 644 461 626 q 469 718 461 682 l 756 718 l 756 -15 q 689 -208 756 -149 q 496 -267 622 -267 q 425 -262 461 -267 q 358 -251 389 -258 q 364 -176 358 -211 q 383 -108 369 -140 q 417 -114 397 -111 q 456 -117 436 -117 q 498 -111 478 -117 q 533 -91 518 -106 q 556 -50 547 -76 q 564 19 564 -24 l 564 568 m 533 843 q 526 892 528 872 q 525 932 525 911 q 526 974 525 954 q 533 1021 528 993 q 587 1031 560 1028 q 635 1033 614 1033 q 682 1031 654 1033 q 735 1021 710 1028 q 742 974 740 993 q 743 932 743 954 q 742 892 743 911 q 735 843 740 872 q 682 834 710 836 q 635 832 654 832 q 587 834 614 832 q 533 843 560 836 z "},"Ĵ":{"ha":571,"x_min":35,"x_max":583,"o":"m 278 826 l 113 826 q 106 869 108 846 q 104 914 104 892 q 113 999 104 958 l 481 999 l 481 265 q 456 135 481 189 q 390 48 432 82 q 290 -1 347 14 q 164 -17 232 -17 q 105 -12 140 -17 q 38 0 69 -8 q 35 19 36 10 q 35 40 35 29 q 58 168 35 104 q 92 161 74 165 q 129 157 110 157 q 179 160 153 157 q 227 176 206 163 q 263 217 249 190 q 278 294 278 244 l 278 826 m 194 1229 q 246 1235 215 1232 q 315 1238 276 1238 q 383 1235 353 1238 q 436 1229 414 1232 l 583 1085 q 537 1078 564 1081 q 483 1076 510 1076 q 428 1078 460 1076 q 379 1085 396 1081 l 314 1154 l 251 1085 q 229 1081 243 1082 q 200 1078 215 1079 q 169 1077 185 1078 q 142 1076 154 1076 q 91 1078 115 1076 q 47 1085 67 1081 l 194 1229 z "},"ĵ":{"ha":426,"x_min":-69,"x_max":451,"o":"m 138 568 l 43 568 q 37 606 39 586 q 35 644 35 626 q 43 718 35 682 l 329 718 l 329 -15 q 263 -208 329 -149 q 69 -267 196 -267 q -1 -262 35 -267 q -68 -251 -37 -258 q -69 -240 -68 -244 q -69 -229 -69 -235 q -62 -166 -69 -196 q -43 -108 -54 -136 q -10 -114 -29 -111 q 29 -117 10 -117 q 72 -111 51 -117 q 106 -91 92 -106 q 129 -50 121 -76 q 138 19 138 -24 l 138 568 m 97 999 q 153 1003 121 1001 q 214 1006 185 1006 q 260 1004 232 1006 q 317 997 289 1003 l 451 826 q 367 818 419 818 q 315 820 343 818 q 263 828 286 822 l 206 917 l 150 828 q 106 820 132 822 q 56 818 81 818 q -39 826 0 818 l 97 999 z "},"Ķ":{"ha":860,"x_min":97,"x_max":846,"o":"m 329 503 l 600 999 q 659 1006 632 1004 q 708 1007 686 1007 q 761 1004 732 1007 q 822 999 790 1001 l 549 517 l 846 0 q 784 -6 814 -3 q 731 -8 754 -8 q 681 -7 708 -8 q 621 0 654 -6 l 329 503 m 97 1000 q 149 1006 124 1004 q 200 1007 174 1007 q 249 1006 224 1007 q 300 1000 274 1004 l 300 -1 q 249 -7 274 -6 q 199 -8 224 -8 q 149 -7 174 -8 q 97 -1 124 -6 l 97 1000 m 379 -94 q 471 -85 422 -85 q 518 -87 494 -85 q 565 -94 542 -89 l 479 -329 q 404 -337 443 -337 q 321 -328 364 -337 l 379 -94 z "},"ķ":{"ha":743,"x_min":85,"x_max":729,"o":"m 85 1015 q 182 1024 132 1024 q 281 1015 232 1024 l 281 0 q 182 -8 232 -8 q 85 0 132 -8 l 85 1015 m 308 376 l 486 718 q 596 726 540 726 q 699 718 649 726 l 515 386 l 729 0 q 619 -8 672 -8 q 517 0 571 -8 l 308 376 m 317 -94 q 411 -85 360 -85 q 460 -87 435 -85 q 508 -94 485 -89 l 418 -328 q 342 -337 379 -337 q 258 -328 301 -337 l 317 -94 z "},"ĸ":{"ha":757,"x_min":85,"x_max":743,"o":"m 85 726 q 182 735 132 735 q 281 726 232 735 l 281 0 q 182 -8 232 -8 q 85 0 132 -8 l 85 726 m 308 376 l 500 718 q 610 726 554 726 q 713 718 663 726 l 515 386 l 743 0 q 633 -8 686 -8 q 531 0 585 -8 l 308 376 z "},"Ĺ":{"ha":685,"x_min":97,"x_max":650,"o":"m 97 999 q 196 1007 149 1007 q 297 999 244 1007 l 297 175 l 643 175 q 649 130 647 151 q 650 89 650 108 q 649 45 650 67 q 643 0 647 24 l 97 0 l 97 999 m 233 1229 q 301 1236 264 1233 q 375 1239 338 1239 q 444 1236 411 1239 q 501 1229 478 1233 l 297 1085 q 247 1078 272 1079 q 199 1076 222 1076 q 97 1085 147 1076 l 233 1229 z "},"ĺ":{"ha":450,"x_min":89,"x_max":493,"o":"m 92 1015 q 190 1024 142 1024 q 288 1015 238 1024 l 288 286 q 292 217 288 243 q 308 176 297 190 q 335 156 318 161 q 376 150 351 150 q 401 151 388 150 q 426 156 414 153 q 442 44 442 99 q 442 24 442 33 q 439 4 442 15 q 385 -6 417 -3 q 328 -8 354 -8 q 156 51 221 -8 q 92 243 92 110 l 92 1015 m 225 1229 q 292 1236 256 1233 q 367 1239 329 1239 q 436 1236 403 1239 q 493 1229 469 1233 l 289 1085 q 239 1078 264 1079 q 190 1076 214 1076 q 89 1085 139 1076 l 225 1229 z "},"Ļ":{"ha":685,"x_min":97,"x_max":650,"o":"m 97 999 q 196 1007 149 1007 q 297 999 244 1007 l 297 175 l 643 175 q 649 130 647 151 q 650 89 650 108 q 649 45 650 67 q 643 0 647 24 l 97 0 l 97 999 m 300 -94 q 392 -85 343 -85 q 439 -87 415 -85 q 486 -94 463 -89 l 400 -329 q 325 -337 364 -337 q 242 -328 285 -337 l 300 -94 z "},"ļ":{"ha":450,"x_min":92,"x_max":442,"o":"m 92 1015 q 190 1024 142 1024 q 288 1015 238 1024 l 288 286 q 292 217 288 243 q 308 176 297 190 q 335 156 318 161 q 376 150 351 150 q 401 151 388 150 q 426 156 414 153 q 442 44 442 99 q 442 24 442 33 q 439 4 442 15 q 385 -6 417 -3 q 328 -8 354 -8 q 156 51 221 -8 q 92 243 92 110 l 92 1015 m 197 -94 q 292 -85 240 -85 q 340 -87 315 -85 q 389 -94 365 -89 l 299 -328 q 222 -337 260 -337 q 139 -328 182 -337 l 197 -94 z "},"Ľ":{"ha":656,"x_min":97,"x_max":650,"o":"m 97 999 q 196 1007 149 1007 q 297 999 244 1007 l 297 175 l 643 175 q 649 130 647 151 q 650 89 650 108 q 649 45 650 67 q 643 0 647 24 l 97 0 l 97 999 m 419 1000 q 503 1008 457 1008 q 548 1006 524 1008 q 594 1000 572 1004 l 563 717 q 496 708 531 708 q 458 710 478 708 q 419 717 438 713 l 419 1000 z "},"ľ":{"ha":589,"x_min":92,"x_max":586,"o":"m 92 1015 q 190 1024 142 1024 q 288 1015 238 1024 l 288 286 q 292 217 288 243 q 308 176 297 190 q 335 156 318 161 q 376 150 351 150 q 401 151 388 150 q 426 156 414 153 q 442 44 442 99 q 442 24 442 33 q 439 4 442 15 q 385 -6 417 -3 q 328 -8 354 -8 q 156 51 221 -8 q 92 243 92 110 l 92 1015 m 411 1015 q 494 1024 449 1024 q 540 1022 515 1024 q 586 1015 564 1019 l 554 732 q 488 724 522 724 q 449 726 469 724 q 411 732 429 728 l 411 1015 z "},"Ŀ":{"ha":685,"x_min":97,"x_max":650,"o":"m 97 999 q 196 1007 149 1007 q 297 999 244 1007 l 297 175 l 643 175 q 649 130 647 151 q 650 89 650 108 q 649 45 650 67 q 643 0 647 24 l 97 0 l 97 999 m 439 464 q 431 561 431 514 q 439 660 431 610 q 536 668 489 668 q 635 660 585 668 q 643 563 643 610 q 635 464 643 514 q 538 456 585 456 q 439 464 489 456 z "},"ŀ":{"ha":607,"x_min":92,"x_max":597,"o":"m 92 1015 q 190 1024 142 1024 q 288 1015 238 1024 l 288 286 q 292 217 288 243 q 308 176 297 190 q 335 156 318 161 q 376 150 351 150 q 401 151 388 150 q 426 156 414 153 q 442 44 442 99 q 442 24 442 33 q 439 4 442 15 q 385 -6 417 -3 q 328 -8 354 -8 q 156 51 221 -8 q 92 243 92 110 l 92 1015 m 393 432 q 385 529 385 482 q 393 628 385 578 q 490 636 443 636 q 589 628 539 636 q 597 531 597 578 q 589 432 597 482 q 492 424 539 424 q 393 432 443 424 z "},"Ł":{"ha":685,"x_min":3,"x_max":650,"o":"m 97 340 l 11 281 q 3 358 3 319 q 11 438 3 397 l 97 497 l 97 999 q 196 1007 149 1007 q 297 999 244 1007 l 297 636 l 474 758 q 482 681 482 718 q 474 601 482 640 l 297 479 l 297 175 l 643 175 q 649 130 647 151 q 650 89 650 108 q 649 45 650 67 q 643 0 647 24 l 97 0 l 97 340 z "},"ł":{"ha":453,"x_min":7,"x_max":444,"o":"m 94 406 l 15 351 q 7 432 7 390 q 9 472 7 453 q 15 510 11 490 l 94 564 l 94 1015 q 193 1024 144 1024 q 290 1015 240 1024 l 290 701 l 390 771 q 399 694 399 731 q 390 613 399 651 l 290 543 l 290 286 q 295 217 290 243 q 310 176 300 190 q 338 156 321 161 q 379 150 354 150 q 403 151 390 150 q 429 156 417 153 q 440 99 436 128 q 444 47 444 71 q 444 23 444 33 q 442 4 443 13 q 388 -6 419 -3 q 331 -8 357 -8 q 159 51 224 -8 q 94 243 94 110 l 94 406 z "},"Ń":{"ha":929,"x_min":97,"x_max":831,"o":"m 97 999 q 179 1007 140 1007 q 265 999 221 1007 l 651 363 l 651 999 q 747 1007 701 1007 q 831 999 790 1007 l 831 0 q 750 -8 786 -8 q 665 0 711 -8 l 276 635 l 276 0 q 186 -8 232 -8 q 97 0 140 -8 l 97 999 m 486 1229 q 553 1236 517 1233 q 628 1239 590 1239 q 697 1236 664 1239 q 754 1229 731 1233 l 550 1085 q 500 1078 525 1079 q 451 1076 475 1076 q 350 1085 400 1076 l 486 1229 z "},"ń":{"ha":815,"x_min":97,"x_max":733,"o":"m 97 718 q 136 724 117 722 q 179 726 156 726 q 221 724 203 726 q 258 718 239 722 q 266 698 263 711 q 272 670 269 685 q 277 642 275 656 q 281 618 279 628 q 314 660 294 639 q 359 697 333 681 q 417 724 385 714 q 488 735 449 735 q 672 668 610 735 q 733 458 733 601 l 733 0 q 635 -8 683 -8 q 536 0 586 -8 l 536 406 q 513 521 536 481 q 433 561 490 561 q 385 554 410 561 q 340 527 360 547 q 307 471 319 507 q 294 376 294 435 l 294 0 q 196 -8 244 -8 q 97 0 147 -8 l 97 718 m 443 999 q 568 1007 499 1007 q 630 1005 604 1007 q 683 999 656 1003 l 474 828 q 431 822 456 825 q 378 819 406 819 q 288 828 333 819 l 443 999 z "},"Ņ":{"ha":929,"x_min":97,"x_max":831,"o":"m 97 999 q 179 1007 140 1007 q 265 999 221 1007 l 651 363 l 651 999 q 747 1007 701 1007 q 831 999 790 1007 l 831 0 q 750 -8 786 -8 q 665 0 711 -8 l 276 635 l 276 0 q 186 -8 232 -8 q 97 0 140 -8 l 97 999 m 408 -94 q 500 -85 451 -85 q 547 -87 524 -85 q 594 -94 571 -89 l 508 -329 q 433 -337 472 -337 q 350 -328 393 -337 l 408 -94 z "},"ņ":{"ha":815,"x_min":97,"x_max":733,"o":"m 97 718 q 136 724 117 722 q 179 726 156 726 q 221 724 203 726 q 258 718 239 722 q 266 698 263 711 q 272 670 269 685 q 277 642 275 656 q 281 618 279 628 q 314 660 294 639 q 359 697 333 681 q 417 724 385 714 q 488 735 449 735 q 672 668 610 735 q 733 458 733 601 l 733 0 q 635 -8 683 -8 q 536 0 586 -8 l 536 406 q 513 521 536 481 q 433 561 490 561 q 385 554 410 561 q 340 527 360 547 q 307 471 319 507 q 294 376 294 435 l 294 0 q 196 -8 244 -8 q 97 0 147 -8 l 97 718 m 333 -94 q 428 -85 376 -85 q 476 -87 451 -85 q 525 -94 501 -89 l 435 -328 q 358 -337 396 -337 q 275 -328 318 -337 l 333 -94 z "},"Ň":{"ha":929,"x_min":97,"x_max":831,"o":"m 97 999 q 179 1007 140 1007 q 265 999 221 1007 l 651 363 l 651 999 q 747 1007 701 1007 q 831 999 790 1007 l 831 0 q 750 -8 786 -8 q 665 0 711 -8 l 276 635 l 276 0 q 186 -8 232 -8 q 97 0 140 -8 l 97 999 m 185 1229 q 231 1235 204 1233 q 285 1238 258 1238 q 340 1235 308 1238 q 389 1229 372 1233 l 454 1160 l 517 1229 q 539 1233 525 1231 q 568 1235 553 1235 q 599 1237 583 1236 q 626 1238 614 1238 q 677 1235 653 1238 q 721 1229 701 1233 l 574 1085 q 522 1079 553 1082 q 453 1076 492 1076 q 385 1079 415 1076 q 332 1085 354 1082 l 185 1229 z "},"ň":{"ha":815,"x_min":97,"x_max":733,"o":"m 97 718 q 136 724 117 722 q 179 726 156 726 q 221 724 203 726 q 258 718 239 722 q 266 698 263 711 q 272 670 269 685 q 277 642 275 656 q 281 618 279 628 q 314 660 294 639 q 359 697 333 681 q 417 724 385 714 q 488 735 449 735 q 672 668 610 735 q 733 458 733 601 l 733 0 q 635 -8 683 -8 q 536 0 586 -8 l 536 406 q 513 521 536 481 q 433 561 490 561 q 385 554 410 561 q 340 527 360 547 q 307 471 319 507 q 294 376 294 435 l 294 0 q 196 -8 244 -8 q 97 0 147 -8 l 97 718 m 164 997 q 249 1006 194 1006 q 301 1003 272 1006 q 353 996 329 1001 l 410 907 l 465 996 q 509 1003 483 1001 q 560 1006 535 1006 q 654 997 614 1006 l 518 825 q 463 820 494 822 q 401 818 431 818 q 355 819 383 818 q 299 826 326 821 l 164 997 z "},"ŉ":{"ha":833,"x_min":-33,"x_max":751,"o":"m 115 718 q 154 724 135 722 q 197 726 174 726 q 239 724 221 726 q 276 718 257 722 q 284 698 281 711 q 290 670 288 685 q 295 642 293 656 q 299 618 297 628 q 332 660 313 639 q 377 697 351 681 q 435 724 403 714 q 506 735 467 735 q 690 668 628 735 q 751 458 751 601 l 751 0 q 653 -8 701 -8 q 554 0 604 -8 l 554 406 q 531 521 554 481 q 451 561 508 561 q 403 554 428 561 q 358 527 378 547 q 325 471 338 507 q 313 376 313 435 l 313 0 q 214 -8 263 -8 q 115 0 165 -8 l 115 718 m 22 1015 q 64 1022 42 1019 q 108 1024 86 1024 q 156 1022 131 1024 q 200 1015 181 1019 l 122 796 q 83 790 103 792 q 43 789 64 789 q 4 790 22 789 q -33 796 -14 792 l 22 1015 z "},"Ŋ":{"ha":929,"x_min":97,"x_max":831,"o":"m 97 999 q 179 1007 140 1007 q 265 999 221 1007 l 651 363 l 651 999 q 747 1007 701 1007 q 831 999 790 1007 l 831 32 q 807 -108 831 -51 q 741 -201 783 -165 q 641 -251 699 -236 q 515 -267 583 -267 q 456 -262 492 -267 q 389 -250 421 -258 q 387 -231 388 -239 q 386 -214 386 -222 q 410 -92 386 -158 q 445 -99 425 -94 q 488 -104 465 -104 q 537 -101 508 -104 q 591 -85 565 -99 q 634 -44 617 -71 q 651 33 651 -17 l 651 47 l 276 635 l 276 0 q 186 -8 232 -8 q 97 0 140 -8 l 97 999 z "},"ŋ":{"ha":815,"x_min":97,"x_max":733,"o":"m 97 718 q 136 724 117 722 q 179 726 156 726 q 221 724 203 726 q 258 718 239 722 q 266 698 263 711 q 272 670 269 685 q 277 642 275 656 q 281 618 279 628 q 314 660 294 639 q 359 697 333 681 q 417 724 385 714 q 488 735 449 735 q 672 668 610 735 q 733 458 733 601 l 733 -15 q 666 -208 733 -149 q 472 -267 599 -267 q 401 -262 438 -267 q 335 -251 365 -258 q 340 -176 335 -211 q 360 -108 346 -140 q 393 -114 374 -111 q 432 -117 413 -117 q 474 -112 454 -117 q 508 -94 493 -107 q 531 -58 522 -81 q 539 3 539 -35 l 539 406 q 515 521 539 481 q 433 561 490 561 q 385 554 410 561 q 340 527 360 547 q 307 471 319 507 q 294 376 294 435 l 294 0 q 196 -8 244 -8 q 97 0 147 -8 l 97 718 z "},"Ō":{"ha":1008,"x_min":71,"x_max":938,"o":"m 504 -17 q 310 22 392 -17 q 175 130 228 61 q 97 292 122 199 q 71 497 71 386 q 97 703 71 608 q 175 868 122 799 q 310 976 228 938 q 504 1015 392 1015 q 699 976 617 1015 q 833 868 781 938 q 912 703 886 799 q 938 497 938 608 q 912 292 938 386 q 833 130 886 199 q 699 22 781 61 q 504 -17 617 -17 m 504 153 q 719 497 719 153 q 667 756 719 669 q 506 842 615 842 q 288 497 288 842 q 504 153 288 153 m 731 1233 q 739 1164 739 1197 q 731 1093 739 1128 l 279 1093 q 271 1163 271 1128 q 279 1233 271 1197 l 731 1233 z "},"ō":{"ha":806,"x_min":57,"x_max":747,"o":"m 401 -17 q 249 12 314 -17 q 142 91 185 40 q 78 210 100 142 q 57 357 57 278 q 78 506 57 436 q 142 626 100 575 q 249 706 185 676 q 401 735 314 735 q 554 706 489 735 q 663 626 619 676 q 726 506 706 575 q 747 357 747 436 q 726 210 747 278 q 663 91 706 142 q 554 12 619 40 q 401 -17 489 -17 m 401 133 q 513 191 479 133 q 547 357 547 249 q 513 523 547 465 q 401 581 479 581 q 291 523 325 581 q 257 357 257 465 q 291 191 257 249 q 401 133 325 133 m 586 982 q 594 913 594 946 q 586 842 594 876 l 218 842 q 210 911 210 876 q 218 982 210 946 l 586 982 z "},"Ŏ":{"ha":1008,"x_min":71,"x_max":938,"o":"m 504 -17 q 310 22 392 -17 q 175 130 228 61 q 97 292 122 199 q 71 497 71 386 q 97 703 71 608 q 175 868 122 799 q 310 976 228 938 q 504 1015 392 1015 q 699 976 617 1015 q 833 868 781 938 q 912 703 886 799 q 938 497 938 608 q 912 292 938 386 q 833 130 886 199 q 699 22 781 61 q 504 -17 617 -17 m 504 153 q 719 497 719 153 q 667 756 719 669 q 506 842 615 842 q 288 497 288 842 q 504 153 288 153 m 260 1242 q 302 1249 282 1247 q 342 1251 322 1251 q 421 1240 381 1251 q 439 1199 424 1218 q 504 1181 454 1181 q 569 1199 554 1181 q 588 1240 585 1218 q 674 1251 632 1251 q 750 1242 711 1251 q 718 1149 744 1183 q 656 1098 692 1115 q 580 1076 621 1081 q 504 1071 539 1071 q 429 1076 469 1071 q 353 1098 389 1081 q 291 1149 317 1115 q 260 1242 265 1183 z "},"ŏ":{"ha":806,"x_min":57,"x_max":747,"o":"m 401 -17 q 249 12 314 -17 q 142 91 185 40 q 78 210 100 142 q 57 357 57 278 q 78 506 57 436 q 142 626 100 575 q 249 706 185 676 q 401 735 314 735 q 554 706 489 735 q 663 626 619 676 q 726 506 706 575 q 747 357 747 436 q 726 210 747 278 q 663 91 706 142 q 554 12 619 40 q 401 -17 489 -17 m 401 133 q 513 191 479 133 q 547 357 547 249 q 513 523 547 465 q 401 581 479 581 q 291 523 325 581 q 257 357 257 465 q 291 191 257 249 q 401 133 325 133 m 161 997 q 202 1005 181 1003 q 243 1007 224 1007 q 283 1004 264 1007 q 322 996 301 1001 q 327 973 324 985 q 339 951 331 961 q 362 934 347 940 q 401 928 376 928 q 441 934 426 928 q 464 951 456 940 q 476 973 472 961 q 481 996 479 985 q 524 1004 504 1001 q 565 1007 543 1007 q 603 1005 583 1007 q 643 997 624 1003 q 612 902 638 939 q 551 844 586 865 q 476 815 517 822 q 401 807 436 807 q 327 815 367 807 q 252 844 288 822 q 192 902 217 865 q 161 997 167 939 z "},"Ő":{"ha":1008,"x_min":71,"x_max":938,"o":"m 504 -17 q 310 22 392 -17 q 175 130 228 61 q 97 292 122 199 q 71 497 71 386 q 97 703 71 608 q 175 868 122 799 q 310 976 228 938 q 504 1015 392 1015 q 699 976 617 1015 q 833 868 781 938 q 912 703 886 799 q 938 497 938 608 q 912 292 938 386 q 833 130 886 199 q 699 22 781 61 q 504 -17 617 -17 m 504 153 q 719 497 719 153 q 667 756 719 669 q 506 842 615 842 q 288 497 288 842 q 504 153 288 153 m 369 1229 q 430 1236 401 1235 q 485 1238 458 1238 q 535 1236 508 1238 q 593 1229 563 1235 l 431 1083 q 383 1077 410 1079 q 329 1075 357 1075 q 286 1076 310 1075 q 236 1083 263 1078 l 369 1229 m 686 1229 q 747 1236 718 1235 q 801 1238 775 1238 q 852 1236 825 1238 q 910 1229 879 1235 l 747 1083 q 700 1077 726 1079 q 646 1075 674 1075 q 603 1076 626 1075 q 553 1083 579 1078 l 686 1229 z "},"ő":{"ha":806,"x_min":57,"x_max":803,"o":"m 401 -17 q 249 12 314 -17 q 142 91 185 40 q 78 210 100 142 q 57 357 57 278 q 78 506 57 436 q 142 626 100 575 q 249 706 185 676 q 401 735 314 735 q 554 706 489 735 q 663 626 619 676 q 726 506 706 575 q 747 357 747 436 q 726 210 747 278 q 663 91 706 142 q 554 12 619 40 q 401 -17 489 -17 m 401 133 q 513 191 479 133 q 547 357 547 249 q 513 523 547 465 q 401 581 479 581 q 291 523 325 581 q 257 357 257 465 q 291 191 257 249 q 401 133 325 133 m 292 999 q 400 1007 346 1007 q 504 999 451 1007 l 324 828 q 281 822 306 825 q 229 819 257 819 q 140 828 186 819 l 292 999 m 590 999 q 699 1007 644 1007 q 803 999 750 1007 l 622 828 q 580 822 604 825 q 528 819 556 819 q 439 828 485 819 l 590 999 z "},"Œ":{"ha":1299,"x_min":67,"x_max":1243,"o":"m 1235 172 q 1243 88 1243 131 q 1235 0 1243 42 l 685 0 q 645 -8 667 -4 q 601 -13 624 -11 q 556 -16 578 -15 q 515 -17 533 -17 q 319 22 403 -17 q 178 130 235 61 q 94 292 122 199 q 67 497 67 386 q 94 703 67 608 q 178 868 122 799 q 319 976 235 938 q 515 1015 403 1015 q 598 1011 551 1015 q 678 999 644 1007 l 1225 999 q 1233 914 1233 957 q 1225 826 1233 868 l 861 826 l 861 610 l 1150 610 q 1158 524 1158 565 q 1150 436 1158 479 l 861 436 l 861 172 l 1235 172 m 658 824 q 598 837 631 832 q 517 842 565 842 q 345 756 407 842 q 283 497 283 669 q 344 238 283 324 q 515 153 406 153 q 598 158 565 153 q 658 174 631 163 l 658 824 z "},"œ":{"ha":1240,"x_min":57,"x_max":1182,"o":"m 742 299 q 793 178 747 215 q 925 140 839 140 q 1015 149 972 140 q 1101 175 1057 158 q 1128 108 1117 147 q 1140 25 1139 69 q 1032 -6 1086 4 q 910 -17 978 -17 q 753 15 817 -17 q 647 100 690 46 q 546 13 603 42 q 407 -17 489 -17 q 254 12 319 -17 q 145 91 189 40 q 79 210 101 142 q 57 357 57 278 q 79 506 57 436 q 145 626 101 575 q 254 706 189 676 q 407 735 319 735 q 545 705 486 735 q 647 618 604 675 q 748 705 688 675 q 881 735 808 735 q 1008 708 953 735 q 1103 636 1064 682 q 1162 527 1142 590 q 1182 392 1182 464 q 1180 340 1182 365 q 1175 299 1178 314 l 742 299 m 407 133 q 522 191 485 133 q 558 357 558 249 q 522 523 558 465 q 407 581 485 581 q 294 523 331 581 q 257 357 257 465 q 294 191 257 249 q 407 133 331 133 m 996 436 q 963 544 993 503 q 878 585 932 585 q 785 546 819 585 q 743 436 750 507 l 996 436 z "},"Ŕ":{"ha":849,"x_min":107,"x_max":835,"o":"m 107 999 q 222 1010 168 1006 q 340 1015 275 1015 q 491 1001 417 1015 q 625 952 565 988 q 722 856 685 917 q 758 703 758 796 q 744 605 758 647 q 709 531 731 563 q 663 476 688 499 q 615 439 638 453 l 592 424 l 835 1 q 776 -4 807 -1 q 714 -7 746 -7 q 610 1 661 -7 l 349 465 l 382 482 q 429 507 401 492 q 483 545 457 522 q 526 601 508 568 q 544 678 544 633 q 494 806 544 765 q 365 847 444 847 q 310 843 335 847 l 310 0 q 260 -5 285 -3 q 211 -7 235 -7 q 161 -6 188 -7 q 107 0 135 -4 l 107 999 m 403 1229 q 470 1236 433 1233 q 544 1239 507 1239 q 614 1236 581 1239 q 671 1229 647 1233 l 467 1085 q 417 1078 442 1079 q 368 1076 392 1076 q 267 1085 317 1076 l 403 1229 z "},"ŕ":{"ha":558,"x_min":97,"x_max":540,"o":"m 97 718 q 137 724 118 722 q 178 726 156 726 q 219 724 199 726 q 258 717 239 721 q 266 697 263 710 q 272 669 269 683 q 277 640 275 654 q 281 615 279 625 q 356 692 311 658 q 467 726 400 726 q 499 725 481 726 q 525 721 517 724 q 529 689 528 707 q 531 651 531 671 q 528 600 531 628 q 521 547 526 572 q 487 550 506 550 q 464 550 468 550 q 411 545 440 550 q 356 519 382 540 q 312 457 329 499 q 294 340 294 415 l 294 -1 q 244 -7 269 -6 q 196 -8 219 -8 q 148 -7 172 -8 q 97 -1 124 -6 l 97 718 m 300 999 q 425 1007 356 1007 q 487 1005 461 1007 q 540 999 513 1003 l 331 828 q 288 822 313 825 q 235 819 263 819 q 144 828 190 819 l 300 999 z "},"Ŗ":{"ha":849,"x_min":107,"x_max":835,"o":"m 107 999 q 222 1010 168 1006 q 340 1015 275 1015 q 491 1001 417 1015 q 625 952 565 988 q 722 856 685 917 q 758 703 758 796 q 744 605 758 647 q 709 531 731 563 q 663 476 688 499 q 615 439 638 453 l 592 424 l 835 1 q 776 -4 807 -1 q 714 -7 746 -7 q 610 1 661 -7 l 349 465 l 382 482 q 429 507 401 492 q 483 545 457 522 q 526 601 508 568 q 544 678 544 633 q 494 806 544 765 q 365 847 444 847 q 310 843 335 847 l 310 0 q 260 -5 285 -3 q 211 -7 235 -7 q 161 -6 188 -7 q 107 0 135 -4 l 107 999 m 372 -94 q 467 -85 415 -85 q 515 -87 490 -85 q 564 -94 540 -89 l 474 -328 q 397 -337 435 -337 q 314 -328 357 -337 l 372 -94 z "},"ŗ":{"ha":558,"x_min":47,"x_max":531,"o":"m 97 718 q 137 724 118 722 q 178 726 156 726 q 219 724 199 726 q 258 717 239 721 q 266 697 263 710 q 272 669 269 683 q 277 640 275 654 q 281 615 279 625 q 356 692 311 658 q 467 726 400 726 q 499 725 481 726 q 525 721 517 724 q 529 689 528 707 q 531 651 531 671 q 528 600 531 628 q 521 547 526 572 q 487 550 506 550 q 464 550 468 550 q 411 545 440 550 q 356 519 382 540 q 312 457 329 499 q 294 340 294 415 l 294 -1 q 244 -7 269 -6 q 196 -8 219 -8 q 148 -7 172 -8 q 97 -1 124 -6 l 97 718 m 106 -94 q 200 -85 149 -85 q 249 -87 224 -85 q 297 -94 274 -89 l 207 -328 q 131 -337 168 -337 q 47 -328 90 -337 l 106 -94 z "},"Ř":{"ha":849,"x_min":107,"x_max":835,"o":"m 107 999 q 222 1010 168 1006 q 340 1015 275 1015 q 491 1001 417 1015 q 625 952 565 988 q 722 856 685 917 q 758 703 758 796 q 744 605 758 647 q 709 531 731 563 q 663 476 688 499 q 615 439 638 453 l 592 424 l 835 1 q 776 -4 807 -1 q 714 -7 746 -7 q 610 1 661 -7 l 349 465 l 382 482 q 429 507 401 492 q 483 545 457 522 q 526 601 508 568 q 544 678 544 633 q 494 806 544 765 q 365 847 444 847 q 310 843 335 847 l 310 0 q 260 -5 285 -3 q 211 -7 235 -7 q 161 -6 188 -7 q 107 0 135 -4 l 107 999 m 133 1229 q 180 1235 153 1233 q 233 1238 207 1238 q 289 1235 257 1238 q 338 1229 321 1233 l 403 1160 l 465 1229 q 488 1233 474 1231 q 517 1235 501 1235 q 547 1237 532 1236 q 575 1238 563 1238 q 626 1235 601 1238 q 669 1229 650 1233 l 522 1085 q 471 1079 501 1082 q 401 1076 440 1076 q 333 1079 364 1076 q 281 1085 303 1082 l 133 1229 z "},"ř":{"ha":558,"x_min":71,"x_max":561,"o":"m 97 718 q 137 724 118 722 q 178 726 156 726 q 219 724 199 726 q 258 717 239 721 q 266 697 263 710 q 272 669 269 683 q 277 640 275 654 q 281 615 279 625 q 356 692 311 658 q 467 726 400 726 q 499 725 481 726 q 525 721 517 724 q 529 689 528 707 q 531 651 531 671 q 528 600 531 628 q 521 547 526 572 q 487 550 506 550 q 464 550 468 550 q 411 545 440 550 q 356 519 382 540 q 312 457 329 499 q 294 340 294 415 l 294 -1 q 244 -7 269 -6 q 196 -8 219 -8 q 148 -7 172 -8 q 97 -1 124 -6 l 97 718 m 71 997 q 156 1006 101 1006 q 208 1003 179 1006 q 260 996 236 1001 l 317 907 l 372 996 q 416 1003 390 1001 q 467 1006 442 1006 q 561 997 521 1006 l 425 825 q 369 820 401 822 q 308 818 338 818 q 262 819 290 818 q 206 826 233 821 l 71 997 z "},"Ś":{"ha":764,"x_min":49,"x_max":715,"o":"m 279 463 q 194 502 232 481 q 131 553 157 524 q 90 625 104 583 q 75 725 75 667 q 99 850 75 796 q 168 941 124 904 q 275 997 213 978 q 415 1015 338 1015 q 548 1003 486 1015 q 678 967 610 990 q 633 808 669 886 q 591 825 613 817 q 545 839 569 833 q 490 848 521 844 q 421 851 460 851 q 373 847 397 851 q 329 832 349 843 q 297 799 310 821 q 285 743 285 778 q 294 697 285 715 q 321 665 304 678 q 358 642 338 651 q 400 625 379 633 l 483 593 q 579 550 536 572 q 652 495 622 528 q 699 416 682 463 q 715 301 715 369 q 690 172 715 231 q 615 72 664 114 q 495 7 567 31 q 331 -17 424 -17 q 249 -14 285 -17 q 180 -5 213 -11 q 115 11 147 1 q 49 35 83 21 q 64 119 53 75 q 90 207 75 163 q 200 172 149 183 q 310 160 251 160 q 447 192 397 160 q 497 292 497 225 q 485 347 497 325 q 455 385 474 369 q 413 410 436 400 q 364 431 389 421 l 279 463 m 415 1229 q 483 1236 446 1233 q 557 1239 519 1239 q 626 1236 593 1239 q 683 1229 660 1233 l 479 1085 q 429 1078 454 1079 q 381 1076 404 1076 q 279 1085 329 1076 l 415 1229 z "},"ś":{"ha":639,"x_min":56,"x_max":590,"o":"m 236 313 q 115 378 158 335 q 71 510 71 422 q 147 675 71 615 q 353 735 222 735 q 460 725 407 735 q 567 696 513 715 q 553 621 564 660 q 526 553 542 582 q 453 577 493 567 q 368 588 413 588 q 294 573 321 588 q 268 526 268 558 q 287 483 268 496 q 340 460 306 471 l 419 436 q 490 409 458 425 q 543 369 521 393 q 578 311 565 346 q 590 226 590 276 q 569 131 590 175 q 506 53 547 86 q 407 2 465 21 q 275 -17 349 -17 q 214 -15 242 -17 q 160 -8 186 -12 q 110 4 135 -3 q 56 22 85 11 q 69 98 58 60 q 96 172 79 136 q 183 145 142 154 q 268 136 224 136 q 310 140 288 136 q 353 152 333 143 q 385 176 372 161 q 399 214 399 190 q 378 262 399 247 q 322 288 358 276 l 236 313 m 350 999 q 475 1007 406 1007 q 537 1005 511 1007 q 590 999 563 1003 l 381 828 q 338 822 363 825 q 285 819 313 819 q 194 828 240 819 l 350 999 z "},"Ŝ":{"ha":764,"x_min":49,"x_max":715,"o":"m 279 463 q 194 502 232 481 q 131 553 157 524 q 90 625 104 583 q 75 725 75 667 q 99 850 75 796 q 168 941 124 904 q 275 997 213 978 q 415 1015 338 1015 q 548 1003 486 1015 q 678 967 610 990 q 633 808 669 886 q 591 825 613 817 q 545 839 569 833 q 490 848 521 844 q 421 851 460 851 q 373 847 397 851 q 329 832 349 843 q 297 799 310 821 q 285 743 285 778 q 294 697 285 715 q 321 665 304 678 q 358 642 338 651 q 400 625 379 633 l 483 593 q 579 550 536 572 q 652 495 622 528 q 699 416 682 463 q 715 301 715 369 q 690 172 715 231 q 615 72 664 114 q 495 7 567 31 q 331 -17 424 -17 q 249 -14 285 -17 q 180 -5 213 -11 q 115 11 147 1 q 49 35 83 21 q 64 119 53 75 q 90 207 75 163 q 200 172 149 183 q 310 160 251 160 q 447 192 397 160 q 497 292 497 225 q 485 347 497 325 q 455 385 474 369 q 413 410 436 400 q 364 431 389 421 l 279 463 m 285 1229 q 336 1235 306 1232 q 406 1238 367 1238 q 474 1235 443 1238 q 526 1229 504 1232 l 674 1085 q 627 1078 654 1081 q 574 1076 600 1076 q 518 1078 550 1076 q 469 1085 486 1081 l 404 1154 l 342 1085 q 319 1081 333 1082 q 290 1078 306 1079 q 260 1077 275 1078 q 232 1076 244 1076 q 181 1078 206 1076 q 138 1085 157 1081 l 285 1229 z "},"ŝ":{"ha":639,"x_min":56,"x_max":592,"o":"m 236 313 q 115 378 158 335 q 71 510 71 422 q 147 675 71 615 q 353 735 222 735 q 460 725 407 735 q 567 696 513 715 q 553 621 564 660 q 526 553 542 582 q 453 577 493 567 q 368 588 413 588 q 294 573 321 588 q 268 526 268 558 q 287 483 268 496 q 340 460 306 471 l 419 436 q 490 409 458 425 q 543 369 521 393 q 578 311 565 346 q 590 226 590 276 q 569 131 590 175 q 506 53 547 86 q 407 2 465 21 q 275 -17 349 -17 q 214 -15 242 -17 q 160 -8 186 -12 q 110 4 135 -3 q 56 22 85 11 q 69 98 58 60 q 96 172 79 136 q 183 145 142 154 q 268 136 224 136 q 310 140 288 136 q 353 152 333 143 q 385 176 372 161 q 399 214 399 190 q 378 262 399 247 q 322 288 358 276 l 236 313 m 238 999 q 293 1003 261 1001 q 354 1006 325 1006 q 401 1004 372 1006 q 457 997 429 1003 l 592 826 q 507 818 560 818 q 455 820 483 818 q 403 828 426 822 l 346 917 l 290 828 q 247 820 272 822 q 196 818 221 818 q 101 826 140 818 l 238 999 z "},"Ş":{"ha":764,"x_min":49,"x_max":715,"o":"m 268 -150 l 318 -17 q 242 -13 276 -17 q 175 -3 207 -10 q 113 12 143 3 q 49 35 82 21 q 64 119 53 75 q 90 207 75 163 q 200 172 149 183 q 310 160 251 160 q 447 192 397 160 q 497 292 497 225 q 485 347 497 325 q 455 385 474 369 q 413 410 436 400 q 364 431 389 421 l 279 463 q 194 502 232 481 q 131 553 157 524 q 90 625 104 583 q 75 725 75 667 q 99 850 75 796 q 168 941 124 904 q 275 997 213 978 q 415 1015 338 1015 q 548 1003 486 1015 q 678 967 610 990 q 633 808 669 886 q 591 825 613 817 q 545 839 569 833 q 490 848 521 844 q 421 851 460 851 q 373 847 397 851 q 329 832 349 843 q 297 799 310 821 q 285 743 285 778 q 294 697 285 715 q 321 665 304 678 q 358 642 338 651 q 400 625 379 633 l 483 593 q 579 550 536 572 q 652 495 622 528 q 699 416 682 463 q 715 301 715 369 q 640 95 715 179 q 422 -10 565 11 l 399 -65 q 412 -63 406 -64 q 426 -62 418 -62 q 497 -73 468 -62 q 546 -101 526 -83 q 574 -142 565 -119 q 583 -192 583 -165 q 526 -299 583 -262 q 364 -336 469 -336 q 308 -333 340 -336 q 240 -321 276 -331 q 249 -269 243 -296 q 271 -219 254 -243 q 318 -231 296 -228 q 358 -235 340 -235 q 428 -224 408 -235 q 449 -192 449 -214 q 372 -154 449 -154 q 332 -157 353 -154 q 283 -169 311 -160 l 268 -150 z "},"ş":{"ha":639,"x_min":56,"x_max":590,"o":"m 254 -17 q 151 -6 196 -15 q 56 22 107 3 q 69 98 58 60 q 96 172 79 136 q 183 145 142 154 q 268 136 224 136 q 310 140 288 136 q 353 152 333 143 q 385 176 372 161 q 399 214 399 190 q 378 262 399 247 q 322 288 358 276 l 236 313 q 115 378 158 335 q 71 510 71 422 q 147 675 71 615 q 353 735 222 735 q 460 725 407 735 q 567 696 513 715 q 553 621 564 660 q 526 553 542 582 q 453 577 493 567 q 368 588 413 588 q 294 573 321 588 q 268 526 268 558 q 287 483 268 496 q 340 460 306 471 l 419 436 q 490 409 458 425 q 543 369 521 393 q 578 311 565 346 q 590 226 590 276 q 528 73 590 138 q 354 -10 465 8 l 329 -74 q 338 -72 333 -72 q 351 -71 343 -71 q 466 -105 425 -71 q 507 -192 507 -139 q 447 -299 507 -262 q 292 -335 388 -335 q 243 -333 272 -335 q 181 -322 214 -332 q 188 -273 183 -300 q 206 -225 192 -246 q 250 -235 231 -232 q 292 -237 269 -237 q 354 -228 331 -237 q 378 -194 378 -218 q 356 -162 378 -171 q 297 -153 333 -153 q 255 -156 278 -153 q 213 -165 232 -158 l 203 -156 l 254 -17 z "},"Š":{"ha":764,"x_min":49,"x_max":715,"o":"m 279 463 q 194 502 232 481 q 131 553 157 524 q 90 625 104 583 q 75 725 75 667 q 99 850 75 796 q 168 941 124 904 q 275 997 213 978 q 415 1015 338 1015 q 548 1003 486 1015 q 678 967 610 990 q 633 808 669 886 q 591 825 613 817 q 545 839 569 833 q 490 848 521 844 q 421 851 460 851 q 373 847 397 851 q 329 832 349 843 q 297 799 310 821 q 285 743 285 778 q 294 697 285 715 q 321 665 304 678 q 358 642 338 651 q 400 625 379 633 l 483 593 q 579 550 536 572 q 652 495 622 528 q 699 416 682 463 q 715 301 715 369 q 690 172 715 231 q 615 72 664 114 q 495 7 567 31 q 331 -17 424 -17 q 249 -14 285 -17 q 180 -5 213 -11 q 115 11 147 1 q 49 35 83 21 q 64 119 53 75 q 90 207 75 163 q 200 172 149 183 q 310 160 251 160 q 447 192 397 160 q 497 292 497 225 q 485 347 497 325 q 455 385 474 369 q 413 410 436 400 q 364 431 389 421 l 279 463 m 125 1229 q 172 1235 144 1233 q 225 1238 199 1238 q 281 1235 249 1238 q 329 1229 313 1233 l 394 1160 l 457 1229 q 479 1233 465 1231 q 508 1235 493 1235 q 539 1237 524 1236 q 567 1238 554 1238 q 617 1235 593 1238 q 661 1229 642 1233 l 514 1085 q 463 1079 493 1082 q 393 1076 432 1076 q 325 1079 356 1076 q 272 1085 294 1082 l 125 1229 z "},"š":{"ha":639,"x_min":56,"x_max":590,"o":"m 236 313 q 115 378 158 335 q 71 510 71 422 q 147 675 71 615 q 353 735 222 735 q 460 725 407 735 q 567 696 513 715 q 553 621 564 660 q 526 553 542 582 q 453 577 493 567 q 368 588 413 588 q 294 573 321 588 q 268 526 268 558 q 287 483 268 496 q 340 460 306 471 l 419 436 q 490 409 458 425 q 543 369 521 393 q 578 311 565 346 q 590 226 590 276 q 569 131 590 175 q 506 53 547 86 q 407 2 465 21 q 275 -17 349 -17 q 214 -15 242 -17 q 160 -8 186 -12 q 110 4 135 -3 q 56 22 85 11 q 69 98 58 60 q 96 172 79 136 q 183 145 142 154 q 268 136 224 136 q 310 140 288 136 q 353 152 333 143 q 385 176 372 161 q 399 214 399 190 q 378 262 399 247 q 322 288 358 276 l 236 313 m 78 997 q 163 1006 108 1006 q 215 1003 186 1006 q 267 996 243 1001 l 324 907 l 379 996 q 423 1003 397 1001 q 474 1006 449 1006 q 568 997 528 1006 l 432 825 q 376 820 408 822 q 315 818 344 818 q 269 819 297 818 q 213 826 240 821 l 78 997 z "},"Ţ":{"ha":788,"x_min":35,"x_max":753,"o":"m 292 826 l 43 826 q 35 914 35 868 q 43 999 35 957 l 744 999 q 753 914 753 957 q 744 826 753 868 l 496 826 l 496 0 q 446 -5 471 -3 q 397 -7 421 -7 q 347 -6 374 -7 q 292 0 319 -4 l 292 826 m 307 -94 q 399 -85 350 -85 q 446 -87 422 -85 q 493 -94 469 -89 l 407 -329 q 332 -337 371 -337 q 249 -328 292 -337 l 307 -94 z "},"ţ":{"ha":532,"x_min":19,"x_max":511,"o":"m 117 568 l 26 568 l 19 596 l 279 928 l 311 928 l 311 718 l 479 718 q 485 681 483 697 q 486 646 486 664 q 485 608 486 626 q 479 568 483 590 l 311 568 l 311 286 q 318 217 311 243 q 338 175 325 190 q 371 154 351 160 q 417 149 390 149 q 458 152 438 149 q 493 158 478 156 q 507 103 503 132 q 511 53 511 75 q 510 27 511 38 q 508 7 510 17 q 376 -8 444 -8 q 183 51 250 -8 q 117 243 117 110 l 117 568 m 235 -94 q 329 -85 278 -85 q 378 -87 353 -85 q 426 -94 403 -89 l 336 -328 q 260 -337 297 -337 q 176 -328 219 -337 l 235 -94 z "},"Ť":{"ha":788,"x_min":35,"x_max":753,"o":"m 292 826 l 43 826 q 35 914 35 868 q 43 999 35 957 l 744 999 q 753 914 753 957 q 744 826 753 868 l 496 826 l 496 0 q 446 -5 471 -3 q 397 -7 421 -7 q 347 -6 374 -7 q 292 0 319 -4 l 292 826 m 128 1229 q 174 1235 147 1233 q 228 1238 201 1238 q 283 1235 251 1238 q 332 1229 315 1233 l 397 1160 l 460 1229 q 482 1233 468 1231 q 511 1235 496 1235 q 542 1237 526 1236 q 569 1238 557 1238 q 620 1235 596 1238 q 664 1229 644 1233 l 517 1085 q 465 1079 496 1082 q 396 1076 435 1076 q 328 1079 358 1076 q 275 1085 297 1082 l 128 1229 z "},"ť":{"ha":528,"x_min":19,"x_max":611,"o":"m 431 1015 q 474 1022 453 1019 q 518 1025 496 1025 q 563 1022 540 1025 q 611 1015 586 1019 l 574 794 q 535 790 551 792 q 503 788 518 788 q 469 790 486 788 q 431 794 453 792 l 431 1015 m 117 568 l 26 568 l 19 596 l 279 928 l 311 928 l 311 718 l 479 718 q 485 681 483 697 q 486 646 486 664 q 485 608 486 626 q 479 568 483 590 l 311 568 l 311 286 q 318 217 311 243 q 338 175 325 190 q 371 154 351 160 q 417 149 390 149 q 458 152 438 149 q 493 158 478 156 q 507 103 503 132 q 511 53 511 75 q 510 27 511 38 q 508 7 510 17 q 376 -8 444 -8 q 183 51 250 -8 q 117 243 117 110 l 117 568 z "},"Ŧ":{"ha":788,"x_min":35,"x_max":753,"o":"m 292 418 l 101 418 q 93 488 93 453 q 101 558 93 522 l 292 558 l 292 826 l 43 826 q 35 914 35 868 q 43 999 35 957 l 744 999 q 753 914 753 957 q 744 826 753 868 l 496 826 l 496 558 l 686 558 q 694 489 694 522 q 686 418 694 453 l 496 418 l 496 0 q 446 -5 471 -3 q 397 -7 421 -7 q 347 -6 374 -7 q 292 0 319 -4 l 292 418 z "},"ŧ":{"ha":532,"x_min":17,"x_max":511,"o":"m 117 301 l 24 301 q 18 340 19 322 q 17 376 17 357 q 18 410 17 393 q 24 446 19 426 l 117 446 l 117 568 l 26 568 l 19 596 l 279 928 l 311 928 l 311 718 l 479 718 q 485 681 483 697 q 486 646 486 664 q 485 608 486 626 q 479 568 483 590 l 311 568 l 311 446 l 479 446 q 485 410 483 426 q 486 376 486 393 q 485 340 486 357 q 479 301 483 322 l 311 301 l 311 286 q 318 217 311 243 q 338 175 325 190 q 371 154 351 160 q 417 149 390 149 q 458 152 438 149 q 493 158 478 156 q 507 103 503 132 q 511 53 511 75 q 510 27 511 38 q 508 7 510 17 q 376 -8 444 -8 q 183 51 250 -8 q 117 243 117 110 l 117 301 z "},"Ũ":{"ha":932,"x_min":92,"x_max":842,"o":"m 92 999 q 143 1004 118 1003 q 194 1006 168 1006 q 243 1004 218 1006 q 294 999 268 1003 l 294 481 q 301 335 294 396 q 326 235 307 275 q 378 177 344 196 q 467 158 413 158 q 554 177 521 158 q 606 235 588 196 q 631 335 625 275 q 638 481 638 396 l 638 999 q 690 1004 665 1003 q 739 1006 715 1006 q 790 1004 764 1006 q 842 999 815 1003 l 842 438 q 825 252 842 336 q 765 108 808 168 q 650 16 722 49 q 467 -17 578 -17 q 283 16 356 -17 q 168 108 211 49 q 108 252 125 168 q 92 438 92 336 l 92 999 m 217 1199 q 281 1253 240 1229 q 375 1276 322 1276 q 427 1267 401 1276 q 478 1248 453 1258 q 528 1228 503 1238 q 582 1219 554 1219 q 628 1228 607 1219 q 681 1267 650 1238 q 743 1161 726 1218 q 679 1108 719 1131 q 590 1086 639 1086 q 533 1095 561 1086 q 479 1115 506 1104 q 427 1134 453 1125 q 376 1143 401 1143 q 328 1133 349 1143 q 278 1096 308 1124 q 240 1145 257 1121 q 217 1199 224 1169 z "},"ũ":{"ha":794,"x_min":85,"x_max":713,"o":"m 85 718 q 183 726 135 726 q 282 718 232 726 l 282 338 q 291 244 282 281 q 319 185 300 207 q 365 155 338 164 q 431 146 393 146 q 517 156 482 146 l 517 718 q 614 726 567 726 q 713 718 663 726 l 713 28 q 595 -2 668 13 q 443 -17 522 -17 q 307 -6 372 -17 q 192 42 242 6 q 114 147 143 78 q 85 332 85 217 l 85 718 m 160 940 q 222 992 183 971 q 311 1014 260 1014 q 362 1006 338 1014 q 410 990 386 999 q 458 973 433 981 q 510 965 483 965 q 554 972 533 965 q 604 1008 575 979 q 642 956 626 985 q 664 897 657 926 q 601 847 640 867 q 511 826 563 826 q 460 834 485 826 q 410 851 435 842 q 362 867 386 860 q 313 875 338 875 q 267 867 286 875 q 218 832 247 860 q 182 884 199 857 q 160 940 165 911 z "},"Ū":{"ha":932,"x_min":92,"x_max":842,"o":"m 92 999 q 143 1004 118 1003 q 194 1006 168 1006 q 243 1004 218 1006 q 294 999 268 1003 l 294 481 q 301 335 294 396 q 326 235 307 275 q 378 177 344 196 q 467 158 413 158 q 554 177 521 158 q 606 235 588 196 q 631 335 625 275 q 638 481 638 396 l 638 999 q 690 1004 665 1003 q 739 1006 715 1006 q 790 1004 764 1006 q 842 999 815 1003 l 842 438 q 825 252 842 336 q 765 108 808 168 q 650 16 722 49 q 467 -17 578 -17 q 283 16 356 -17 q 168 108 211 49 q 108 252 125 168 q 92 438 92 336 l 92 999 m 693 1233 q 701 1164 701 1197 q 693 1093 701 1128 l 242 1093 q 233 1163 233 1128 q 242 1233 233 1197 l 693 1233 z "},"ū":{"ha":794,"x_min":85,"x_max":713,"o":"m 85 718 q 183 726 135 726 q 282 718 232 726 l 282 338 q 291 244 282 281 q 319 185 300 207 q 365 155 338 164 q 431 146 393 146 q 517 156 482 146 l 517 718 q 614 726 567 726 q 713 718 663 726 l 713 28 q 595 -2 668 13 q 443 -17 522 -17 q 307 -6 372 -17 q 192 42 242 6 q 114 147 143 78 q 85 332 85 217 l 85 718 m 582 982 q 590 913 590 946 q 582 842 590 876 l 214 842 q 206 911 206 876 q 214 982 206 946 l 582 982 z "},"Ŭ":{"ha":932,"x_min":92,"x_max":842,"o":"m 92 999 q 143 1004 118 1003 q 194 1006 168 1006 q 243 1004 218 1006 q 294 999 268 1003 l 294 481 q 301 335 294 396 q 326 235 307 275 q 378 177 344 196 q 467 158 413 158 q 554 177 521 158 q 606 235 588 196 q 631 335 625 275 q 638 481 638 396 l 638 999 q 690 1004 665 1003 q 739 1006 715 1006 q 790 1004 764 1006 q 842 999 815 1003 l 842 438 q 825 252 842 336 q 765 108 808 168 q 650 16 722 49 q 467 -17 578 -17 q 283 16 356 -17 q 168 108 211 49 q 108 252 125 168 q 92 438 92 336 l 92 999 m 225 1242 q 267 1249 247 1247 q 307 1251 288 1251 q 386 1240 346 1251 q 404 1199 389 1218 q 469 1181 419 1181 q 535 1199 519 1181 q 553 1240 550 1218 q 639 1251 597 1251 q 715 1242 676 1251 q 683 1149 710 1183 q 622 1098 657 1115 q 545 1076 586 1081 q 469 1071 504 1071 q 394 1076 435 1071 q 318 1098 354 1081 q 256 1149 282 1115 q 225 1242 231 1183 z "},"ŭ":{"ha":794,"x_min":85,"x_max":713,"o":"m 85 718 q 183 726 135 726 q 282 718 232 726 l 282 338 q 291 244 282 281 q 319 185 300 207 q 365 155 338 164 q 431 146 393 146 q 517 156 482 146 l 517 718 q 614 726 567 726 q 713 718 663 726 l 713 28 q 595 -2 668 13 q 443 -17 522 -17 q 307 -6 372 -17 q 192 42 242 6 q 114 147 143 78 q 85 332 85 217 l 85 718 m 161 997 q 202 1005 181 1003 q 243 1007 224 1007 q 283 1004 264 1007 q 322 996 301 1001 q 327 973 324 985 q 339 951 331 961 q 362 934 347 940 q 401 928 376 928 q 441 934 426 928 q 464 951 456 940 q 476 973 472 961 q 481 996 479 985 q 524 1004 504 1001 q 565 1007 543 1007 q 603 1005 583 1007 q 643 997 624 1003 q 612 902 638 939 q 551 844 586 865 q 476 815 517 822 q 401 807 436 807 q 327 815 367 807 q 252 844 288 822 q 192 902 217 865 q 161 997 167 939 z "},"Ů":{"ha":932,"x_min":92,"x_max":842,"o":"m 92 999 q 143 1004 118 1003 q 194 1006 168 1006 q 243 1004 218 1006 q 294 999 268 1003 l 294 481 q 301 335 294 396 q 326 235 307 275 q 378 177 344 196 q 467 158 413 158 q 554 177 521 158 q 606 235 588 196 q 631 335 625 275 q 638 481 638 396 l 638 999 q 690 1004 665 1003 q 739 1006 715 1006 q 790 1004 764 1006 q 842 999 815 1003 l 842 438 q 825 252 842 336 q 765 108 808 168 q 650 16 722 49 q 467 -17 578 -17 q 283 16 356 -17 q 168 108 211 49 q 108 252 125 168 q 92 438 92 336 l 92 999 m 300 1189 q 348 1307 300 1264 q 467 1350 396 1350 q 585 1307 538 1350 q 633 1189 633 1264 q 585 1071 633 1114 q 467 1028 538 1028 q 348 1071 396 1028 q 300 1189 300 1114 m 467 1110 q 514 1131 496 1110 q 532 1189 532 1151 q 514 1247 532 1226 q 467 1268 496 1268 q 419 1247 436 1268 q 401 1189 401 1226 q 419 1131 401 1151 q 467 1110 436 1110 z "},"ů":{"ha":794,"x_min":85,"x_max":713,"o":"m 85 718 q 183 726 135 726 q 282 718 232 726 l 282 338 q 291 244 282 281 q 319 185 300 207 q 365 155 338 164 q 431 146 393 146 q 517 156 482 146 l 517 718 q 614 726 567 726 q 713 718 663 726 l 713 28 q 595 -2 668 13 q 443 -17 522 -17 q 307 -6 372 -17 q 192 42 242 6 q 114 147 143 78 q 85 332 85 217 l 85 718 m 244 965 q 291 1082 244 1040 q 407 1124 338 1124 q 523 1082 476 1124 q 569 965 569 1040 q 523 849 569 890 q 407 807 476 807 q 291 849 338 807 q 244 965 244 890 m 407 889 q 453 909 435 889 q 472 965 472 929 q 453 1022 472 1001 q 407 1042 435 1042 q 360 1022 379 1042 q 342 965 342 1001 q 360 909 342 929 q 407 889 379 889 z "},"Ű":{"ha":932,"x_min":92,"x_max":853,"o":"m 92 999 q 143 1004 118 1003 q 194 1006 168 1006 q 243 1004 218 1006 q 294 999 268 1003 l 294 481 q 301 335 294 396 q 326 235 307 275 q 378 177 344 196 q 467 158 413 158 q 554 177 521 158 q 606 235 588 196 q 631 335 625 275 q 638 481 638 396 l 638 999 q 690 1004 665 1003 q 739 1006 715 1006 q 790 1004 764 1006 q 842 999 815 1003 l 842 438 q 825 252 842 336 q 765 108 808 168 q 650 16 722 49 q 467 -17 578 -17 q 283 16 356 -17 q 168 108 211 49 q 108 252 125 168 q 92 438 92 336 l 92 999 m 313 1229 q 373 1236 344 1235 q 428 1238 401 1238 q 478 1236 451 1238 q 536 1229 506 1235 l 374 1083 q 326 1077 353 1079 q 272 1075 300 1075 q 229 1076 253 1075 q 179 1083 206 1078 l 313 1229 m 629 1229 q 690 1236 661 1235 q 744 1238 718 1238 q 795 1236 768 1238 q 853 1229 822 1235 l 690 1083 q 643 1077 669 1079 q 589 1075 617 1075 q 546 1076 569 1075 q 496 1083 522 1078 l 629 1229 z "},"ű":{"ha":794,"x_min":85,"x_max":806,"o":"m 85 718 q 183 726 135 726 q 282 718 232 726 l 282 338 q 291 244 282 281 q 319 185 300 207 q 365 155 338 164 q 431 146 393 146 q 517 156 482 146 l 517 718 q 614 726 567 726 q 713 718 663 726 l 713 28 q 595 -2 668 13 q 443 -17 522 -17 q 307 -6 372 -17 q 192 42 242 6 q 114 147 143 78 q 85 332 85 217 l 85 718 m 294 999 q 403 1007 349 1007 q 507 999 454 1007 l 326 828 q 284 822 308 825 q 232 819 260 819 q 143 828 189 819 l 294 999 m 593 999 q 701 1007 647 1007 q 806 999 753 1007 l 625 828 q 583 822 607 825 q 531 819 558 819 q 442 828 488 819 l 593 999 z "},"Ų":{"ha":931,"x_min":90,"x_max":840,"o":"m 90 999 q 142 1004 117 1003 q 193 1006 167 1006 q 242 1004 217 1006 q 293 999 267 1003 l 293 481 q 299 335 293 396 q 324 235 306 275 q 377 177 343 196 q 465 158 411 158 q 553 177 519 158 q 605 235 586 196 q 630 335 624 275 q 636 481 636 396 l 636 999 q 689 1004 664 1003 q 738 1006 714 1006 q 788 1004 763 1006 q 840 999 814 1003 l 840 438 q 829 282 840 354 q 790 153 818 210 q 717 58 763 97 q 601 0 671 18 q 513 -74 550 -33 q 476 -164 476 -114 q 492 -206 476 -192 q 535 -221 507 -221 q 558 -219 542 -221 q 603 -208 575 -217 q 624 -258 618 -228 q 631 -317 631 -289 q 577 -330 611 -324 q 500 -336 543 -336 q 431 -330 465 -336 q 368 -307 396 -324 q 323 -262 340 -290 q 306 -193 306 -235 q 338 -96 306 -139 q 418 -15 369 -53 q 259 27 322 -8 q 158 122 196 63 q 106 261 121 181 q 90 438 90 342 l 90 999 z "},"ų":{"ha":794,"x_min":85,"x_max":713,"o":"m 85 718 q 183 726 135 726 q 282 718 232 726 l 282 338 q 291 244 282 281 q 319 185 300 207 q 365 155 338 164 q 431 146 393 146 q 517 156 482 146 l 517 718 q 614 726 567 726 q 713 718 663 726 l 713 28 q 592 -69 629 -21 q 556 -158 556 -117 q 615 -224 556 -224 q 639 -222 624 -224 q 678 -212 654 -221 q 698 -262 692 -231 q 704 -318 704 -293 q 649 -331 685 -325 q 572 -336 613 -336 q 503 -329 538 -336 q 443 -306 469 -322 q 400 -262 417 -289 q 383 -196 383 -236 q 416 -102 383 -150 q 499 -14 449 -54 q 471 -16 485 -15 q 443 -17 457 -17 q 307 -6 372 -17 q 192 42 242 6 q 114 147 143 78 q 85 332 85 217 l 85 718 z "},"Ŵ":{"ha":1279,"x_min":22,"x_max":1260,"o":"m 22 999 q 136 1007 72 1007 q 187 1006 161 1007 q 238 999 213 1004 l 381 247 l 553 999 q 604 1005 581 1003 q 653 1007 628 1007 q 743 999 694 1007 l 922 228 l 1065 999 q 1154 1007 1108 1007 q 1208 1004 1182 1007 q 1260 999 1235 1001 l 1019 0 q 915 -8 969 -8 q 800 0 863 -8 l 640 665 l 468 0 q 409 -6 435 -3 q 353 -8 383 -8 q 260 0 310 -8 l 22 999 m 519 1229 q 571 1235 540 1232 q 640 1238 601 1238 q 708 1235 678 1238 q 761 1229 739 1232 l 908 1085 q 862 1078 889 1081 q 808 1076 835 1076 q 753 1078 785 1076 q 704 1085 721 1081 l 639 1154 l 576 1085 q 554 1081 568 1082 q 525 1078 540 1079 q 494 1077 510 1078 q 467 1076 479 1076 q 416 1078 440 1076 q 372 1085 392 1081 l 519 1229 z "},"ŵ":{"ha":1119,"x_min":10,"x_max":1110,"o":"m 10 717 q 70 725 42 724 q 118 726 99 726 q 172 725 146 726 q 222 718 199 724 l 338 188 l 471 718 q 565 726 514 726 q 625 724 601 725 q 667 718 649 722 l 797 197 l 911 718 q 956 724 935 722 q 1003 726 976 726 q 1049 725 1022 726 q 1110 717 1076 724 l 886 0 q 833 -6 861 -4 q 785 -7 804 -7 q 738 -6 764 -7 q 689 1 713 -4 l 558 476 l 424 0 q 369 -6 397 -4 q 321 -7 340 -7 q 276 -6 301 -7 q 226 1 250 -4 l 10 717 m 451 999 q 507 1003 475 1001 q 568 1006 539 1006 q 615 1004 586 1006 q 671 997 643 1003 l 806 826 q 721 818 774 818 q 669 820 697 818 q 617 828 640 822 l 560 917 l 504 828 q 460 820 486 822 q 410 818 435 818 q 315 826 354 818 l 451 999 z "},"Ŷ":{"ha":854,"x_min":14,"x_max":840,"o":"m 325 357 l 14 999 q 131 1007 72 1007 q 236 999 183 1007 l 433 546 l 628 999 q 733 1007 679 1007 q 840 999 783 1007 l 529 357 l 529 -1 q 476 -7 501 -6 q 426 -8 451 -8 q 377 -7 403 -8 q 325 -1 351 -6 l 325 357 m 306 1229 q 357 1235 326 1232 q 426 1238 388 1238 q 494 1235 464 1238 q 547 1229 525 1232 l 694 1085 q 648 1078 675 1081 q 594 1076 621 1076 q 539 1078 571 1076 q 490 1085 507 1081 l 425 1154 l 363 1085 q 340 1081 354 1082 q 311 1078 326 1079 q 281 1077 296 1078 q 253 1076 265 1076 q 202 1078 226 1076 q 158 1085 178 1081 l 306 1229 z "},"ŷ":{"ha":753,"x_min":14,"x_max":742,"o":"m 14 718 q 70 726 46 725 q 115 726 94 726 q 172 725 143 726 q 225 718 201 724 l 375 92 l 544 718 q 639 726 590 726 q 683 726 660 726 q 742 718 707 725 l 474 -169 q 434 -257 457 -222 q 382 -311 411 -292 q 317 -338 353 -331 q 239 -346 281 -346 q 169 -341 200 -346 q 107 -328 138 -336 q 106 -316 106 -321 q 106 -306 106 -311 q 113 -242 106 -272 q 132 -185 121 -212 q 165 -192 144 -189 q 207 -196 186 -196 q 240 -194 224 -196 q 273 -181 257 -192 q 303 -149 289 -171 q 328 -86 317 -126 l 351 0 q 317 -2 336 -1 q 279 -3 299 -3 q 250 -3 264 -3 q 225 0 236 -3 l 14 718 m 272 999 q 328 1003 296 1001 q 389 1006 360 1006 q 435 1004 407 1006 q 492 997 464 1003 l 626 826 q 542 818 594 818 q 490 820 518 818 q 438 828 461 822 l 381 917 l 325 828 q 281 820 307 822 q 231 818 256 818 q 136 826 175 818 l 272 999 z "},"Ÿ":{"ha":854,"x_min":14,"x_max":840,"o":"m 325 357 l 14 999 q 131 1007 72 1007 q 236 999 183 1007 l 433 546 l 628 999 q 733 1007 679 1007 q 840 999 783 1007 l 529 357 l 529 -1 q 476 -7 501 -6 q 426 -8 451 -8 q 377 -7 403 -8 q 325 -1 351 -6 l 325 357 m 183 1096 q 178 1137 181 1117 q 176 1178 176 1157 q 178 1218 176 1197 q 183 1260 181 1239 q 228 1266 204 1264 q 272 1268 253 1268 q 316 1266 292 1268 q 363 1260 340 1264 q 368 1219 367 1239 q 369 1178 369 1199 q 368 1138 369 1158 q 363 1096 367 1117 q 317 1090 340 1092 q 272 1089 293 1089 q 229 1090 254 1089 q 183 1096 204 1092 m 490 1096 q 482 1178 482 1138 q 490 1260 482 1218 q 535 1266 511 1264 q 579 1268 560 1268 q 623 1266 599 1268 q 669 1260 647 1264 q 674 1219 672 1239 q 675 1178 675 1199 q 674 1138 675 1158 q 669 1096 672 1117 q 623 1090 647 1092 q 579 1089 599 1089 q 535 1090 560 1089 q 490 1096 511 1092 z "},"Ź":{"ha":819,"x_min":63,"x_max":779,"o":"m 63 14 l 482 826 l 99 826 q 90 911 90 868 q 99 999 90 957 l 768 999 l 779 982 l 364 172 l 758 172 q 767 88 767 131 q 758 0 767 42 l 72 0 l 63 14 m 442 1229 q 509 1236 472 1233 q 583 1239 546 1239 q 653 1236 619 1239 q 710 1229 686 1233 l 506 1085 q 456 1078 481 1079 q 407 1076 431 1076 q 306 1085 356 1076 l 442 1229 z "},"ź":{"ha":685,"x_min":38,"x_max":658,"o":"m 38 17 l 361 567 l 86 567 q 81 607 82 588 q 79 646 79 626 q 81 681 79 664 q 86 718 82 699 l 651 718 l 658 701 l 329 151 l 635 151 q 640 111 639 131 q 642 72 642 92 q 640 37 642 54 q 635 0 639 19 l 49 0 l 38 17 m 386 999 q 511 1007 442 1007 q 573 1005 547 1007 q 626 999 599 1003 l 417 828 q 374 822 399 825 q 321 819 349 819 q 231 828 276 819 l 386 999 z "},"Ż":{"ha":819,"x_min":63,"x_max":779,"o":"m 63 14 l 482 826 l 99 826 q 90 911 90 868 q 99 999 90 957 l 768 999 l 779 982 l 364 172 l 758 172 q 767 88 767 131 q 758 0 767 42 l 72 0 l 63 14 m 346 1092 q 340 1134 342 1114 q 339 1175 339 1154 q 340 1215 339 1194 q 346 1258 342 1236 q 392 1265 368 1263 q 436 1267 417 1267 q 482 1265 457 1267 q 529 1258 507 1263 q 534 1216 533 1236 q 535 1175 535 1196 q 534 1135 535 1156 q 529 1092 533 1114 q 483 1086 507 1088 q 438 1085 458 1085 q 393 1086 418 1085 q 346 1092 368 1088 z "},"ż":{"ha":685,"x_min":38,"x_max":658,"o":"m 38 17 l 361 567 l 86 567 q 81 607 82 588 q 79 646 79 626 q 81 681 79 664 q 86 718 82 699 l 651 718 l 658 701 l 329 151 l 635 151 q 640 111 639 131 q 642 72 642 92 q 640 37 642 54 q 635 0 639 19 l 49 0 l 38 17 m 265 839 q 257 932 257 886 q 265 1025 257 976 q 316 1031 289 1029 q 365 1033 343 1033 q 417 1031 389 1033 q 468 1025 444 1029 q 474 978 472 1001 q 475 932 475 956 q 474 886 475 910 q 468 839 472 863 q 417 833 444 835 q 367 832 390 832 q 317 833 344 832 q 265 839 289 835 z "},"Ž":{"ha":819,"x_min":63,"x_max":779,"o":"m 63 14 l 482 826 l 99 826 q 90 911 90 868 q 99 999 90 957 l 768 999 l 779 982 l 364 172 l 758 172 q 767 88 767 131 q 758 0 767 42 l 72 0 l 63 14 m 175 1229 q 222 1235 194 1233 q 275 1238 249 1238 q 331 1235 299 1238 q 379 1229 363 1233 l 444 1160 l 507 1229 q 529 1233 515 1231 q 558 1235 543 1235 q 589 1237 574 1236 q 617 1238 604 1238 q 667 1235 643 1238 q 711 1229 692 1233 l 564 1085 q 513 1079 543 1082 q 443 1076 482 1076 q 375 1079 406 1076 q 322 1085 344 1082 l 175 1229 z "},"ž":{"ha":685,"x_min":38,"x_max":658,"o":"m 38 17 l 361 567 l 86 567 q 81 607 82 588 q 79 646 79 626 q 81 681 79 664 q 86 718 82 699 l 651 718 l 658 701 l 329 151 l 635 151 q 640 111 639 131 q 642 72 642 92 q 640 37 642 54 q 635 0 639 19 l 49 0 l 38 17 m 129 997 q 214 1006 160 1006 q 266 1003 238 1006 q 318 996 294 1001 l 375 907 l 431 996 q 474 1003 449 1001 q 525 1006 500 1006 q 619 997 579 1006 l 483 825 q 428 820 460 822 q 367 818 396 818 q 320 819 349 818 q 264 826 292 821 l 129 997 z "},"ſ":{"ha":460,"x_min":94,"x_max":508,"o":"m 94 753 q 115 872 94 819 q 172 959 135 924 q 262 1013 210 994 q 376 1032 314 1032 q 447 1028 418 1032 q 508 1015 475 1025 q 499 933 506 969 q 479 860 493 896 q 447 866 464 863 q 403 869 431 869 q 324 847 354 869 q 290 749 293 824 l 290 0 q 193 -8 240 -8 q 94 0 144 -8 l 94 753 z "},"ƒ":{"ha":833,"x_min":60,"x_max":765,"o":"m 326 513 l 211 513 q 206 553 207 535 q 204 590 204 571 q 206 625 204 608 q 211 663 207 642 l 344 663 l 351 719 q 437 926 367 853 q 633 999 507 999 q 703 995 675 999 q 765 982 732 992 q 756 899 763 936 q 736 826 750 863 q 704 833 721 829 q 660 836 688 836 q 583 813 611 836 q 547 715 556 790 l 540 663 l 688 663 q 693 622 692 640 q 694 585 694 604 q 693 550 694 567 q 688 513 692 533 l 524 513 l 474 89 q 388 -117 458 -44 q 192 -190 318 -190 q 122 -187 150 -190 q 60 -174 93 -183 q 69 -91 63 -128 q 89 -18 75 -54 q 121 -24 104 -21 q 165 -28 138 -28 q 242 -5 214 -28 q 278 93 269 18 l 326 513 z "},"Ș":{"ha":764,"x_min":49,"x_max":715,"o":"m 279 463 q 194 502 232 481 q 131 553 157 524 q 90 625 104 583 q 75 725 75 667 q 99 850 75 796 q 168 941 124 904 q 275 997 213 978 q 415 1015 338 1015 q 548 1003 486 1015 q 678 967 610 990 q 633 808 669 886 q 591 825 613 817 q 545 839 569 833 q 490 848 521 844 q 421 851 460 851 q 373 847 397 851 q 329 832 349 843 q 297 799 310 821 q 285 743 285 778 q 294 697 285 715 q 321 665 304 678 q 358 642 338 651 q 400 625 379 633 l 483 593 q 579 550 536 572 q 652 495 622 528 q 699 416 682 463 q 715 301 715 369 q 690 172 715 231 q 615 72 664 114 q 495 7 567 31 q 331 -17 424 -17 q 249 -14 285 -17 q 180 -5 213 -11 q 115 11 147 1 q 49 35 83 21 q 64 119 53 75 q 90 207 75 163 q 200 172 149 183 q 310 160 251 160 q 447 192 397 160 q 497 292 497 225 q 485 347 497 325 q 455 385 474 369 q 413 410 436 400 q 364 431 389 421 l 279 463 m 301 -94 q 396 -85 344 -85 q 444 -87 419 -85 q 493 -94 469 -89 l 403 -328 q 326 -337 364 -337 q 243 -328 286 -337 l 301 -94 z "},"ș":{"ha":639,"x_min":56,"x_max":590,"o":"m 236 313 q 115 378 158 335 q 71 510 71 422 q 147 675 71 615 q 353 735 222 735 q 460 725 407 735 q 567 696 513 715 q 553 621 564 660 q 526 553 542 582 q 453 577 493 567 q 368 588 413 588 q 294 573 321 588 q 268 526 268 558 q 287 483 268 496 q 340 460 306 471 l 419 436 q 490 409 458 425 q 543 369 521 393 q 578 311 565 346 q 590 226 590 276 q 569 131 590 175 q 506 53 547 86 q 407 2 465 21 q 275 -17 349 -17 q 214 -15 242 -17 q 160 -8 186 -12 q 110 4 135 -3 q 56 22 85 11 q 69 98 58 60 q 96 172 79 136 q 183 145 142 154 q 268 136 224 136 q 310 140 288 136 q 353 152 333 143 q 385 176 372 161 q 399 214 399 190 q 378 262 399 247 q 322 288 358 276 l 236 313 m 244 -94 q 339 -85 288 -85 q 388 -87 363 -85 q 436 -94 413 -89 l 346 -328 q 269 -337 307 -337 q 186 -328 229 -337 l 244 -94 z "},"Ț":{"ha":788,"x_min":35,"x_max":753,"o":"m 292 826 l 43 826 q 35 914 35 868 q 43 999 35 957 l 744 999 q 753 914 753 957 q 744 826 753 868 l 496 826 l 496 0 q 446 -5 471 -3 q 397 -7 421 -7 q 347 -6 374 -7 q 292 0 319 -4 l 292 826 m 304 -94 q 396 -85 347 -85 q 443 -87 419 -85 q 490 -94 467 -89 l 404 -329 q 329 -337 368 -337 q 246 -328 289 -337 l 304 -94 z "},"ț":{"ha":532,"x_min":19,"x_max":511,"o":"m 117 568 l 26 568 l 19 596 l 279 928 l 311 928 l 311 718 l 479 718 q 485 681 483 697 q 486 646 486 664 q 485 608 486 626 q 479 568 483 590 l 311 568 l 311 286 q 318 217 311 243 q 338 175 325 190 q 371 154 351 160 q 417 149 390 149 q 458 152 438 149 q 493 158 478 156 q 507 103 503 132 q 511 53 511 75 q 510 27 511 38 q 508 7 510 17 q 376 -8 444 -8 q 183 51 250 -8 q 117 243 117 110 l 117 568 m 249 -94 q 343 -85 292 -85 q 392 -87 367 -85 q 440 -94 417 -89 l 350 -328 q 274 -337 311 -337 q 190 -328 233 -337 l 249 -94 z "},"ȷ":{"ha":426,"x_min":-69,"x_max":329,"o":"m 138 568 l 43 568 q 37 606 39 586 q 35 644 35 626 q 43 718 35 682 l 329 718 l 329 -15 q 263 -208 329 -149 q 69 -267 196 -267 q -1 -262 35 -267 q -68 -251 -37 -258 q -69 -240 -68 -244 q -69 -229 -69 -235 q -62 -166 -69 -196 q -43 -108 -54 -136 q -10 -114 -29 -111 q 29 -117 10 -117 q 72 -111 51 -117 q 106 -91 92 -106 q 129 -50 121 -76 q 138 19 138 -24 l 138 568 z "},"ʼ":{"ha":404,"x_min":78,"x_max":311,"o":"m 133 1015 q 175 1022 153 1019 q 219 1024 197 1024 q 267 1022 242 1024 q 311 1015 292 1019 l 233 796 q 194 790 214 792 q 154 789 175 789 q 115 790 133 789 q 78 796 97 792 l 133 1015 z "},"ˆ":{"ha":692,"x_min":101,"x_max":592,"o":"m 238 999 q 293 1003 261 1001 q 354 1006 325 1006 q 401 1004 372 1006 q 457 997 429 1003 l 592 826 q 507 818 560 818 q 455 820 483 818 q 403 828 426 822 l 346 917 l 290 828 q 247 820 272 822 q 196 818 221 818 q 101 826 140 818 l 238 999 z "},"ˇ":{"ha":692,"x_min":101,"x_max":592,"o":"m 101 997 q 186 1006 132 1006 q 238 1003 210 1006 q 290 996 267 1001 l 347 907 l 403 996 q 447 1003 421 1001 q 497 1006 472 1006 q 592 997 551 1006 l 456 825 q 400 820 432 822 q 339 818 368 818 q 292 819 321 818 q 236 826 264 821 l 101 997 z "},"ˉ":{"ha":694,"x_min":156,"x_max":540,"o":"m 532 982 q 540 913 540 946 q 532 842 540 876 l 164 842 q 156 911 156 876 q 164 982 156 946 l 532 982 z "},"˘":{"ha":692,"x_min":106,"x_max":588,"o":"m 106 997 q 147 1005 125 1003 q 188 1007 168 1007 q 227 1004 208 1007 q 267 996 246 1001 q 272 973 268 985 q 283 951 275 961 q 306 934 292 940 q 346 928 321 928 q 385 934 371 928 q 408 951 400 940 q 420 973 417 961 q 425 996 424 985 q 468 1004 449 1001 q 510 1007 488 1007 q 548 1005 528 1007 q 588 997 568 1003 q 556 902 582 939 q 496 844 531 865 q 421 815 461 822 q 346 807 381 807 q 272 815 311 807 q 197 844 232 822 q 136 902 161 865 q 106 997 111 939 z "},"˙":{"ha":426,"x_min":104,"x_max":322,"o":"m 113 839 q 104 932 104 886 q 113 1025 104 976 q 163 1031 136 1029 q 213 1033 190 1033 q 264 1031 236 1033 q 315 1025 292 1029 q 321 978 319 1001 q 322 932 322 956 q 321 886 322 910 q 315 839 319 863 q 265 833 292 835 q 214 832 238 832 q 164 833 192 832 q 113 839 136 835 z "},"˚":{"ha":700,"x_min":188,"x_max":513,"o":"m 188 965 q 234 1082 188 1040 q 350 1124 281 1124 q 466 1082 419 1124 q 513 965 513 1040 q 466 849 513 890 q 350 807 419 807 q 234 849 281 807 q 188 965 188 890 m 350 889 q 397 909 378 889 q 415 965 415 929 q 397 1022 415 1001 q 350 1042 378 1042 q 303 1022 322 1042 q 285 965 285 1001 q 303 909 285 929 q 350 889 322 889 z "},"˛":{"ha":694,"x_min":186,"x_max":507,"o":"m 482 0 q 391 -74 424 -31 q 358 -158 358 -117 q 418 -224 358 -224 q 442 -222 426 -224 q 481 -212 457 -221 q 501 -262 494 -231 q 507 -318 507 -293 q 451 -331 488 -325 q 375 -336 415 -336 q 306 -329 340 -336 q 246 -306 272 -322 q 203 -262 219 -289 q 186 -196 186 -236 q 224 -93 186 -146 q 321 0 263 -40 l 482 0 z "},"˜":{"ha":694,"x_min":96,"x_max":600,"o":"m 96 940 q 158 992 119 971 q 247 1014 196 1014 q 298 1006 274 1014 q 346 990 322 999 q 394 973 369 981 q 446 965 419 965 q 490 972 469 965 q 540 1008 511 979 q 578 956 563 985 q 600 897 593 926 q 538 847 576 867 q 447 826 499 826 q 396 834 421 826 q 347 851 371 842 q 298 867 322 860 q 249 875 274 875 q 203 867 222 875 q 154 832 183 860 q 118 884 135 857 q 96 940 101 911 z "},"˝":{"ha":694,"x_min":15,"x_max":678,"o":"m 167 999 q 275 1007 221 1007 q 379 999 326 1007 l 199 828 q 156 822 181 825 q 104 819 132 819 q 15 828 61 819 l 167 999 m 465 999 q 574 1007 519 1007 q 678 999 625 1007 l 497 828 q 455 822 479 825 q 403 819 431 819 q 314 828 360 819 l 465 999 z "},"π":{"ha":1088,"x_min":56,"x_max":1014,"o":"m 268 561 l 256 561 q 163 542 200 561 q 110 508 125 522 q 90 545 99 524 q 74 583 81 567 q 63 615 67 600 q 56 649 58 631 q 135 698 86 678 q 275 718 185 718 l 1003 718 q 1008 681 1007 697 q 1010 646 1010 664 q 1008 605 1010 626 q 1003 561 1007 583 l 828 561 l 828 286 q 833 217 828 243 q 848 175 838 190 q 876 154 858 160 q 919 149 893 149 q 960 152 940 149 q 996 158 981 156 q 1014 49 1014 108 q 1013 28 1014 38 q 1011 7 1013 18 q 879 -8 947 -8 q 693 51 753 -8 q 633 243 633 110 l 633 561 l 461 561 l 461 0 q 364 -8 411 -8 q 268 0 318 -8 l 268 561 z "},"Ẁ":{"ha":1279,"x_min":22,"x_max":1260,"o":"m 22 999 q 136 1007 72 1007 q 187 1006 161 1007 q 238 999 213 1004 l 381 247 l 553 999 q 604 1005 581 1003 q 653 1007 628 1007 q 743 999 694 1007 l 922 228 l 1065 999 q 1154 1007 1108 1007 q 1208 1004 1182 1007 q 1260 999 1235 1001 l 1019 0 q 915 -8 969 -8 q 800 0 863 -8 l 640 665 l 468 0 q 409 -6 435 -3 q 353 -8 383 -8 q 260 0 310 -8 l 22 999 m 349 1229 q 406 1236 372 1233 q 475 1239 439 1239 q 549 1236 513 1239 q 617 1229 586 1233 l 753 1085 q 651 1076 703 1076 q 603 1078 628 1076 q 553 1085 578 1079 l 349 1229 z "},"ẁ":{"ha":1119,"x_min":10,"x_max":1110,"o":"m 10 717 q 70 725 42 724 q 118 726 99 726 q 172 725 146 726 q 222 718 199 724 l 338 188 l 471 718 q 565 726 514 726 q 625 724 601 725 q 667 718 649 722 l 797 197 l 911 718 q 956 724 935 722 q 1003 726 976 726 q 1049 725 1022 726 q 1110 717 1076 724 l 886 0 q 833 -6 861 -4 q 785 -7 804 -7 q 738 -6 764 -7 q 689 1 713 -4 l 558 476 l 424 0 q 369 -6 397 -4 q 321 -7 340 -7 q 276 -6 301 -7 q 226 1 250 -4 l 10 717 m 269 999 q 323 1005 297 1003 q 385 1007 349 1007 q 510 999 453 1007 l 665 828 q 575 819 619 819 q 522 822 547 819 q 479 828 497 825 l 269 999 z "},"Ẃ":{"ha":1279,"x_min":22,"x_max":1260,"o":"m 22 999 q 136 1007 72 1007 q 187 1006 161 1007 q 238 999 213 1004 l 381 247 l 553 999 q 604 1005 581 1003 q 653 1007 628 1007 q 743 999 694 1007 l 922 228 l 1065 999 q 1154 1007 1108 1007 q 1208 1004 1182 1007 q 1260 999 1235 1001 l 1019 0 q 915 -8 969 -8 q 800 0 863 -8 l 640 665 l 468 0 q 409 -6 435 -3 q 353 -8 383 -8 q 260 0 310 -8 l 22 999 m 647 1229 q 715 1236 678 1233 q 789 1239 751 1239 q 858 1236 825 1239 q 915 1229 892 1233 l 711 1085 q 661 1078 686 1079 q 613 1076 636 1076 q 511 1085 561 1076 l 647 1229 z "}}}
